<mxfile host="app.diagrams.net" modified="2022-05-10T01:17:03.617Z" agent="5.0 (Windows NT 10.0; Win64; x64) AppleWebKit/537.36 (KHTML, like Gecko) Chrome/101.0.4951.54 Safari/537.36" etag="etoMnTX5ty5uFyi8qdJJ" version="17.5.0" type="github">
  <diagram id="cfF-LA429BAPi4aCmseQ" name="Page-1">
    <mxGraphModel dx="1822" dy="1200" grid="0" gridSize="10" guides="0" tooltips="1" connect="1" arrows="1" fold="1" page="0" pageScale="1" pageWidth="827" pageHeight="1169" background="#FFFCE8" math="0" shadow="0">
      <root>
        <mxCell id="0" />
        <mxCell id="1" parent="0" />
        <mxCell id="eQaoq6UVIGZGrponW-SI-1" value="" style="rounded=0;html=1;labelBackgroundColor=#FFFCE8;fillColor=#FFFCE8;strokeWidth=5;" parent="1" vertex="1">
          <mxGeometry x="-195" y="-161" width="1285" height="716" as="geometry" />
        </mxCell>
        <mxCell id="eQaoq6UVIGZGrponW-SI-3" value="&lt;u&gt;Abayomi&lt;/u&gt;" style="text;html=1;strokeColor=none;fillColor=none;align=center;verticalAlign=middle;whiteSpace=wrap;rounded=0;fontSize=50;fontStyle=1" parent="1" vertex="1">
          <mxGeometry x="-200" y="253" width="410" height="30" as="geometry" />
        </mxCell>
        <mxCell id="eQaoq6UVIGZGrponW-SI-5" value="&lt;font style=&quot;font-size: 35px&quot;&gt;Personality&lt;/font&gt;" style="text;html=1;strokeColor=none;fillColor=none;align=center;verticalAlign=middle;whiteSpace=wrap;rounded=0;fontSize=14;" parent="1" vertex="1">
          <mxGeometry x="210" y="-150" width="400" height="30" as="geometry" />
        </mxCell>
        <mxCell id="eQaoq6UVIGZGrponW-SI-7" value="Activity" style="text;html=1;strokeColor=none;fillColor=none;align=center;verticalAlign=middle;whiteSpace=wrap;rounded=0;labelBackgroundColor=#FFFCE8;fontSize=35;" parent="1" vertex="1">
          <mxGeometry x="-201" y="302" width="410" height="30" as="geometry" />
        </mxCell>
        <mxCell id="eQaoq6UVIGZGrponW-SI-10" value="" style="endArrow=none;html=1;rounded=0;fontSize=16;exitX=1;exitY=1;exitDx=0;exitDy=0;arcSize=10;endSize=6;strokeWidth=2;entryX=0.314;entryY=1.001;entryDx=0;entryDy=0;entryPerimeter=0;" parent="1" target="eQaoq6UVIGZGrponW-SI-1" edge="1">
          <mxGeometry width="50" height="50" relative="1" as="geometry">
            <mxPoint x="209" y="245" as="sourcePoint" />
            <mxPoint x="209" y="550" as="targetPoint" />
          </mxGeometry>
        </mxCell>
        <mxCell id="eQaoq6UVIGZGrponW-SI-11" value="" style="endArrow=none;html=1;rounded=0;fontSize=16;exitX=1;exitY=1;exitDx=0;exitDy=0;arcSize=10;endSize=6;strokeWidth=2;snapToPoint=1;entryX=0.629;entryY=1.003;entryDx=0;entryDy=0;entryPerimeter=0;" parent="1" target="eQaoq6UVIGZGrponW-SI-1" edge="1">
          <mxGeometry width="50" height="50" relative="1" as="geometry">
            <mxPoint x="613.0799999999999" y="-160" as="sourcePoint" />
            <mxPoint x="613" y="550" as="targetPoint" />
          </mxGeometry>
        </mxCell>
        <mxCell id="eQaoq6UVIGZGrponW-SI-12" value="Context" style="text;html=1;strokeColor=none;fillColor=none;align=center;verticalAlign=middle;whiteSpace=wrap;rounded=0;labelBackgroundColor=#FFFCE8;fontSize=35;" parent="1" vertex="1">
          <mxGeometry x="610" y="-150" width="480" height="30" as="geometry" />
        </mxCell>
        <mxCell id="eQaoq6UVIGZGrponW-SI-14" value="Technology" style="text;html=1;strokeColor=none;fillColor=none;align=center;verticalAlign=middle;whiteSpace=wrap;rounded=0;labelBackgroundColor=#FFFCE8;fontSize=35;" parent="1" vertex="1">
          <mxGeometry x="613" y="114" width="480" height="30" as="geometry" />
        </mxCell>
        <mxCell id="UsvL8fTwBF5iR_-93dB0-1" value="" style="shape=image;imageAspect=0;aspect=fixed;verticalLabelPosition=bottom;verticalAlign=top;image=data:image/jpeg,/9j/4QC8RXhpZgAASUkqAAgAAAAGABIBAwABAAAAAQAAABoBBQABAAAAVgAAABsBBQABAAAAXgAAACgBAwABAAAAAgAAABMCAwABAAAAAQAAAGmHBAABAAAAZgAAAAAAAABIAAAAAQAAAEgAAAABAAAABgAAkAcABAAAADAyMTABkQcABAAAAAECAwAAoAcABAAAADAxMDABoAMAAQAAAP//AAACoAQAAQAAAAACAAADoAQAAQAAAAACAAAAAAAA/9sAQwADAgICAgIDAgICAwMDAwQGBAQEBAQIBgYFBgkICgoJCAkJCgwPDAoLDgsJCQ0RDQ4PEBAREAoMEhMSEBMPEBAQ/9sAQwEDAwMEAwQIBAQIEAsJCxAQEBAQEBAQEBAQEBAQEBAQEBAQEBAQEBAQEBAQEBAQEBAQEBAQEBAQEBAQEBAQEBAQ/8AAEQgCAAIAAwERAAIRAQMRAf/EAB0AAAAHAQEBAAAAAAAAAAAAAAABAgMEBQYHCAn/xABIEAACAQMCBAMGBAUCBAQEBgMBAgMABBEFIQYSMUETUWEHFCJxgZEyobHwCCNCwdEV4RYzUvEkYoKSF3Ki0iUnQ7KztDU2c//EABwBAAMBAQEBAQEAAAAAAAAAAAABAgMEBQYHCP/EADQRAAICAgICAQMCBQQBBQEBAAABAhEDITFBBBJRBRNhInEGMoGRoRSx0fBCFSMzweFS8f/aAAwDAQACEQMRAD8A6yWPY1ZWmgsnzosKBk+dAqBk+dAV8h5PXJoDQA2O9ANB59aBCTnzoZVAyfOgKDyexosKCyfOiwoGT50WFB5PnRYUDJoCgb+dFhQWT50WFB5PmaAoLJ86LE0DJ86BB5PnQNBZPnRYUHk46mix0D6mixgyfM0WKgZPnRYUFk+dFhQCSe5osYW/maLAPJ86CaDyfOiwSDBNAPQYznrQCFb+dAgYJ6UFhEEd6CAt6B0A58zQII586B6AcnvRYaCGaA0DB8zQUHk9yaAAc0WKwsn1oDQYJx1oE+Q8nzNAWDJ9aBA37mgAjnzoGgsnzNA6CyfOiwoGT50WJh5PnRY6ACc0CpALE96LHQOY+dAUDJ8zQFBZPnQJg386BAyfOgAZNAAOaABzH1ooAiQdiaKHwHQCFYFANgI8qAsGO1AWAjagEwY3zRYWD50CCIoGmDFAWADegLCoKDoAGDQKwYNAWFigE7BQMG/WgAUCsFAtsFBQYGaBN0Higm7ARQNOgYPegLCPWgaCoCwUBYKA0CgYPpQAoUEsOgOBqe8jt8eJ37470Ahm61e2s7N7uRhyoMnek3RQmz1iC8HMhGPPIpJ2S01yTRIjdGBqgoM465oBMKgK2CgdAoFQKASBQFAoCgsUCDoAKgA6ACJxQNKwUBoBFAJ0EF86AbARQOwsGgLBQMHbNAB79aBaAaAQVAwUCQKBgoJoFAMHToKOQ5CFNgwxSBCh0oDsOgKBQAKAoKgQdACd80D6DoEAZxvQNhEUAmGBigG7BigNgoEAjvQAW1A9g60BwDFBQAPOglsPGKBB0AFkYzQOgZoCgZ8qAoTQUD6UECS2NyNqB8Ef/UbU7rMjDJGzDqOtIKHIrqOUHkYEjtTKHg4IO9AB8w2xQTyEXA3NAjD8Y8XR6bLHENhHJyy469dj+VS7ekNtRVs8u+3727atZatNwvoGpRuoVXdgT8B/6MdM56/SpyRqXrdjhNOKaVGB4G/ij484QuSl7cnULJmy8TgA+WxxtSiqE5XwdZ0r+OjSEuVi1DhO5itycGSOdWYeuMCm/ZfygmuzrPDv8Tnsn1Gx9/m4uWEOwBimU86k+gHSkp0trZVJ8M7BY39nf2sN9ZXkNxbzqHjkjcEMD3qoTjPcQlFw0ySHRtgQasAGgmwUDsFAwUACgTBQMFAq0CgKCIzQLhh0FAoJoL0oEFkUDoOgQCPOgdhY9aB2H2oF2DFAWFsBQHYO1A+wqBgoEgUAwUCYWwo5DYodaA6FUDQKBgoAFAm6BQJ0CgoIigmwHYUCBnFA+Q6AsI0BwwDON6AYKBAoAI+VA0GOlAMBFAWHQIFABE0DSE4oKATigAA96BIUFJ7UCYl/hoDkzuva3qVoz21hDGzchIc5IU9sjHXOalsdHmPVdT4w4L1a/kk1e4ayuJy7SKxb3d2/EcYwB5/Kl3YzRabxVea1ZyXkVxfwzwW3ObmCUAOOxIOxB86ANpw77SNQsNFZdUW5ubllDxS+B/K265bOOlOwaOvaZJ71aRTm4SRiozyHYHvTTsTVCr68s7CJrm6lWNEUksewAyaGKzwR7V/a3xFqfHWr3ulalPbWKyyRw4OOZckfhPfcfUVKi27Y3JVSRzbT+F57yM6xqficl1IcSSMOYk5yfXpXRDF7bfBhLKocclLrOmWmnSyIcqQ2ArDB+1KeP0k0yo5PdJkf3JF5EnC8rgbkYIHnUJJsq2kVzxrbv4sMhK5I9Klr5BPtHRfZh7e+LPZzcRCO4e7skbe2eVuUDvjfFCpcIHcuHR7V9kn8QfB3tItUitJ47O/Oz2zOCQQBny/StIY/uNpNX8ETyfbr24+TrsNwH6mplFxdSRcZKW4u0P7djSNAUAGRQSmFQUCgAUACgAUCYKBfuCgEEaAb2AigLDoECgAiKB2DFAgAetA27BigQKACI3oKQNhtQGwqBgoEwUEhgUAtCqCkCgYKABQSwUBYKCgqCdAzQUDIFBPIOagKC+vWgoG4oJ7DoBgJFAbYWc7UBVB/I0B+4BnvQGgZoDkImgoGfWgA8DFBNkPUdU03SLKTUtUvoLS1i2eaZwqg+WT39KTaXIcvQjStb0fW7X33SNTt7yHpzxSBgD5HyPzpKSfDG4tci7rWdPsEL3l1HEowMswA3+dNuhUZ7UfaDwja3ssWocR6faCOPCeJcoCx67b0vZFJGZbj7hfWNRsdKsNVtrqGUNPPJHKGDN0Vc/5z0FIKMn7Q24dhtJNLu7h0kY+LIqspWNWJKoo6EnbOcnAO21AEH2T2WnXFzdaJcNDdyae4A5JBJH4ef5eCDg4AxnHakq4HT5NfqutcE2WszWGp6/ZxPaoqukkq9c7gfLAG1Uk26SE32y80/wBsHs6XwNKj4t05nb4IQGPxY7ZAwT+tVTXJN3pFBxtxAOJ7hdK03UUEXLkujAruM82flnFLTBHlT2kWmh/8QPovD8nvbWrkTTdixOGPrv69qa5oT2ZK+1qK2sWgJWY27GJn/DynrgY+RraM/RcmTjbtoxepe+67fyXJM0jv8Tsx5tsedZzk5v2ZUIpKlpDl5ezpZRWjsZDEApxGeg7Z71K0V6plZILiS3kDRsqZ5sFcAYqW2DauiCgLSIhU4YgAGihki1vdT4d1XxtNu5rS6gcgSROVINVdCaTVUexf4ef4rlvTDwh7RJ0WfASDUGkChjsAHzsD610xyrKvWfPyc7xSwy9o8do9W2GqW9yqvFOkiMAwZGBBB6YIrCUGnVG8ZxkrsnrKjHYipLu0OUAlYKBCTQVyCgYKBVsFAmgUA1oFAfuCgLBQHAKBBUAHQAR+VA0HQIKgA6ACoALAPegdtBEYoKBQAO9BLDXrQFiqBoFAwUCQKAYKCQqABkUDoL1NBQeaACANArB0oDkANAmgEkbUDSoLJoCgUDAKBMVmgVBE0BTSAqk0DsTPLBbqXmlRAB/UcUm6ElZw726+3GPhfShp3C2qxx6iZd5UKty8v9PKc5ycbeWaTTktaXyUnFfzPfweUuOPanxtxsFvOJdWuHkjkLKkLFYhnGMR/hHT8zSWHVt2H3kn6xVFXpntL4z0tytnrep2wmXBEc7x+IAf6guM0/RLhEvI5PbNnHxhfa1HibwJCgBlM4BbGNuoyT0Oc1LdAnZeaTqFpd2zWpstJkTbxAtqcyHquOue/nQmUn2WJk0+wDXA0XSXnZwqIJUjkCjpiN+ViMHGwop1oLd8mY434mtL+2nhNo0F/GCYeWMBw2Nhle23fzp+r+BWkjE8C8YcV8OaiWtNSNobiPkk8duVXxnlzn5nHz61ccbu6JcvyOXvGfEukarqV9y28syyeEZ1VZIw0jcxYAjfO/yNbNuLsiVS7ssPZnqOkrxBNe6wPFE9tKVR1LLGwX4SFHUk/rVQacrkRkVRqOjVcNcY6jY6BLoczSxSuhUXB3bJOWwB0G5x/tWTivZmsXophougxTyC9llmZ0LtlguBnqR1JrWONN7MZ5JcJEa90zht05NI0fKPgZBj3PTODg1pKEGqS2SpZLtvRFn0LSby0NvD7wspfkYmdQCwO+3lj1xU+kWqS2V7S9rfBQzWGn2gSGOZpZVY8xAXkXHcnuKxajF0tmibfVFXcXGnm4ZHAVCMc4TIY+Wazb2WkkiC/DaPKLqzjf4TzcmR0z1Ap1fAm38Fdq+ns+oPcmMwRZ5mZjtzf96l3YJ70QFCW1yszOCoAPKO4880v2KdPk9Q+wT2+2WgpBw/xdqklvZgKkNxymRFXHRsbjHTIBrtw5oKPrM4c+Gft7QPVmm8V6dqSQT6NqEd9ayAMs8TZDZHQVzZZJzfrwdWFP0V8mlttTjZcFxkdRmoTs0dkqC8huB/LcHBwcUFDx33zTJQWDQPQKBgoFyCgYKCXQnfO9AdB5oCg6A2FQIGaB0DNAUDegNBZxQFB0CCJB70DSAPpQUH13FBPAROaBpUFQJhr1oDoVQNAoDkFAnoLPegoHbegnsLIoDYKCgtqADBoAGTQKgqBgzQKgZzQHAKBgoAFArCzvigWxRKqpZyABuSe1AWYXj32zcG8CW0rX2opLPGMiGI8zE9OgqHJcIpKuTyB7QP4juLeNta8DT7g2lksoMcETkco6/ER+I4G9Cg5O2DlSpHNtV125vybi7uyQsjFI2bmw22T1rW/UgmaXoetajZwXnMjxPKUiTnB+IdSR2+tFSavoS9U6fJrTb6XY2vNqLT+PAmPGTkCoSPxYK5bqO/SqUb5E5JccmY0HV445Luxt7e3mmVucTlm6ZxnGN9yOtZKF6Wy/alpUXJuOGrotHrDWc80kZXkMc/OpxseZGQDoDucCto4a5dGMs1uls0+maxa6do1v8A6HLcxSMZI7uG7LXVtOuMqVjl5gjDoeUg4Y1rDBavhoznnSdU2Y3VLGx1DUJtRiklghVjJ4YIHIfJc748s/eq9LlvQKdLXZB0650nQWiur6xj1Is3wpdAlFUdmx8x08qtKOKpSVmb9stqLoa1iLh5En1DTJyfHfmS2k2CZwPhONwPLyqcrxtOUSsayJqL67C0K6t+H7hbuSYowjLjw8c2CMEYrCD9ZJs2nH3TSLDSrzU7zS9SeC48Fr2dWgaQHMaAtnA37MRmrgnJuRnNxglHsfgi4b0+3f8A1DiGQysqgcpLb7Z6f4q1CMeWT7N8KyTaXHDwK+HqpKY+EqwG565xii4rhgvZ37IuLO0hngPusln4jbIZF6fU7ZJpJ/DG47KLWuGJcFpbD3pGBYm15BnHbIB32qJxvdFxlWrMZKbUPNEhEcMYI91ulBdT5AjB/IVjVujVK9tkSy1uwWT3KeCaLmDKsiSE8jEbH1AO/wAqm0ht/Aq5vre3BtNQUzRMxCsnRiNjg4zQmUlS0Umq6V4UDXFgQ8DHcDdl+Y7UqDnZM4Xs11j3fSi3JcSuY4mLYBJO3504pN0yG62jQaZxhx/7NNSuLG01q906e2coyRyfAx8wDsR60pwaexwkmrTOw+zn+LCeNls+N45XzgPdRLksM9WAxvSh6x1IJ+9pxPTns+474L1+xk1Dh/iS2ulkYM6c+HQnbBB3pOcU6TLgpSVtHRLa9imX4HB2qk7GP5z3piQKAYKA4BQMFBLCO4oDgIA5oB0KoEETjoKBpBE5oHQWaAoMdaBMHegLB6UB+QYoCw8bUB2EKCgYoAKgloNaBsVQCBQMFABUEsB+dBQmgAUACgAUACgAUACgAUACgAUEsLcnpQFAmeC1hNzdTJFGuMsxwBk4FJutsNs4n7efa1pulaDDpWkXrSzahKYi1tJ8QAUkbjzblFTJOSVFRaVtnj/i2+a6vJGtLqWUMXLtK2WHxfCG7E439K1UVFGbk22QYrKFP5sRCkR85LDv36fOtGorZn7SbogXSwozkFDgggcuS/nUNJ8FKVcs1HDmrapp/g+JozQ2sbF+UxhWYgdjgEjvirxzcdVoU4qVNumQte1+5v7eRJb23h5SeZUjyWYHOSfke3lSc9VVAsaW7sqeFbLUdV1GSLRrjwXU5muWIRFA6sWOwA+/TvVYk3OkycrqFtG01S00/RrhZdMun1m4Pwm4njPIzADJVc79wM9q7ZrFj2nbOOLy5NVSMlq/H02mu0UzvLckYYK2ydNvyH2rnlmcdHRHDeyLb8cJeBnkgcqAA6kAEt88fPtWX3ZMtYkgPqK3qEQxTheYFUUhtvM9M/SqnOUuUOONR4YxfOLC4S3lReWROdGByD5D9R8xSdOtBdN0ygnvWt3a4BkdSSnI3VT3x51lK0y07Gv+Lbm3ASKVlVxg4OQB9e9UsjXBP2090LteKLuGTxIJo2UfhVo8/en7tjUUuC8HENhdSRf6oltCf+lYeUfPKEGhtt7Q7pckttc0K1z7hd3UTLgkxyvjOPIg7UNRXAk29vgveFuKk1C+iiaaKV+YBJAwVh/82eUEYqoTppMmcLWiXxM2majctFdwKrE8w8SMcrg9+bBxVZJxkmTCMoflGcuuD9JIDx3c1oZADlV8SPf1XO30FYelq7NE03srbrgrW7e3M9ldW2pWp6iGUFgP/kO470nBpWivZdFLHY34lMMEjf8AmVzggedRT4HdkRLu4ttQilhJUwMOQjboev3pja+TovE+p6Px0kOuX6TxFAsUohYN4EmDnY9VOAR65q3L35IiqWjB31t7hMs0DmWJx/UhHofSspI1i64Zo+AONtS4a1NfcJniE7jPK3anBRvaIm5rjk9q+zD2o6NIkVvqeqqLhkG8kgz8iO1VNKD0GOTkv1cnb9K1ODU7ZZ4GBUjO1SnZfBOpjBQAKABQKgUBQKAegjntQLQRBNAWkDFA7BjagV7BjzoHYARQJhkZoBOggTQDoP0zQFBYoHYVAwUEsMUD5QqgECgYKCW2FQHIRoBBUFAoAFAAoAFAAoAFAAoFYWfKgYeQBkmglszPGntC4b4Dsvf9ev1hj5SyqN2bHkKai5cEuaXJ439rn8SHEftIMml2QSy0UMxjiiySR/1yNnc4zgbDeoUJOX6npGjlFRpcs4//AK7qep3Eb3d1KYYBlFZiAoHff5D7Vrzoz/JIjJcSXfOx+E/bbp96VbDo0FjpNvLFDc6i58FkEj+IwUAemO9Ukntg9cEe4v8AhmNGa2hAdgVzj8GCcFT16Y8qpuCWmZ/qb2hzS59T1PSNYlsmLKvglnIy3IM59TnY9expwk23G+RTxxVN9DGjcCLxDz3+s6hLiMeK8SAhnB82OOUdOgPWqWC9yeyXlUf5Vosb7TIdMt/c4reO2gjIcQocGTvlyT8sZyfzrVxhjj+TL2lKX4KTVuObmyRbW1jhh8Fsr4KDBOMZJbJJ/LrWcs66XBpHE92+TCX+v3ep6h4t3GkgJ/qVc/fFcs5ucrZ0Qi0klwa2COw1nhyKaUyiaK4dZmB5nC4XlOMZI3I79K0g1Wwd2R7C70XSrhbe6eaVJNnlABMS5xzAefzrRTSM3C0W3E2lQro73HirI64kSaPJjkBOzDyLAA49PWrm48oUU2UV3wnda5prahYTQj3eDxnTO+B1P3Gay9HPaY/ZRdMwzcrnlkUBx1PnWKdGjbHojCMKV5WPTH600xN1ouLHh0aiWeQXuAMhlQOP7VaXsP8ASlbLJeFIBMFS4YNGv4OV1Y/MY/Sm4bolNPfRZ22k2gj8ILJBcFeZZA3MD8iRnHrnzq1ClZMpt6LuM3K8PieNjHNG/gvG6fBIM5BK+Y3GflVKFpkudNbKeWwt9ZZZNHV9P1MKeeJJ/hkIJ/Cc9fTP33rKUTRTvkrl1DWInWG7MUjQMI2WVQrDHrsQfrUU1yVSfBc2B029V47pJrWU9A0ZZX+bb7U0k7E20QNV4btZJC0TvHJ3GOZevfbNEo1tAnboZ03T9Q0qWWOSIXNpcp4VwiPnKnoR5EHBHyqOCvW0RHjMM/uiXMbopIXxAQQDtuO1JgqXYmXT2THJZkSQ/E3htzbf9Qx2rJKXs7NW00aPhm81LU7610+3uljaV1WWVjghQR3qW22EdKuj2x7K+O7VLe04e0+eW+eHljYhNlXYbdgB6mtEyWjtkZ5lDedaCFmgkTQWCgAUACglsFAcAoDkI0AgddqCgsmgmgYoHYBmgToP6UCBgZoHbDoEJNBSCoEw1oKFUACgAUCYXTNAuRNBQKABQAKABQJugUA3QKAQKAboI570CTRX3mtWFqrl7lByZ5jnpg4NKyjzp7aP4h9Qhu24Z4EvDAYj/wCK1BCpOcf8tM5x1yW9MChRbaJuNOzztr/EF7rcjz69qM1zG56yOTIT3yT271sl2zNv14Ff6fpP+n25sYE8WaT44+bOEwMdj+zW/rFpVyc7nNSd8ELULNCsbvFjDYkPLj4cbYqJKkaRbvnRFvdTs4BCkFijpHlvjYAP88mspNfBolJ7spLjUZdagnnF24eFgWQycwAJ2xj7fSs3KyqdFXJcXMU5jgjkYA7EqSftS2NJm24X0q5kkin1e+js4nZSQgAYAn8WF7+h863gl2zKbd6XBsDxJBaCVNPuVjzAVlkY4IAGM+Q9BW8JpSpcJbZlOH6bfNmX/wCKrK7uSojDRxOW8UoDnzyTvWU8inPXCKhBxjvkxmtayNTuXjtbUNFn4X8IEn8qxnJSelo2jcVvkas9Js9PdZ7+ZmkIzyqAoA/WklW2PT5J8OvXdvIqaYuneFzfGrBSZPnzHm3oclwCVvkhcQSx3863cdiIHcbqp2yPLzobsZLtuL3h0WPS5LcyGHmQMJCCyE5AOfIlv/dR7dBxwTeFuIrnS7n3i2vkWK4Vo5lkXmUKR0YdD9q0x5PR2ROHuqMRr3uh1i693RfD8VipTZSD5VlJ3JtFLSQ/pk1pAfFeyVmUcy82+T260RKuS3RpLLWrOdFi1GOJCTsqoEO/quD962hOtMzlFN32XaafaI6SQanEmDnwi7HPkK0aXKM73TL67smkhj5pIH8IK4dGJIYjpWz2kjJVfLILz89q0bPzuxxjGOmDv9QKm9UNxrgiyaTZ3icyfyLqOVisiHfm+E5H786hQUnZXtWmHqVja6ugbUbdzdqoDyIuCVBwfmNu+4G3apnt0VFtLRUNwNeKR4OpLFE+6LIp674wRnyx2NSsTe7H9yK5JEGk6kqokOri3uIQVdSGPOucjbpSeJrVjU4rZHMupJc/z1S6iQ8pU7ZHmMgVE006ZScWrRY3mkaVqUfwM5kVAWilPxDbqD/ipa6KTvVlRLpWp6POZbHmkUA4TqwXuM/fY1LTTG10mXVjpL38Ftd6UI5LiWXBQAI7em/fY0UmrFbbpnf/AGI8Ty6NqLw6lAYLKJFaU+Dh+c9MnY5z2PpUdlp2eqbPUTJFDNEF8CVQcscH7VVg1ZZrhl5huD0qhUgEUBwJoKBQAKACIzQAdBPQRoECgAiKCkGKBdh0A1QQz3oECgAZoHQmgoFAmGKBdCqBoFAwUE2F86A7E0FAoAFAAoFYKBgoJsLNBQTNy7k4FAGD9pPtIs+DdMuLi4QlI1wxB65G2MVLfSEqT2ePLv2qa5rN7PeNqVxHb+IwEcfZSc537+Zp401sUtuujM6hqGm3tzJJcs0amPmDk4LH/O9aJqiGmymmiglmiS0vEfmOCuclR2FJu9ISj8mh0yWO0lmuUaESiMKgmbqQeoUbk4+la4numTkVKzPa9rGtardCLICgkc+OVOm/XbA/tUTm5OghD44MTrtz7xJlbvxcYGN/y9KzbbNUki04e0Ca6hSEyFBIwd0A+IjG3yHX71ShbJbS2zQW2m21hNIrFgWGFxuBgg9a0UY8MTbqxF9e2cMvJaL4ixoC02SN/wC29TJxi6QRUntsqbviC7u7cWscgf3lumOw9fLrWbm+uylBOg/dZAfCuiYYRgqiru58yT0G9CVclW65Ew3AmcwrEyWyHBZGHM33FJN2H5IV5awapIy2926kbHxNx9xTk2KkVa6PIk+JHDKOvL1H3qUmNquS91hYUug+nxoIBDGiqdjkIAfu2TWjaJqlyVDgyYcRMuOo61HZSuiJO06yskQIB6gHY1LY0r5EGCWP+a6kehH50k7G4Vtkhiy2ivHlmk8h0FUpK6FTfAzzHlClMsOu/SquiTV6ZqyR2a6ctmJ5pBl3zgKPTzO9WpdEtW9I0dve6Tc2kfhwS2mECyShuXmO4DYbIJ2xkEfKtVNVRLhu2EWspkSNbxXMRBCDKO5774IqfboPXsrtbvIbYh0spsp0Il5sHbuv0oc6GofhCLTjswlVNoYwD8Tt8RyT38xS+78h9t9GqsdasrvTeRpYWgYZY8vXyDY9a1WRNGfo0+BM11puEulDKYHAZeXmLAbkEbEjHcVPsm7TGodNFPfXEMUrXkHiSIwDJB5nvvROabuhqNKuyLBrOnXRXTb2F4VcggFeVww6Mrf4+tS2mNXEu7e0jiVo5pWkdcGOV2w/Ljz6k1m00yklyVUi6zb3PvUUDTKgLq8KnIUdebH50VY9vRqND9oupWebl7tXt4nEaqxPMxOM4I3wNj1rNrtFJ/J0/S/aXqXBB0PWtN1oXsGoQv7zbzXHixxSAnYD+jOx696zbaVpGkVF9nob2Ze2HRuPrfkDpa3gJBtWb49v6h5g+laJ/JLVHReYEZHeqJrYmgLDoHYKBgoAFAqCoE0HQIFA6BQFUCgQKB9BHegQMYoHyERigadhUAxQoBh0AgUBQKAoLGKBXsIjFA07CoGCgAUEsFAgGgfInBOwFBRW8RajFpGkz6hO4CQgE5OOpA/vSbpWLbZ4r/iF47udS1pNNgvFe3bIkCNzBwBjOO4OxFRF3sHrg5TaWr2NnJdOGCruBgZJPQVqnRLZUX41S7I8YqEf8CE7/Ok22K6JujWF87M0EMMSxY552blA+/f0G5pwTbpCb9VbZB1fXbuxeWytWDTNs8hT4x6Dyok2pVY001oqEvtQu4yl9etFDEpUADmxk+XmalN8FJWR9KtG1TVEsrSFnLHLNncKOvoKa26Qro61ZafcaBbPHGsaTyqIS2AcZ6AepA+2a6IqUNpGMnGejLateRK5sbSXnmLcjNjJYkgYHnvWUp9dmigubKbXrSXw/dLXJ35Gx0JABJ/flWbVl88A4ditwfEVlBhUAuy5A3Pb99aIg3+C6nitZ4ppLySRpZSGXbsO2fKtVFNbZm3Wkiiu4/Fm8KJ2SE7AqNyc9qzfNIu3Wyzt7eHSbMKYrcMw28ViXz58o/vWjjGEfZ9ii5Sl6rSK2We4eTEENsM5OFjHL9iK5nlbf6ToWNVtjE9q0v8AMeNubbIUY+2KbnbqiftWrREv7NkRAYpVkG3NnYfOhzrQLHJkqx0p2JyCe5JFZSyW/wAG0MLXJZxWLysY3Crt3TO1ZOaXLOhYqjY7No4liLwyIANiAoGO2cf7VcJrkzljbVFRc6C6kyds56YyKtZblRjLBW1sVNG0EUcsURBYcuwO4rVTTdGbxy+CNPd3bBYZy5iQ5CDoN8mrUrdEOFbY7YTTwzieKdAw3XcDB7U09i0Hdprc6u88M8uB/wAyNuYY9SKG7Ykvgp57/UrNijIQAdw6An9KQ9k3T9ftXt5FnUxOzqcqgIHn8O360J0T+5cWmsQXciWd1dMEfZJgCvLvnr18tqLG9js9wdJuhbPcNdxliWDJgg9dmB3O1HAJIsJ7uxvTb2JeOd5UV2WdRlcnIAPn03yKtNISbQmzmmtz7pOGkt1bCknLKTtjeknYbeyyj1EaN/PlichjgSpsy5G+fn54ptUK74BOivBDNax2qbGU5XPN8ROc9PI1Dfwh88snaXeWzyf6dM0UUiZfx0bnX8s9xUTfryilBvhnVPZvxDai/wBMsdPsFuL65mWJpJLZQoO/Rsgjp1BrNTvg1pVTZ7L01ybSJWkEhVAC2epxWyIJRwOtMAAYoEg6BWCgdgoGCglgoBfkFBQKABQQCgAqAB60AEfWgpBUAwxQLoVQNAoGCgTBQLkSTQCQVBQKBN0AmgXIk0DQB1oBh83KOY0Co5n7XeJdJXRrrRbu6AeaMFolkw/LnORjfqKzm+kXFbtnjLVtJ0qDink1KVykbEuDJlmUbYz0322qoJIlu2zPcS3FnZ2a3kE/jK0nhBPLGcE9qtpJWRe6MjLrrwzCVEUyAYywzioTorhcDS8R3XMs3MpYHmXyB88UWF9EO8ubu4kZ1TkZifEYDfP+KOdhbI8FtN4yp4wdZTykKT389qECSSNrwpp9taXZaBceEwBY5+Ij/fFXHTsTTZp7jWo1Lo8hLoSY3J/DkHmb54wPQVrLJ0iPSt8GX0qCK5124u32ESjwkH4edgcfZcn5isUrkaNUtsdtWk1HVJLQOgBDgnYBSQSST8t/pTW3SBtJCNLtLWCZopecQ28jAg7K23w5+TD9aVfqph7WrRIv59Na3Mc980kjOxZIxjI7D0FDdcsFFPhbIls3gOWtQxG4XG5+eetZudO0aRx3qh1dPklZTLHkt0UL+p61z5Mjrk6seJLonwaTZoXbGSSoIHYb9PT/ABSxSXZc4dUS1s7KOL+lRgcoJ7nzrSeS1oUMDu2tFjZ6Pp7ytDcAyGVOcBgRgnOOtZPI3wbfZSpsh2tmryusUZCRAgnOc+lYu1fsUknTRcPpennBDBXbqCMVi00dUYxZFXSIXJefkVVz8QHXyxVKb0iZYktjb6fcXUiCSIFVACjHbyzWynXJk8Um9srL3SZ5sK8KoqHbO/KM0Qy6bszlgbZU3vD8ryeGMMx/qGcU4ZW7bZEvHXwVd3w5IHC4KnzAIraGe3+DCXjNFbJaahYvgSMhX+pc1qprmzGWGS1RHl1vUmXwbkLcqNv5qZ2rRTtcmLi1pIhXEcUzK0UPhE/0k7f9qExbvaCh1bUrEmNSGVTuroG/WqCzQ6de2mthZJlaOeMhZAG2K+frQtuiWR9UiSa9NzBKDzKMRqPIU5cgtrZc6a3v9ipikf3u2GJecY5x6/b9aaVg6RPur2KIW7ySER3MZIY/0uDjlP2HzzVN0hIicQ3bQ2cHgOYo41AKr033yp6YzUNVwUJ02GaWBtRijLJyA4jUnmfyHz/zSS9iXL12jRcP67e2tquqWEjSTWkgDxsvMYmG4x0Pn0PY1LhZanXJ3P2afxa3eniLSuMoIJLRAAl7HkSAE7c47jtkeW9Sk1psbro7lo38Qfs11zU7XR9P4ktpri6yExkLnGcEkY8/tSlljHbLjjc6S5OiwXkcyB43VgcHKnIx2q4zUlaYpQcXtEgMrDY1RDAT6UBQAc0BsOgLCoH3sOgYKBcAoJCzigfIAcigGqARvQCdBHrQNBUAw160C6FUAgUFBE4oJaCyaB6CoGCgAUEsI9KAQVBQPntQKzI63x9Y6XE6XA8N0dkfnYALjPelYq6PIvHnF8+sa7e6pDF4pjumCSSKJEYA9EOMY6Uox3spt8JnNeLNbuNU1Ga8kiWOaT8SpEEVdgMBeg2H5mtJc2Zp1oxN9d3M8mImQBdyvbNZsE/yUlyLgyFmTLE5271NlU2R+eQDlxykdjTFwLRZ7hvibPnQOr2y90C3W3uw0sqgBSQ2M8u3X9apLYqpaNJp+px8je7sFVWJVT1II6/M/wBqpu+AKniDWTBNHb27ZwhLEnfmzUt/A06I+hS3Msc03jfG/TzI3yfsPzpJ7Bux7T9RFhdXAt3V36NlAw3XB6+mR9aE/V2gdPSQ4dVkm5bKIs/jE5bl3GNxgDbzocqVjW9C7a3IEV0zl2lDb5I5cgjJ8vPFYufybxxPouNN06XwVZAMgAluoNc85tnVDFWy2g02QABTu25BGTnz9K51NJtvZ1/aSSS5LjT9Nuof5jWvilhgtjJI+v8Aaj7quky1gkttF9badpDZmMEayKP/ANRwMH0UjNWp2tkvTpDsGkmWR5LZkeVxhpuRuSJe+OYDmO2wFP7iX7ENTnxyCHhlzcfBZcoXoWAJJ88DvWLm227NY4qabWydeaA0kaxeAEcY3Gx5QPLesZZGuzshhuiIOHWVkjmYbYIHLmpjkp2aPCnqw5NFdJMzFuTGAvY/KiU7Vt7FLF01oi3OkosYXl5HBIYkdc5x8qPdJJIn7N7IX+lxKCfA5nPfy/e9CzN6iL7L7RFl05JCV5VON8Gq+69pMh4rKLUdBHKzLDzYxnI/D/mqWR1tmUsHLSM3c6LykusWNsYPatoZVFU3Zyz8a3aRnr/RpxIZBtjyrrhmTOPLgrRVanbrHFE0THnAKyD1HQ/vyrojK0cc4KLoTo157pLK5JBaJkHzPerTohrotrGS1bFvJKxkyCpVPwj596adiouD4ltc8kcnKeYMdzg7dR96q64FV8kziAQwaNbtHHs/8xT15Tk5ptpoatMotP1YMvulwA8TEqQwyAD86zsqy3s9WtdFED2jyLuPE5Djl36gfnj86pOnYntUWGtcRSx6ldy2c3LKFwxYBgx5csd9iM5wcdKqc7dohLpvRK4a0i11jTrz3rxC7QtNauqZCleZpFC4+IYJxWcU5S/BTcUrfJU3PD2uaTHb3ZVkSWJJY5AcLv2z9D9jTnj1taY45K4e0ang32z+0DgiFrbSuKJ1jYZETAuM/wDlJG36Vh9uKdx1+xtHLJp27/dHpf2X/wATdnrTQ2etXKvNK6R8zIIyzNgdOmcntWt1tmaXs9Ho2OQyRqxGCRnHlVJ2rCqFg4pg1YYOaBcB0DTsFAwUCasKgkIjNA0GKAYdAgjQh9iaBsMdaBdCqAQKCgsUE7QRFAIKgoFAAoJ0Ed6AWgiMdaBp2QNY1AabaNcFObHbNAnyeTfb7xzeHX4rfStUgRM+DJArqzlmP4uXBJ7dxUpXIHVHPJdcmtuHprBvd7dFYHxTIGIJP/TjO+a64ySg1RhNP2TtnMtRe6vwZGkBVmwGEZBJrndvZpGKWrKbUI7WCYIZxI6pvyDv61DRaSKG6mMkhMZIUdMUgbcuBoGR25uYmgSbLKxtTIpdDlgMqPOgCbJE9tC0r5OcIAO9N6HxwPLdm0t0JCiSQc3y2x/ekCbspp2kuZ8Fsucg5PkaB0T7e591hjc4Iydu1CYnVcjloJ1gur7GDJgEjsCdtvpUt7NFGT0SdKtJI5vGmJBGGiXv671nOXwaQxmjtIy8kUbqPBQkqOXfA6mueTu9nZBJVo1WnRM6lbeI8q/h22565pv1WzrxQ9naNFo2j3QZ5pYIizYyGUk/kK5pyrg7scK6NLp9ldk4NlAewJLbflUJJLbNafSLq10aa8CC6hXw0HMqrCACfmTn7AUOajwxrB7v9Rd2+m2MOES0VD6HpUvI+jRYIx5HZdOgAPMFXuSDk4+VR92RaxRfCIV7Y28UINrEWA3bA3PzpKTltlOCRVRaXO8rM8SqM5BJ863gqJeuBu60i4wDLMAx6KCM0puK0uRU+yruNPdGaFVwmOmc71nJ2huCaKiTTbqMloyWOcBS2/6etH3EtEPG1tEdoFcvMYXV+XDKR1OKdtEVe6IV3JHEpka3IAODjpTaaimDaXKKG/axu1LJy86nDDbfrinFSjzyZv0a0Z27giLFFjJPnXRGckzknD20kZnVdKSVizLg9Nu9dmLLXejzs+BPbMrLbSW05UJ54FdsMiezz5wcHpEqxuWt54pJWKsp2PerTvZn6uPLNZDJb3ttCI5czwKrA43K5wQfyq1wS76Hpma40iaFgGMMpxjqM9vyo2kC50ZtLWSGXx0TmhznI6j/AHqBjd4S0gmjkCt3Vs7igdFxpMsGptFE0RaZQqsQ3KOux+VA7fRt9X1EpoltNpcgtnsnJijjY/GDylgSB1Phg7474q7pUhUm7FQajDxVw9YpeT3NtPYSOqyogkQhhk5G2N8nv3wKVucfV8C9VGXsPabwtDxHC1nZatae9QqyxwEHnJJPMRgZ6+fY1l9utWa+98Iy2sWupaI3uk6NDNaPzJytn7EddxQk3fsDaVUezP4YvbjY8a6Lb8JarJcf63YxYd3GVlHY565x50Qml+lsJJytpHoGtiQxtQJ7DB7UCaoOgaBQFgoFYKBBY70D4DoEEaACwaOBtgHWgOhVAgUDvQKBCSTQUgqBgoAFBLC3zQGgcuT1oKMJ7Vtav7Lg/VpNC5Tf20ZKc2wOOoBI64z9aTVk1Z4M1DUdY1TWxqV2jm7R8iSRgDz779ADj/FVBVsTbIerzRwRPJqFwEk/Hyx4I5tjuflmt50lcjGLV1Ez02sTXcfhac5SGDLM5/CPX51k5WqRaXbM07KZXl3I3yx6sx71kzTQ5Y2C3Adbm4SCOQjD8ucEUIKrsRHZBbgwB8qDjIGc0dhZZYeC4S3jwCo+NgBgA9B+dD0hEu9jW8jgVW/loT+HIGxAzQ9oFsotTvPFlBHRMgeoNIsajUuwl35pN8fakyavokvEQUjbG3ptQ2kiq3wXAtWjiVeYZH9IHyArBz6R0qNcFnYQuzHxj/MAAJJ7bdqybpm0E3yjTaZYxzy+LNE4t4Vy2OpxuB6Vjbt2zpUL3wbnh/S/E8NRGUDHnIAwE/36Vx5Z2/welgx1HfZv9F0tFdQkHMSOpPXasW7Z1RVGtsdFj5VkdFBO4wpP96Em9F8bJ66YQpClT1/oIo+1fYlkS6IrabK55UwPL4SaX2muy3kXwE+iSqgeUueYkcoGP33qlBcMPe+Bg2LOBGUI5egPT70KFsTyMUulRPkh+UdMc2x9MfnWqSiZuVjF5pqhQ+MEDb4RgVnJ0aR/cpru0Lg5GDtvgbj+1YzTotvplXc6UylZQRjrjY4rNqlY6rgZOkGTkkEIQdvWqjbqyXHdlRqPDq3SsYiFk6HIxn51bbVGUsanozt9wQEjMrWnJMDkOjAAjPcVv926RzSwU9IqLjh65iUK0IU9icZNJzT1ZKxtaqjOarpJQPsWyd9ulXCaVUZzxa+TIanpQky4XDL12rux5a0zzcuLbZQy6dIJA7kLjzrshNNaPPnj+dE3Tp3t74Jzggrg4Hp0rVO6MXGuzRMs1vHLblcNctkAdcqDitNLZP4KO9tJeZpoBswJZNx+zUMLGLdbhhyG3YgjBDIc+nakUk3+CVotjc298tzz8san4hy5B8xvRVjXPJY3s9xaXJvYIzPbhviGPwk98Y6U2Kl0Q7ria+uGEDsEZmHOV2Jx5+f1pcDb+R23W6hdtTguMOjAqoJLb53pci7LXV+MJ9f0/wB01O1t5CuCsojCyKR35gN8+Rpe9XRVW9jPCWqR8Na5aas0dy6QPzEW85ikG3UMOhB3HyrKabprlGsKTaa0z6h8OXqanw/pupIzMLq0imBbqeZAd66E7SZk1TLHHpVE2DAFAWHQF0CgLBQIFA0CgQWKADoASDvQymEDQJCs0BQdAgsUDsImgaVBUDBQAKBNWCgXAzdy+BCZDttQGjh3tw4302w0CRH1gW4IYckeC7v0Hr1/LPlUt1yCVs8d6rxlp1vc5tohcgOWxMhAJwN+o3z3qrpEtWZWQ3Ov3GZhHHDzFmZdtqTbkNL5ZC1ifld7W0j8K2U4RFz8WO58zQ3WkA5p3Dd5fxgf8tME8zbL9zSSsdVyC60pbeYxlWmVfhDg4Un0oetCexcVp7uVdV5ST8O52/7dc+lIpKhvxY425YkzjAJ/6j50C2+A7rUks0Wxwc8nx4x8OelPgpvopxHErDnuEK79uvlSEh5bmRn8YFVY+Qxy58qT1yNE2yjeRkeVQRnA/f0rObVUjXGm2XcTAXA5CUB8hjHpmuduk2dUF8mh03R7i/uIYrZipVgXf7VzPJV2dcMXs9I2thpwllS0t1UwQMGY4PxN6+dYOTOuGNSaVaR0LR9MiiRVG+Buf39Kwbs70q5Nlo1si4kKqOYEZxjYU4psbaSNDEH/AJeOVlU4wOvWtKV6MnMnxRoqsrSgk9RzYIoboE7ZKtrCR8mOMkDcknrVQXbQSJA06RYSXjZQTlRyff8APFUkmR7tEWTTGWTlZVUOQxBjJH1xQsbXI1kVaG20lI0P8yNSDggKcj0puAKfyQtQ01XUCOZmyT18vlWcoI1hkrky2o6MRcGVD+EDODj8q5pw7Zt7Jkee25ocBObI69zU+rfQ7XQcUTrye8JjJwVI3+lDVMafwMXGnRSSM6oP/b6/9qlKrbCkyqvrJo15SQCM5wc432xQ2L1Rl9WtCVMgU59f360OVEuPwZLU7KCRS6sNx0Pc70Rck6RnNKRmrnToiruQD12NdUJV2cc8fZkdcskc+GvwY328678UzzM8Fwyia2WOQyo+OXGV7mu+DtHmZIJFvqN1FILVxLyMka7EHt32q03WzNpXwRReSRXZjdmaMnZge2Tvn6027FdFiH0+5jIkkdWxvn4vrRWh6Y2glgkeW0TxE/CMHP7HoaNAyI2pTJO3MZUTJBUn4ftQ3Yfkim3ttRuDEj8khYlXHRh328+tJ8AnbGffCrFI5f8AygEHIHlSSocnZa6L7k0sM9wcokg51P8AUNsgjr9e2aKBSOk8P8LaFxTcwWdjO76nMZi0EagcscY51fBwGBTIOCMFT8qlq2aHsr2EcT295oz8IrcCZ9FjTw3C4/ltn4cdipBHyxWi+CGdTBzVEtUHQCBQII0ADfNA9B0BYKAoFAgUD4Ejr1oGwhQJaDFANB/KgoI5x1oJ7CoKBQAKBMFAwnbkjd9tgSM+dBLo5P7TvaXJoWl3bQnwnEJZO5B3BppKXLJcmnpHhjjLU77Vmk1a/wBWkeWVyWjlLEk59frT9IqNtgptv1SMI92Q5KhSD16VDdIdtsTcXNykSxwsVV9zg4JFKx0HZMQS9zckKg5uXqWPlSEqJtrqFxMQJbiVIlJPKCSTt2p2BKN5M4MjxsIyRyIN8/vFIdAkg94f+bHMrsgGQpIUeRxQtlVJ7aI1zYNpwLoSwPxKW7f5p8CdLgorq4d25wNzsaQm2NI+XA5RnOxpN0CbLKK3zyHGc526dKzlLRtCLdUW1vGzzBIlOeg8vn+dYtrk6IxbezS6Lo6SqJbx+p2HQ9q5pzpUjsxYu2bKwtWQLb2SmMSnAPQ/Pz+tck5Xyd0INaRs9CtbdGgWDJUEjAHUDvWLn8HVCFaSN9pVhNIsjqsYVRgEjrSijV6Nha6SojDJMMRkEZHXoa3SpaMpv5NFYaWBGFmQ5AG2O/litFFJbMuC2j0cZBhCDG+/Tz7VX4QuCXHaOGxzNgLv8G2eg7VVfIWLEM0hdsYGNsjf97fpUprkbqhM9u8alXjAYnJYgDPpTcr0hJURv9NmdMtIMk427Va2J6K2509zzFVG/cnGPpSaKT/JQ3VsXd18HAI/EOgPyrKVPSRVtcEKXTSV5uTIxynAznv9OtZuHwaKbEDSgqjKEAAYGfw533+tc7hT0bKetEOe0LEkqwJJUKfnUtNM0tlLqVo2CqpgFR086HvQfsZjUbZfEwOVVOPiz0qVvb4E9bM1quhxSBnVD9Bgdf8ANVF9mUlezJajYqvNGMrzbgemKtSSMJq9GT1fTH5TgV14Z3o4fIx2tGSnTwpsSRBmzjp+tenjlapHj5YJPYnUrSWYJOFICJzHbGBnpWylejnlFraIyyAJksQQMk+dUQKgijlIczhGXpzd9u1AVZMhsb8PzJMrFSNskgg/96B0kSJbQ8oklgAcbEAdfnnv8qP2GlekQLmNbPmmVCM/COXGVzQTTv5HbGK1uPDvhGzOCRJjYE9icUDunoetdX8F1mSKGPwnJVeUEKfkc5+tJ2uCk7W2dC9lt5DZcQWmtLFcXD20quY4f+jPxjHkQSPLesk37GlWj0/wfxJp+m8TJqklubSLUJhbQSLH4bKoAClgBg5Jweta3TIo9CQZZAT5VoIcoJoFBQKCAUD4BQIFAAoAInFA+RNA2EO9DGKHWgTDzQKgYoCxOKCgUACgVgoEmUvF2u2vDuh3GpXk6wxx4BZjgZJxSboHtniX2ze06794uYLO8ikS9eQoy4b+XnBU/M74rJTp/pL9G1+rg4He313qkuJZnkPTJ328qpJvbFpaRI0LhDUdYuceA0cSjmZnGM+laxg5OjOU1HbE6vpcNtO4uyQ6t8KJ5eVJxrTBO1aK2G3kfLKvKOgJHSpopOh0u0almbA6H1NIV2WGm3CXKovhnYkqM7noKaH2aSTUP9Kg8RcNJIgIXlH7OKrhWPjkyF/ee9uSSpJ3xjA+3Y1AWqKklEMqSJu4yG8iKAp9hwRI5UqfiJwc9KibNIJPkvkt4YoQpYE9Qw7dK55y2dMVa0XGgWD3Vwka4Vcc5JGAelYzaWzoxQt8HQrTSra1jFzcuDFH+FSN2P8AeuGU3ej04QSWy/0nT5Z5FuChEjgfD2RMbD5nI+1c8pX+x1Y4ds2+iadbludWx4fSpTo3qje6ZaqLVZGXlOdz0H51qnStkvZo7dAPD58YfGRk9u312rWLMZKzT20JDKWk6EE7b538qu2zNqy0t4FALFjzY33/AC+dWuaZLVcCm8JFYBGY82M46/5ok7/TFC2AxyMgK5UE5wBmpqnsYsxXCgMWfkYAcwU4+Rx8qr2oKbHmtbkoZA/IDjAdf9vLNWpaslohS2ZMLEzZIAOH228v35U2wSdlTe6XOJAYmjQSjlJI6Dr3Hp1qJFpsgPZkZWQ4DseYAbA/pUp6tjpkX3KIScgTd/hJ8utY8ts1WkVd9bc1xz+HgL27E9K55Om2dMVdGfv4PDZlljyD0+WKzTvk0aoy9/p+ZOaRlIU7/Kna7IaT2Z3UmjJ5Pi6nIAPTpTelYm0jJ8QWLxBLtF5vDJ2PXGKcHen2YZU0rRnNVWNl5UUSRuuciuqDo5Jr22jB6hEyLJIgII237iu/BI8nNBtNkezuJJnSIyqir8Gxz6/rmu2LPPm6IWv2gt9RnWPBROVRyjYZUf5q20+DPb2ynLKD15u1AKuyXbXkMR+O25wMbFyM/bFAaLiy1zS4I+RNPDSOfiDyHcfpToFoj3F3DdFisHh7Y5CPtvSHbqmV+m3fu174Q+EMT8PYntSYlXZFjlVb12IJjPNt880NWC0afg3ie80G4W/sgGmX4SpJAIOx6UJU7Bt1R3Dgrio6xqdvLxPNFCtrJFJ4EMHxTKpDBSy4A335tyQMVDTctmqaij2Hwfxzo+u2lulrdxszjCIGyTgZ/Ida1TXBBrQQ4yKongFBQKCWgUFBH50EoFAg6AEnNA1QVA2EKBIXjbegOws9hQH7g3FAaCoKBQSwjQJbDG/lQWef/wCMHXLix4QsNKs5CTd3JEyo3xAcp5TjyzWc03pBFpcnjP8A0i9vpSZpPFbnaR+cbAnct5dulVGNEt2X1ho9tplvBdJBHJL4mFjCgcw89q6ElFezMXK3SEalqbaZYktKYw0hV/D656kfmBWcpt7KUUv0mOhhuNQuH1G+HhxNzBObqc1Dlbtl1SoE4tIbNzCCA0xVeuSB/wB6TfwFWUd1P4bgsAw7eRqVfZbSXBP0fVbaG4Sea0V1V1IKqTjr2p3Qk2Wur3Wlaqwe2uOSRPiBUnz79xTbvQnszlzBMshZkB75U5z9qQUQ3mlUmGRcjyYdKVlcE+1t1ml50h5ebfkBzWM5dm+ON8mgtdOZ3+MZbyHzrlnJJHbjxNvZ0HQtEtrNFku/hwASoO+MdzXDkyt6PUxYoo09hp8mpTC4aIrGnwxoe/r+Vcspbo6oY720bKzsUhjRIIuVm2P9zWduTpHQlSNNoNkPBE0uCG/EB5Va1oSXZsLW3RoGMTFUBOBucHzNapK7Ypb5Ly0MbJEGkx4XKABvkHfO/wAhWjetmNdGg0+UI/OoXAJwGwNvID7VSfZLVInxSxxNzdQScKBkZ86q6J9bQ7JIT8WBtgDIx+f770NtAkuAzInN1UbZOdsj0otBRJhuC6hUkwCd8nsPKmpWFNDtxKXwHOeX4SPL61SYitEarG8bF8vnqf8ANK2iqI1wWLSEIAoAxvuDQpc2JqkqK0ussfLMrrjfzxUN+y/BStPZFu7QXRGcEkHYDH4fyqZL2VIpNJ0Vd8jIys0hRW365GfLH1rGeO+zaMik1ARwxyyT45gMKeXoaycTZUzE6pNykhBzsNyT0PT+x/Kk5euktg9bRnLxFmchJMYJOQeue9JtN0+jNL5RWywK7ESkMF6bUm+0P+hm9X0dUnElo2I2zlT/AE/7V0QlapnFlhT1wYfiKxTwn5Itznl26+Zrvwy9UebnhfCMBpZZ9USzzyln5euADXpQdxs8adp0i01tUQSRsSRI+VIOxC9D+/KtEZu3yUFvas/Iv9bZY/IfvNMWh+COycBZ5eXm6MRsKBFw/BzSWaXljfRPzf0lt+2+emN+pNA/RPbZUXMN1YyPbXKSI67Mp8/0oCn0QoQJ7gq7kAHbuaAHJYPCUTpKDGx5Rkb58qAeibowks0W4I+NpeSPJxvjr9CRQI3eh6hdWDKbXlM1rMYpGT4hyZByfQ461LbvRaVrZ2r2ccXI2owwi4EYf+dz4I8MEqCD54OTSg65HPb0eqOEuMdJ1aBYbO88bk+HnJHx/KtFJMTVcmrDBtwc1QrDwaAsFAmCgQKABQAR6UDQmjY2CgSFLQDARQFgPTagEJoKBQSwjQCCcEIxDY2zmgo8y/xF3emqbW0AS61K5lwqc34UHU+flSStkuzkFzYafpmgLc3EsLXUzFPBDjKjzPkN62SUVbM223VlLeJBFALuBnnurlRHAqDIUAYJHpjvUvfLBfp4Rn7jQbi6tEkcsWyBFCEJIYnOSe5xv6beVQ1qyk98FBxRDPYLBZsPDcDAXGAu+2fU9alqikm9lRfTWyx21lFLtDHu5GeZmySf7fSoW2U0v6kafR7p4fFWSKRRuMHqO/amnYeq+SpeNoJPDDZPmp2pk1rQLotDNnPOvVZP+oetAcsjq0zuPiOPnSekN/CLO1SdmUEsV+9ZSaas3hGRsdG06CJFluQxz0G+PSuLLNrSO/Bj+TVcP6R4sjXphCAkhOYZKr8vM1x5Z0qPRw4rfs0bWw0gL/NmiZ2bdFJyc/8AUR6YrjlJy/Y7o40jWWVrgqj7KnxEgbmouzZRotrdVLsUHMwIPL6d8UJ0XVmj0hOWQKIyF2bY9TtkelWleyL6NLaoSrhiyqd8Y2I/f3q4qnbYmky5gjRGfl35wPw5wfnWsW3bZk1RYWtwzIxlY4PntvTb3RJZrKZcGFWUMfh3NU23wJJDzFplBnP4hscd8706Ckg1JPKmBsMDB8htv8qaQqoHvLW9ykKREkgHI3BOCBv27fapboOUTUk8RcIencjtjr9/0q0/kVDXMWOMKcn8PU07vgEVpMzEs2RvjHXuNxU8sZGljkcElSyIRk4xy5pSYWRJI5NlUCRWycAdPpSdqikrKTXYpLmJDBJysjBzvuOx/X86yyy1S5Nsa2UFzPK0LJyApgjOOu37Nc7TXZtGN8mM1mGSAFzIeQegPYf5qV+nb2y3FdGflxcxs6hVk6bd6PaujK7dEWRc+e53Od6Ft0guikvZY3mw+eVeuO48q3gqMJr2Mlr0SFZebcn8Pl8q6YTtnn50q0cv1WybTtUW5VByh8mvVxO0eJmg4y2KvLyOdsNhgEPIfme/n1rpt1ZyvmiFOxhbuvMuAQOx2o5E1QxE8Rfw3kKDPXlyBTJLCGRrKC4SCQjLIylMjbfbz6kUD0S4+H9SvrK41NeZzBkszdT06/f8qag3sXtWrMzMskdz4at8SnOR50htUWFpnUGjs2Qlw5Yv5ef0xv8ASgESNQu18SOCOL4Y35Ylxv5daA4J9jqDadHPbW5JVZRGsgY4I+LY+lS1oqLZZRavqti5aLnBjk+IqT3wTt64pON7C3dUdA4B9rGq8I3FrM8vv8UcqiS3mG4Vj+JW6d+nnWclKO0zWDT0z3RwDxvpnFulw3VlIcsoJVuoreDbSsykqejYdRVk0JIxQNAoJqgUACgfYKBCcelBTCoEgxQDFUCCI7igdiaCgUCYKBUQdXvo7GyknkOAqkn5UFHhrjfiS91HXNT4pmnVvEvWtLWMA5WOPrntucZ88GqjH9LkZOX6kjn9xqc1zOuneH499cn+bjfwox2z2obtV2OqeidcXlxYqsyCP+VGAqhuYJsOvr0Pp86TTSQJ3ZUDX7q3tfe5r05jHOArE5bG23TPeldFNIyGr3st3Ikk7O8gJfLD8j9ql7CkKh4euNZuoZYoLoxyRqcxoe2x7ehpqDq0NtJ0y4PDmm6b4sV/czxqq7RTMRk/IDbBoapbE2nwZ3Vbi0UGO2SN4xjD9H28/OpHxyVDSJInhlmC9QMA/nQFjyxW0ar4FwzMeqsmCD+hrOWjWCizT6Lpr3EaiSTZTktjtXJlmkjsxQTfJqtMsmu7pLcBeUnlJGenkP33rjnJtWzvwwpnQNPto4lQI3xA5LEkBR6etcMts9OCpGksyVP8vJdvhx5D/tWbXwbLkuIlAfA7LjI8/wB5+1S2oo00Wmn4I5Ui5mA/Fy5xjr+tOO1bEnRfWLN4q+KdmUrkeWDk47fOmpW3Q2aGxGABGobIOGbqTmtIJtWQ1TLy1HK0a+K2c4zv07n5VtF3wZvRMSOHn3ZCGyN9+vXr6VSW7QmrROTmZG5WwFA/CBvgZor5JSJR5JCQQ75QMc9MHqKd6CqH2IlR+aMvtspwMdNqrkmhXOfFaXlVgwABJxynfAx9KHsaVEiFme3aWNEDyIS6825A/TrUphSGLqBkw6kIzYPTBztnb6mrVrYOhi5EyrPEBnmGQTtjHWrrmhJp0REMafCS2CNwRkjbv5771m6RVUR2WSWQBdsLjIGN+n9qhtt7KSKO9gCRvyZ5nJGw6fL8/tWMk2bxVUZbUbWRH8PZsDm28sb1i1vRqmY3XIFiAcEuvMcgjr51LdKi2kkURhjSF2RcEnA2ORjJ/vTSaVvlmKWyLJBgsiAnmAJ36A9qEJ7dIrbyyixuASw39Kab6Jkk9GU16yIilAP4/wC1b4p1r5OHLDTZzjiC0kNu0nKNhuRuTXq+O09WeL5MTMQW8soDrykKOYA967k29HnuNboO9LStEPiPMPxee9UiXyRVgfPwDI/SmQW1i7yxmOY+HJGMDI6r6efp86B0atdThtOCtRtLFyLmaWKNVY5dfi3J7HofvVqWmJq2jCX8cEV1KYZOblZgv0qCtIsOGIF8XmmcKHIB7fDn+9AkJ16eJNeup7blEcD+FCB0JG2f7/am66EuBllSzggwcP8Ajffqew+1IbVF8gnurCTUFKrysgfPUlht+hpXSYNcD2iQXF9IbGKNpJo5AY0G7EZ3A8vOonz+6NIb0+j157EtUi0YW8897NIjARiKSXmePIBGRgZ6/SrWiXs9M2kvjQq4OeYA5rQTHCKA44EnagOQUBYKBUCgGF03xQIQKB6FDrQNhnaglbBmgdCaCgUAETgE0Es4/wDxC8dy8McFzCwnVL68nis7cHGW52+Plz3Cg774qW+gq0eT9YurSLSQWufeJY5WRFY4Vcr8R275OM9+tdEUlFtmT/mSRltOENlptzIHkuNQvnwGwAAvMNgfXLflWadWW1bVEa+viDPaSuzeFF4fkA5xnPntmpvodfBk7m9R5IPElLKzs7DzBwB/epbsdpE/kSzsLa+1BEIuctGpOCcE5yP801SVhbRaRcZayLd7TR5Hgt41ChYwOZgfIjr/AL0lJpUmDSluRnLmP3iZnlvGBJ+IsM4P0pA6XZU3Vq6tgMHz0x3HmKA2RhGBsO570AlslWieJOoG+/3qJuos0i1a2brRoFMQBONxkdMeleflbdHpYNcms0C1lEwlGVVdskfhz5eZ/vXHkdnoYlWzYWRbCIox5A9ztj7YrnaS0dsXZobNhFysq5wd9u9Ym6ZZWUg8YiRWJbpis2mXyXmno45AgcrnB8vOm17aY+HsvdMikckcvMSdjjOAKtLVIT0aKxR1Ku8TBevNjGT+81dPoTaaL61ijyHwxI+EDG2fl++lbx0qoxa2TPCVR4gjLH0rSvhAm6HoUcSKsajJO5xj55qarkGyfHB8HK8pIUHrtnp/tQ0JNMlNGgVuck7bgZPX+/WmnYURvd+cOfDBwwXHcjr0pvYifFFvFHDy82eblbbYbgH/AB6UKuCX8hzwtK6s0ZwuBgYJO1VyEXY1eRzzxMSvOSWBLDodsnPyx96bkmUlvZXGDMjx9ecZz6nNZNpmjRGvY1DALgq2F3OP1+/3rOcqVlxRUXcJlGJSWXmye32xWO3tmiXwUd7ZJDhIV5mwUxnt6Vmk1o0pPZltU0zxmLMgzsAMbH1H2qVza2MzFzYOTJEU5SoyFHehp3tksrLuJLJ4ic4eMxsScfFnIP5YoStfklr1ZS6ige5aNXOMZq4u1REkmzO3wR4nIz8JOBWsXT0jmm7tHO9et28F1QYAJJ27eVelgkeP5Sd0ZdIXiuUVgE5x9MHbP516UdJM8ua5QUdmEu0s5ZAsTOAS2xBHWtE7MWqexmazmtS3hqeYOVxjqPL1pksAuFaAW8jNEynK8wyo/LIoEOiSbwmgM8fMQMMCfi7/AH+dBXCKqWAhipHMe5xQKiRaz3ERKRROiD4uYof1oBDFw0ktyZiyk5zjO+eufnQFoEyTzsJZAS0uSNuv7xQFfJrbJzJbNzfBHOsaoCuAWTHT6UPfIJtbL3hd/wDRtZe+nm8J4y6kr8XM4yQPrtSl8lRberPRPAOkPrWm298bu3lExVJIozjwCemT54J2pJXyN10eq9Lja3sLe3Zw/hxhQwXlyANtq0RL2SzTBiSKBJhUDSoFAwUEsTigL0JFBQoYoJdgPSgaVBjpmgXYmgoFBLG7lxFbySEgBVJyaAZ4Q9s13rGue0LVP9Qu7i5s9JfxrYeJzRIj4HMg6AkkDG9KC9t0KT9dI5vdw84E118aofFeMNghc7D9BVivRI4e9ztdSgu9ZlZrcMSeQDGeXIHy/wA0Km7lwJqlrkzOvzsLSW7jYyGeZ+UnqR5/bNS+2i48FBpdpBqHJ45f4TyfD2xjb86hJt6BOt0buw4FS+eFnnhwEyomD/Dt1AGSR8gatqkDt8jWt6NdRuY9K1SxmEZ+Hwiik4xtynD/AP01LXwwSb2ZO+jd2Z7nTfd7kfiaLZW9cbYNSFdsrWmeUeGzYAPU0we+BFwjfCniI+BnIAzv50DZJ06Mo4blB8xWU38muKPfLN1oVjz+GhOGByx6/vvXn5Z0epiV6T2bTSI8QgohDyHA2xgVxTdHoY9mssbVOZQR0BwK5ptq2dkFSplrBb/GUVTvnJx3+dZpN7ZorReWMDyTJ8GABvg+Qx1oS3bK55NDpdtI4wkmxbHTI600r0htpI0OnaGHuVuckSAH4RkCtf8ATuVWzN5IrRp9O0ySMhpIcHmPxKP8/at/tNJGXvGy5tYZsApk4/6hVJNaE2myasRMbM6JjP5edWm2LgWbf4+cKMbEDGMDHf70mu2UnY+0DBRgfEcA9tz2/KhhFUSY4iyGJy3xAHI8wP03qI70Ntrkj2STYniYkhmIyB1zucU3t0OSWqJ6QhQsiDBBHMegG249dyB9qaaJaa0TJM+EECn+ZjlGN/n+VO7WjPvZEucC1cFQ2QSQo7ZOfy/WlRafBVqq83NynmZeYDHQbgfoahqma2RriwMrsfDxyZ3OxH7zUyjeqKU/Uq7q3JHhhFAIxnP7703C0NTSZUXULJiRoycHFCwWrKU9lfLZBi38vAOCT267GiHjNOmDyWygbQTJzzMnXIGdtqxeKpMfvsy2uaSrkwug5TkZz9Aaxl+k0a9kY+TTpYrl2nI5WBGf7iqTSWjnjabUil1SwFmHwxZSc7b4yKvG23+DCcabaOf65AocrIgxnNd+B9o83yPyZSSJHuGtXwskJKqc9Qa9NN6PJmqeyHdzRvHF4iKGGAWB3wO1bpUc0tlnNbW95bR3KHPioOYDqpH+4zTSJbt6G0s7RSq38qxKfhBcBmA+Wd6v1VXZLk46BK/CNtGRPBdSzjPhyEiJD64GTUukCbZAk1GRYkWxg0+AKxPi7M5+eSTSGLum129tuWW406dG6crQh/8A7qB0Z66sL60Y+9W0iHPUigVbGYry4gbMcrL8jQF0aS31gz6O1lNJzzrKsqDl32yDuNuhOc+lJvoaab42aHg7hvXOJ2g9ztne3muUhd1UlBIegb6ZoXY6aPdvsz0KPSrlIJ9Ea1UInKzRAAtjrtv0x1qkhnWogFUAdKoBdBLYXzoEEaCkCgTBQILNA+hAGKA7FCgGHgdetAWDpQPTE0DBQQUPG2p2uj8O3mpXs/hQW8TSO3fAHQeZpMfB4L4n42e5F7qxkJm1FmKq6gtHGWwqkYwWAx+vztaVkVejHs08kU15dsV5gJgA2+OwPn2pN3saVFCurTTRx20ZI5pTM5B7ZH6YqLKpMd1S3mubC2ht0Jk588vQ8p6Y/feqfAcsv+FNLh0K3kuJLaJJpF+FpSARt2zmhadhrgpOKJZluHN2JG7kzISe24PalJ26Jt2UP+o3ir/I1N2UdIpzzgfLP+KkYQ1a4KmPwYd+nhvy/lmgqiNO10MPInKG3BNAVXYcILDmJJyal8UUl+S0023XxFI3GxO3eueb0dMFu6N5odixiAG7ON9ugPavPyzt/g9TFClRudI09o2RwQwGFXbqe52rlnT4OzGqZp7S18ZxH0A2JHf95rBrVnWt8mhtIFY4cKI1HUmpNaLW1tg7IsYGScHfoT2oWxNGr03SzGVxknOcA7k5710YUm6RnklStGz0vS8uVkRebALEjIwP9/3tXowxfJxznXLLaKAfEpkZcYOVPUn1rX0TVIXs3wS4YrcLnmbA2IJ/OsHiSRcfYdc/A3LEEVt9vKspr14NYq+RpCAFcsxB2x33qb1saVEqE8xLEEoADjz3/wC32qe7Y7smWgDkA4yu2B+/nQtsTGrj+SXaMkhuoHr0P3qmltmuNKWmSLaSJIeY5YthiT2NYbfegmldIEd6JHKnJ5cjY9Mb/wBqpTt0iHGkMXM3iQldlywGAM7dT+pp212JRZEPhlVbfs2D1I5en50OlsvkDrJLyoDuT8Xrk9P1/Orik9GcqSsi3OnkjlLKCxG4G/Uf3/tW79UqIU6IN3aWkMngzuMD4jzMBgetO1XILKkUct7o+ZITcReIG3VGzn5edZJt2ynlpp9EC5ubAJJy3AXk3Kn16n0qK5bLU03ZlNWn06aVkVkJOW2Ofzrkyw93o6ITRk9e0Xmt9mxgl1Pl2x+lZJqGnsc0ntPZj9egMYWNVw2/MD271pFPkxm7VM5vrkTMCSnTINdeJ09Hm+QrMVqCct17wufgwCQOtepDg8bLpvRTySIygFvwncHbaulXRyNJPRPs7s+7PHA3KFwcZOMd/n1qiVJhvq9nCGeezjkYHBAPKQfz/SnYWkytmFpqPM0MxMp/ok2LegPn9qQN3yVbwOjmMxsCD0xvQSrY0zTR45WK/egYa6hfr8CXDgdCAdj8xQHAXhu7/GNzv5UAWWnM8E4l58JkZI7YoHb+T0P/AA5cZ6Xw3JJYX/IY7hxMkjx5WMqASxOPh64z86h1ds0i2lrs9hcB8XaTxg15JpMUr29m6xpcMMpNt1Q+X+RWidkm0yMbVQBhqCaDoEEcUFIKgYROKETyxNUNhCpJDFBXIqgYk7mgS0CgYKCUcg/ii1mTSfZjcCLHNczxQjPclulS3SsOzwlOlxdXKCV2lCfF68zb1adpCqgtamfT9NARGBdCilhg4O32pPSHyVGn2wXTZL0KTJ7uY0x0Lc25+1Sl2CLS5u5rC7guIhEJhbx/izseXJx9ad6BNFJrOuX1xMH1BGIOwI/saViER8W3ckQt7xveogAMPuQKQ02iLOdPumBtnMTnscEfTOKARAlRUYgSKGHT4TQIeeQmIRuSVG6+houyvyTLOF3iXlAPU1jJ2bQVo1mmaSEjiCx5kc7jtg9K5cjvVndigkbvTdPVQkQfc7u2fOuKdXs9DHBNGpsHithgMcgYVR3Ga55tdI64JI0Okc8kgjAEZYbsRXPNtPk6YtUXsUNpawNPc3A5QeUfvudqzTlN6Wim6Hote02ycI0iqR/TkZ+tbKE26olzSXJrtG4rsbZfep/BIA+EGTcfQbmu7Fikv3OTLmiuWSJva9o8U7rzGR8AMEBx37DfpXXDFNqzjnlx8E+D2u8O+HG03OuRnmfIGOmMY371vUoqiVlXTNFDxnpFzbC6VpBHy82FXPwjv61lObfR1QkuGx2y470OZ+a3leXkxheQgkd8Z/tXLOXt0dESYdcs5rjkiYqFIPKc5weh/KueTs2ivkcjv8MCrcyOo5STkk+VSp2wcKLmyn5pA2PIbVpdmbD1a9RrPCyJnnzt3xnH79KWV/ops1wJ+xDgvAloMBlUr3+ua5velUTSUblsgxaryyEo3Jzb/P8Af9qhT9dtlvHYVzqaKBI8nKAdwvcf5qllRPpTorb3iaztoPfZ25ijEHfAAAz/AHH2q4Sc3cjLIvXSM/qPtVsbOITSTSCR8cqKmOnc56DfH0rrWjjlNox1/wC1DUryU4kiLSEsSRzLEvYZPfvsM1cVbbMZZa1wZrVfaJLawuzTNNcS5CqQMrsRnHbOenWtVGqoyeSikPFl9qSMFjeJMYZyAHI22APz61XqmrM1kk+WR04iuI/gWa4IRSM5XA+lT6XtItZKK274s1CKQR2rSEA7HOT54/ZrGWL20bLPXAIuOb24BgYHkO2JW3+9cz8en7dG0fLTVMi3eu+/u1tdDw5eX4TnIYf7VM010N501Rl9WtnQSqzZO5HY+taYmkY5EnsweqwnBYsMDIYV6mKfs0kePmTTZQTqAysnfv8AKupNnK0nyMytLCwkiO59KtOzJquA5WW+jKugSXIyxG2P1pi5I/uEseRgYG/MDt96LoQUhkCBWk5wp79aXY0qQ8lu9/blBDISnRidhTBtDNhZmG58Z8FYTzHPQ47UCG7m6MrthQF5iQMdM0XYfgdgcC1JxkFhtn50ux1o2fs90K+1i9WCK7SFGxy+NEzR8xOwJAyoPn2oq6Q00rbVnrv+HPjBtI944DvIpIJbHnlwykg7gOOmxVtj26HzoTpuL5Kp0pdM9C2Go29+G8Bj8JwQRg/OtBE7IONqCW7DoEDAoHYk0D6CxmgXYXWqGxIqRdB0DQN6BgoAFBAKBo88fxh8RQ2nClnobIG98uFOOTJ+E5GD26UnXYLWzySJ7ZGkkhBUIi5J/EDjzppibb5KHiSdtQQ/z5GihRApI7dMUm6ClfBZcO2iXltBp0qMDcNyYA9N/wCx+hoSG9bKjjkRRaq/u12FjiAiQA7nlGO3yokqdIE7WzJS3l1nlaTxEPYnNSJv4GwOYcygqT2oD1b5FonNswbHfFAVRY2mmGVld5w6LuObY/Wk3RSQu4hQn+Xvgnp09KV1sddIt9FsyQhcrjvg+vT51hNpWzrxRekzeaPbS3Fz4pi3wAgx0HY/qa4ZypHo4ot6NfBbx26RnoW67dSK5JTt0juUfTglwyWsUo8SUR8oyxY7D1rN2+S00tsjXPFd1dMbTRreXAJHPzAcw/eKuGJcyIlnk3UUWEemcV6jbj3idoogM4XJxkb9fQ1olBcIhyyS22Wum8Opa28V14kk90xJI5dsfPHmTW0GnwjKUWuyr1XXJrSVlNhMhQ7ZQhv31rohNR20YThJrTM7/wAQzCWQRJIWl2dm8h57VvHJejllCXRbWSzOVmtJi2cFo1YgfY/2IrX9PKJVotNL4q1bRS0ttdyeHnLBc4U9RlT09e1ZTmlwjWLb0aWw4wF/LHfRPytMrKVUbBl3DE+ZGx9Rnua5MjTTpcnbh9tWzcW/FS3M8czOYyITFJn1cZOfLrXDkVs9HHJVVml07iCL3eKRX53dmZV3OBkY/t+dYWkdNWbGx1aO4hV+gTZvntnf71pCd7ZnKDQ3d3UdxJzxxiNc/DzEjr+u1Z5p+z0aYk0qYFuUNmUDbscZPXBx2rK0ls07sotTndJ+ZFPLgNytWLu+TdU0VtzdNPzRRswZVzhjgDpv9qtNIznaM9rcskrzWhk5C7oPmDjP12H2rSE/VmGSPsjGaizTSyo5dj0Csew7fLOfvXVHKlycE8Ll0UVxBcP4kcSIksmwcbcq57DsOnrWqyqtGbwS7KhNBvbjUU9xuAeQYDtscnqR/mm/IS/USvGlLRp7D2TzXOLifWGkmB+ENEG5fL9+tNeQnwH+jkibe+y3XrCESWckMhIxyhME+Xb+9dEcyaMZeM0Zy/4E4qjj5LiJYl3IHgn9QKbmn2R9prlGT1ThDVLeN5JJGGPwFUYAnvvikpxV2DxvlcmavNZvIoRaXkLM4GQ4JypHel6LIS8k4OnwKi1mHUrIpJKTcR9yD8Xl9a554nGVJaN4+Qpxrsyut/zEeZRjzzXbgtLZw51tszgYuu5wp2J8jXYlaPPm0uWNSFJYHbIyn7/tWi1ozeyDFfTwQsyNgg7EjP60VsnoRLqt3cN/PlzjYDAAH0G1MLAJWADc/wCLyoBuybLOiCOKOVioXmY56k/4oELaYT2xWMHmTfbbPzoGisMRJXlBBPpQG0Wmm6e1xbvCGUNnIJPemlYmaHg3WZtPuonW6kt/BkCsUfAYdxikVxydh4Z4zf8A4tg1+W8EUCGRBGoKs/MoGMeRxn61M4ty9ky4OKj6tHrPgPWxq9pa31qZkcqBNHcfDlSMgqB+zVp0S/k6IhGBiqIDoHyCgQk0FhE0IlBdaofCErUgxQoF0AmgEFQUEaCaFAZNAUeO/wCNS4vBxTocQJFutq7KO3Pz4OR8iKzlyikkk2eftRuYra2eaBgfHUg9CwxgfatOjO3ZUWUUl0jq6hg4Gx8wc0FIsNOu7iyvbdjs0eZAPJeXc/bNSmD3ox/El34mpzFMNB4hMTeY86HJOxNtVSKrxVZeQRgetIdS7QpQAuQenSgQN87Eg0D4JkXOsQYyH4vXtSDrkXEHJCKDuaGl2Wm1wbTh63QCFDD8IORnq5zXDmd7PQwRvR0PS4FtIWnkI8Rh18vl9q8+bt0j1MUPVWLlluGHNGxA/pHmKhJLbNZO+BNrp7Xd1Gt45dCdyp6D086a2m1wZJOUqbN9oGh2kXKlu5JH9I7/ADPeuec30d2PFF8m7sYGBWHwT8AA5AobA+tNT7LeNJGls44DCEMAYIMM6xAdvMVvHJRhLGnwQNb0PT9RRXNnE+2ASMEfUVp9yjL7SZz3WOA7YT+ItiHPMfiXqdvTr9qp565JXj3+TNXfCV9AJEtpiq+TLt9cVX39ckf6a9UUoS/sZCLqAhR8LNkYAOx+Y3xUvO3wxrB6vaE2WrNYTsisTE+M8p/CR0OPSspZJds1UIvg2OicRIJfEl6spU4G3X/vWDyNWdMMdtG40LWT4kMkUinHKqY7Dbf/AOmuOUvd0mdsIJG8sNbMpMaz7Ad84Pr61Sk09CaRdIFnhcuSJRsqc25x1z9K0UW99mXsk6GyEWMsrkjOGGCQf2axnzo2iyi1W7EMwxj5Lk9s/bY/aopp7Nkv0mfk1BmvVkeRUjj/ABMpJAyP0otblLglq9FHq2rxLG9yxBlfJDA9RjAp+9rglwrZjbvWpebAHxHYMeuK0i30ZNIjvdRPIFedpX7qB+tNe09ImXouTSaN7jZgO4DOOuWAC1TTiNTg+DaaTr8APhKigHOSMH75pxUntEvJFcmlg1O1aNRPd4AzsVAwPUjBFbR9l0YuUG+UVOrX2kgMY7ggbc3NId/z2qouV7RM3Dpo51xBDpdwjj3oqwzyhnz962Ta6OaVPs5LxPotoYy6NiQEnmUj9M1vC1ujkyevFmCmeWynJJbl6E9CfnWy2tnLTT0yNey+NbkE5DKxOaeJUyMttK0Zu0dSZombAYbA12rVHntLZHdSkJA6scHfqK0M0vwFLFFAIkmLKrLkkKCdzvS2PkhTxwRzFI7gSx9mVSPyIpkvQ+0cOD4bA7DbvmgAcpccvIcjagEh0+LbhY1cq5XfHceVAPQ6oYKED5kP15fSgCWjyJp0drbjlJZjI3c9MD8jQOkxlF55YbdmK4JDHuSf2KBNfJutE1yWzvreeAgi1KMAVGzkYP6/lRVjTraR7A9len6nYcNQa5LZ6lLPqALRvGfERVzgDlOzAnfJ/Kkley3rR1jTNe1yeL3e90U21wi8wmcDkkHmFQ5X5HpVK0J7NHA7NEkjOrcyg5Xp9KolpDhNAJBUFBEd6ESmhNHYNhLQIMUFcg+dAwUACgVCxspJPSgVnkz+NaAXEWg3cKlzEZRPyDJjRipUny6Hc1D2Ukt2eYrsxPClvb/GvKeYY+ID1+lUyFvghvImm21vhvgdDv3JBxkGleiqK3UNQlDOwdXaPYNjr5mkmHRnJpmbJHTyoEnW0MhkYjmOfyoBu+SWIokQOkoOf6T1FAV8DZxkgGgH8FjHbSTRpyryoQFUnpnvQNFlZ6b4Y8V5Axx1XooFRJvouKTe2bzhDTZLtvHMeI1AC5HbzrzfInto9jxcdo2Etvy2+Cm5JK56Be5P2rib+DvSpESJ4rqMYjwiZ5t+g2wKahKUqRE8kVHklQappFkheV0EknXmcLgeWfKtJ4p0oxREM8I/zMsI+OOGLPwxHqEbt1ZYlZ2J7DYGs14mSe2jX/W448M3Wjcc3uq2ks/DfCut3YgXDSR2j4+eSNqteK+2v7ozfm3pJ/2ZD1b2rcU8PQR3OsadNaQStyqks8SOMHlP8svzbfLtTeCP/wDSv4TNVPLJWouvl6/3opNW9vJtJUFjBLqYkHOxto3wreRDKATt1Ga1XjXwxKdJuToprr+IG9Vv53Dl+qnsYgM1S8JS22Zy8tRVIKz9sd9rnMllw5dS/wDlWSJcfdhTl4mOPMqM15c5OoK2M3fEmqysDNwdrPmOSJXH/wBLGs/9FCW4zX9zR+XmX82Mz9/q0Mcxe4s7qwbpyz27pn7jFKXhS6diXmtfzRa/uPadq08skUdlIZWc4VY2Dnf0Fc2TxpRX/UdGPzYM3+jXeqafOYbyGWF0A5o3Uhh8wdxXLPxpw20d+Lycc9JnTuF74XAAM75bAAAyf8CsknHTN21JWjpGitIAxEMQLbZby/zXXj+DjyvZJ1KRY0YxyLzfjUgHOf0x+dZTjTcjfE7pHPNZ1Rrid3V+bOQW5u/f18/vXHKactPZ18KmY3V9aSxgdHkUnmyCO/l/aqUL0ZznSswes8YLIzJEGKjY+X0FdCwTfCOSflRjdstfZ/wfr/tM1VNL0e5soJnR2RZ5P5khUE8qxoGkdjjACqc7V24PCeR+sn/3+h53k/UPRey4/wC/J13gr+EL2r6+t17wi6VcwlBA95yxxvzH4i6uyzLy+YjbJ+9dmLwUrimvxuzizeerTab/AGX/AFHM/bv7L/an7F9ci4fbUdL1u+lQSkafFdSCNT05i0SDf0JIwc4rWfjQxyUZO7+FX+5v40/vY3lTaXw6v/By5R7f7pPETS9RhiOwFrFHGSPP+YCRWkMeJLSX9TLJ7Pl2Ljk4lt8/8WT+0K1YEc7JMxj+8YH6UprIv5FFhij48tTv+5L0+D2famwF1xzxCshP4ZtRkRsfJhXJPP5EG7xqvlKzsXi+HNfplT/L2XsXs54SvFL23FevnIwD/qDf4rL/AF+6cV/YmX06C4b/ALmc172c2dk4ki1XWJIydnaRZu3kQK2j5aktpIwl4Prw7MVqum2drI0dzr3gFds3NoyZPzTmrqh65Fa/3OHLGWJ1df0IY4f1+7jY6MLbVkA+IWUyyuB/8v4h9qHDGnt1+5HtlknST/YyN6ktpcvBcQPBKjENHICGU+WCK6Yqu7OSbV7VMFuZZFVAMqpyTjpVp2Z1Y7fqZHhVWB5VHN3xuTTbVC09EQ2IfLRMNz+E9aApMJbc8oJUgjoRQIeW3eUKUU5OcmgBkuHuAhbGOrHegCdAirGF5CGY5Zts7fpQA5MzLysq5UgjPr/agbaoiyDlmFxluo+9AnReafKw1EYRmilYMyqeXPc0LYccnuv+GT2kaRq3DkvC9zK0Vxaf8uKZlLMh8mGMkEHbHfvQtFJ2dXvb6NXlWC6sQtugKq2VYnGwBHTbz/KnYys4Z4tSTVpuGtQhNvcf82AeIJEYf1BWG2O4+eO1CdAbEHIzVE2kHQF2EaAQXfGKAYkGgOg6AQKCg80CoAz5UAyr4n1yz4b0O81nUpRHb2sTSuSewGaBnz74u9sMnEOv3eoX8cl1a3SMiRsQQnNFyY37DIP0rKLuVlS0qOfS3KwR+JGCygYLdsg1V2Z9kK5ne6t7eLH/AChyEgZG7Hf86nsu6RS31zJLO75zknHy3qiWrK1wWOwOKBfsF4KKTzyY+lAq+R6OBSnwSq4+eCPof7UDr4HY4lUFmGR0oBJIm2bz3RS1iLtueVR0Umk9FJ3ov7bTmhVY5541CrkqzgDPr5/Kpa1o0gkpW2dJ4f1zhfQtPeW/1aBiiAlImDt2xsK8nJiy5ZUke1izYcULckUOse0m/wBXuYtO4YsBGG+BHdeaRyfToB881vDxFiXtNnNk82WaXriX/LLzQuAl1B+Ti7jQwzzJ4jWVioZwB/1nZV6+tZ5PJUP/AI4/1f8Awb4vDc//AJZV+EXEeg8E6RN4en8PpdsNvHv5GlPz5RhfyrGXkz+a/Y6Y+JhXCv8Acs5eKNN0OHxBFa2oAICQQrHn0wBntXNLJkyaTbOlQxYv1OkV4vuK+KkcyatLo+nSblUYiSVfMjt9a0x44Qdz2/8ABnLLPJ/8dJfPYxDZcCcPAzPYtqFwuSZbp+ck99jt+Vdal7aSpHNJPmTbf7jGoe2OHTIWg0rTLZAGwhVCAR8tq6MeK3/ycmXP66GIvbu80jRXuksIycjlUbD5Z8v1rT7Tb0Yf6qNfqIt1x9wXxJdR213pEKzTAKrmMKeYkAAMMH86UvfGm2hxyY5tLsk21lqFjKbrhzWGMef+ROxkTr033H3NYzninqSp/KOuOPNBXjf9DTaXxKNTY6bqEJhvMYZObZh0yp7iuWWJwkmtr5OqGf2Ti9P4KzUdNtoZZEltLSfmI5fEhCsNuzKAfua0ba7df3Fd3aTf7G34Z9p+rx8Ptot1M1zYaSxNzp+oot4I4iQPEtWkGY2xn8JHTPaqhOcLhSae6Mp4sc0siuElq09ELiX27cGaLxBbngzTL6XS/Aj8YXbqJRLvzcvLkcvTG57/ACrPN4sPJqWJOL7T+S8Pm5PDVZ2pp8NfH5NtwX/EfwTqV3b2ZtL6CWSRUDShRGpO2Tv0+dYx8LLie/72ay+p4Z7V/wBjWe1f2i8I8CXkGm6xxDYXLXcKzx/6deRXiAE4wxiY8jbdGwehqPJ8HJFJRad/HRv431LE4uUlVfK5OWal7XOBTCPBv3ZmyVRFDHz3IJxXNi+nZbuSNMn1fD8nO9Y40l4ldtM0ewkaeRwIWaQAKv8AUWGD6b5GK7MfjRwJyyPbOGflZfLko41r/u2S9M0Dh+1dTr2oy6ncx4JhhYwwr6FvxN9xTc21UVX7/wDBawxi/wBbt/jj+5tdG9pOs8Px3OhezmGDSvfFEc8trEqMq+Rk647bk5pbSa9nvT6/sUpR9k3FNrhc/wByw4W9pvEns+vV1wcXalPfJthbhvCA7jlJwR0zShghGvRtV3Zpn8meZP7iVfCSKv2l/wAU/HnFN0dS1Oza5H/KjmILcmDsFO4Hyr0cWO7k3f7njZs8YVCKr9jCJ/ERxbHG0jafE0YYBxzoDjrjl6/v1rZYJPao535aWmnYzcfxFalPKj3VgRGwOcAY3Jx0Plj61nkxTapGuLy1B20HFxfwrxNEsGoWdu3Oeb4oxsT+Y69q89yy4nR6alizRvWxttOudKQXvCmpyyRIMm0kbmH/AKT1HyocMfk8qn8k++Txtxdr4LWw40s9UsvdpCYrmMYeNjk577VzzxSxSqXB04s0csbi9/BluMbeO9tJo5I1IIyGAwc/Ourx5+jTObyoKabOWxSy6fdi5t53ilibIZCVYHzyK9Fr30eSpeuzXcW3TcYcH6fxTqIX/UbK4Nhc3OPinTl5o2bHUgcwz3wKcE4WlwZ5X9xK+fn8FVFo3CtvoNtqdlxrFNqsr8kum+5TKY17N4hHIflkULPPalBqu9U/8/8A0U/Hx0nHIm31u/8AYzolCXM5O6l8DPbeulbOR6eifNYqq5jlCsGHK3qelAqvkUbSN1BkcI4AyR3+lAaEu6WwWME8xByfLPn96BEG7c20nhxuvK24GOgoGnQuPUJuVUDDIBGRud6BXQvl5hzxupJ6lMgA+o7H1oCrCm5o4xzANzdwaCtJGs9m7276sFvJEii8Nw8kqcyDbowx026/L51SQurOk+yDX7UcXyLJ4SwzBoXIRQArDfAIwO/lUtjVs7H/APEC84Wv1toZ0uyGDS5j53Ve5ZSCJFx3GSPLzBmh12/0HWNJXjjh+UwXFsUKBUIR3Ddl8jnfbz3zQmGjuOg6imp6PZ30bKfGhRiFcOASNxkdapOxNJFhnNMVaAelAIIGgGIFAhVA0CgoMmgXARYIpZiAqjJJ6AUCdHKvbRZXXHPCV/w9p12tvDLHlpmz8X08qlux8Hz21WwGlxLA13HNKZJVYL1XlblGfnjP1qUqG9rbGVvEWxAPXO5z1zRwgW2GGV7YsmQqxk9O/b9TUIqWjNtHIT4b9exrQz5EGV4HKSKFDHf4etAiKeTJOeagOR6CJUPiSYAPSgdD4cyyhOiJQFtmm4ajIeWdEOIlJGPPzpNq6ZcU+Uyku7qea5mYtyksQR5VSfrdENJvY9oaySxXMIAbCFyfQY/wayyS9XG+3X+GdGGH3PZLpN/2NDwLOtnr0l0VDGC1ldR5NjAP51l5CuCX5Rr4Uqy3+GbHQtRlW+lumkALREkevavNnH2STPVhP1bosZdRl5eaHHOT1rGUTdZKK6SWNtR951KQOIDsjDIDA1UEoqlyROXtuQxd8U3d5ce62kobkPhsAT610xxKrZzSztOkaHhH2fy8Sust5IZXkYELkhQozksevYUPKouloFjlkXs2Xftd4J0Lg7QtJW201A81x8blcc2B0Poa64NvG2nwcuSEYSTa5OW6NeaRo/Fj8Uapwxpuq6bZXKtLo11cNGk6NkYHKwcgEAnlPl2zXR4uRa9ndcnF5eOSbcVzwVNzDbXU4u7K1SMNL8MfrkYH51OXI22ktDwY1pvk6/r3s51jhPTF4i0eZpLWULJJbsSxjBHY9cV5E/TNNx4Z9BBThiUoK0uSl0rVNH4mmS0nZra9X/kyZwwfoMGk/ueO6ltEv7Xkr2jpku7utUt7g6frMBSeA48UjaTfAI/fnWzqrXBnBtv1fRL0+RrW6EwjyXUI2RnmG4/uazm25KnwbpKMXauzncmi2cvEN5ptzeGGKCV1yBkkBiMV1vK8cU0rbPNj46zzcHKku/6nXuFuA/ZNbrDNqF7qczMASRKF+fQVxT82UtNKj1cf0vEknFtv8mm1j2W+xnWYh/px1NZAOpvAT8hkVMvMcNxr+xtD6djyP/3E/wC5ybjT2Z6ToUE91oeozO0AJMFzgkjzVhitMXmrJJRmqvtHN5X02OBOeJt10/8Akh+yyxnuLHUtRz8QIiGNztufp0rTy/WEkrJ+nS9oTbW+P6Ese/3Goi0hBAc4Ynt+9v1rlu1ZrJtaRrLCyvoLA6doNmZbh5OaSQHoAD1Pr/ioeSMW03s3weNky/qXBtOBPZVbajqkV3rKm9KsGMDtiNQOv59jTxZU3tGfl43FesdFl/EroFpwvwbYW+l6Ta20C3K+KsMY5eYKcH716yftjdaPEcPSa7POGlcTXHDVpftpRs3udWtpdOu4Z9Pin5YHG7xu4Pht5MoDDGQRtW/jZ1BO1vo4/JxTk/0uk+TKGzWaTkRgXZgOXOdyaieRuVovHjpUzofGXs/06z0m2vbG/gt79oUaSFSOVmwM/I1yLI3L1krR6L8VPH7RbTS/uYrRte17SZvCcPLCmQQ2/wCfXt51b8eLftF0znjOSVSbaJmr3hn5NfsHEco/5yqTucdcefahw9l6y5Li1BqUGWkd5/q2nJLPeDmKEOoUZBArkSUZV8Hc/wBcbs5tqZeG/kiYZBJr0YO6Z5M002ujWaLB797OtbgBA5Lm2kUnoN3X+9aSaT2So+y0YgBbG4bwpFlkj7joDWi/WuDBp45NN7RHikbxCXP4jlqsyLuC/ilh8GQMwAGe23T/AB9qAWibcTW9vZrO5WRGJCkeflT6D+hXPm4ie4Q7AZIx3pBRXzuZyAV3AwKCWJQKjHOx8jQNokPzBlkU5UdCRgj09aAbCuHcxqSSCM4x2oBsvOD9WfR50kuOYwShkkGM5RhhsD5f2pptDq+TQ8NDS9N1AO13JPASQhj+ByM7E9h8t6l6RUa4o3sN3per28jafrMz3UR50dpCsyqP6sHO4xjZiemPWVK9MpquCLe+0PVdG4ck4b091a3vDnxGUfCwIPwn/wBKj5bds0OXwKvk9Rfwr8UXWvcLX2m3OsWt/wC4tE6mFSCnOpyrZAOQRvkDrtkHNVCV6HNVwdvA3rQhhmgXYmgGEOuKA6DoBAoHYKATsKRA6lGAIPUHvQLk417ZL++4X4ZvFtgDPciQmUxbDOSPXbapaoo8H3EtmYtUvdXHiahI6rDHjAVycsxHoM/WhOrsltszE8zluTcbjAqa7HdKjWXulrp3D8k7L8ZVFPzI3/M04xqNik7dGVtzIsZ8cAqu4zQHQLqKK5tvFilXnjOyN1IPrQCK6KPxDym35X7ELn8qAvoki0uZNyhB/p5vh+u9JOwoFhau0hD83KNsoM7/AO9HY6SXJrmdtF0pogpR8ZY43yf31pPmi0nWjIr4jNhI2fm8hnNF/kSi/iyy0zS9YgkN0dMmaPkZW5kYDBHpWc5xaStco6cOLLCXv6uqfT+C04RiZ9YuIyhDPZygfYH9BU5mnC18h4sGsqtVaZpNMSaKeTGMFQpA69f9q4JtOkj0Uqbs1WkWdjcSGO5IXYA5c7fasZOlwbxTbHpuEbad2SCYsGOeVcknPf5VmpqO6NHib7GZvZrDJkBJoznY8pJY9z9PWuqOdPTOefjNcFponD2taBMH0TWZgwP4DleZs75Byp3ptwlyggskXone0O84k4p0iLR9aMJ93kVxMifFzAY7HGMHyrWGVQVWTlxPI7owOnez2K4vBJqF83Jnp0LfkaazJO0ZvxJNbNG/sm02eWGaz1UiRpC2InKhCDt1B26VlPy0r/J0YfAT/mX+TZix4lMItbjip7lFACxBAcehbG/TvkVxfdi3cUep6eq9a0Z+w9mWkX+re+6hePDykOVhlC5fII7dOvSuh+VKSakr6OOPiY4TuLa3ejVX+lf63eIrhJFjwFbG4xXNGbS9VwdE8UbtFPrkVnZXaWcTKZGkRBk+ozXRgg5y9nwjn8maxw9VyzCx6fp+oT3moRTg3d9qpREwciIB2Y+XV4x9DW+eWml0kcfiRcm5SWm//vR1nhfg+3YKGtxICMbmvNW9HuxTXGjfzcFWNpYeP/p8IY9cAt596edJR0h4nJyezkHtJ0lbSPMcZQSZUgHassCSkmiPMtxaZh+Bpp9K0aO6tAvM2oTW8qkbH4UK5/8ArxXr+TiWXXfR874eZ4ZOuL2dIjtNF1eyW9s0WG4fZsHdTuCK8uClTUuVqj2ZOLalHh7RPt+E9Rgtpvd9XEcbHaS2lCHDDqV2z+fStPSDdvZ1Q8n0SjdBaLY8Q2V2RbcZXcJDgFnkBHzJOwHmTWkFB9Ucmefs7WyTxdp/EXE2mNZa9xQb21IDGFSmc4JBJA2Ow28jn0rqWVxVLg5HjhN20kzFaV7PLCyunk8AtmN4yXi5wVZSp6qQDg9cbdRQsrj0ZvxoyaHj7LrCKc3FpaqERhy+IhyR6HHWsZeR0dWLxPXaofbgBrgcs0LD1xjasv8AU09HW8MpKpMiT8F2Wn80bRAA5GAgBJ77Connk/5XRkvGjG01aGoOANDtkkluLJW8TII6g57GiPkzTuTszfgYXwqKG54WsYJeVF8BU2AXv5bVSyuT2DwKMaXCOW8baVLp2reJ4TckmSGxsa9TBJTilZ4nkpxm6RqNCtvC9nuoTjbxrqCLHyDN/aib03f/AGysatpNcnObiF4bh2xnmJzXTBppHFlTUmRXXlcknY75rRbMaBFM8R8RCMjse4oFwWkTe/xrBEpB68gGd6PwPof8JdNtmDt/OkLDk/6V9fn5Uk7G1QxppSO6FxJGpVNzkbVSJIN9NzXckgAHMc7dKQPY4k7LCqkjlbfFAEm5ZJDEwdTJIBzKMYHb9KB2+R+fx7a0jZZCrc5U42xn1+9AUSrW/tjb5juJYZolJT4dmP8Ag/Wk1emCdMs9JvILq4gZud2fKlVPUnbHY1LVFp2b/XOHODtV4RPEOgXE8FxbyRn3WSYyeMjHDMAQNwdzjbH2Ewbp+3XBc60olvwNxTrnsP4htNTspIza3HhPN4cgkjvIcgSAEHBIzkDqNqlSaXsinG9Ue7+HOI9K4p0qHWNImZ4J1BHOhRl9Cp3BroTtWYNNOi0qiRJB64oG30IFAaFUAgUDYKAQYwTQM4p/EXOILrSi5R4limleJgMEqp5epAO7A48snsKiQkeB9ZKyXEuoxxhUuXeRASGwCx/361Cdspqo2iBpGntqN9zzbQxMDIxB89hV1ZFs2ntBukXSdP062PLzxCWXJ7kgg/atJaikStybZkprWFLMusnM7Ku3qetRVobZEu7b3W2hmUjDg7Y60UBEFjORFd2jFo3fkI7o3rUt0UtukOXImmkWBnbkDbkmkimkX/D2mx3M6YYFQS38vcrgHz64x9zVonga4mv0aAx26kRB+UZOSdtznv8A7VL5suLdfgsOGtFmktIriG2DuvxnPc9q8zNlttM9bx8LpNHRLOTXltBby6fEFK7Mp6Y/OuBqKdpnrRnJL9SMNcR3OkccwG8wgnUqPh5Rh1K9PmTXp4PWWFxXR5fmtw8iM+mjS6fEwbBjGckZxXNNtG8I3tm30KwmK7RAO3YAHP7Fc8p07Z0QhfBsLOBbWKP3vlhVjy7tg/XFczm5PRuqiqYi51nTYGOQrgbAKeg9SKafwVdKmRjxBw0fg5xESOUDYb+Z8h6Vr9xrkza7orL3WeG425kkfOcg8oxjvj/NNZG+hqG7G7fiHh0fGyxDHcL8R/xU/ck3SRdQ5sduOLtFSPw7GFsE55QMZ+Z/f0p1KXIfcjFaIQ1i7vT4UOYYyNwg3Pln/erUIrcjGWVvSH7NbhB4cCnmZvjPLljVNprS0EE3t8l/pUT2UE93cZ5IkZyucE4FEVG0ip+yvo5LLq9/JPd6jcNGsViJTCQoy0rgKCT1O4HU4AU4713Qmox9Y9nj5k3JybH/AGfaT71qKzuh68+fn2rjzypXZ6PhYrdPg9FcKaa4kiiiGWJwM7AmuTE7kexJL1o6VqcMI02K2uORJAMZIyAenWtc7TjQYYVs4l7UtCTUYJbeMYdPiUjsR2rlhP1kPyIKcWkcK4ejMY17Q2cLIvJfQDP4mQkED1xIT/6a91yvHGa6PlPtvHmlirng3OiQ8ulOIUZbgsHYAn8JAB+vNn715ueUVkc12ev42KSxqEuiz068nifwJHcoduXJJH0rF5aqjZ4tbJd7p9w8Jm0+7khkAORkkH51X3dWwWG+UZRuJuJNJujDNIjPzfi5G3+uKtZ+7McmL16L6w9p2trapaTWxkijGyKw3+nU9T1oc5OknoUHHba2aKz9riRWZtV4OwSvL4ot2dyfPJyf7bU3OSVUhVFNSt/3Kq69oOpXAPu2iXCkbgNCR/audQfydP3osgWl5qOp3HjahBNak9OeM4P9qyk/V1yaKdonzxnlKhGcf9Skf96a0NNvgoL+1WR2CIemckdKtNsmSvoyvFmjx3mkvCEDuGDZYV1ePl9ZbOPysScNckHUbMaXwlp+iRAc9wzXkoxvj8CfkGrscrjb7f8AsedCH63+F/ucy1qxMEnMW6/9668UrOHPCmUDq5YKScdq6UcchxoFjRSWBLdKZImOaSJSY3Ydzy7H70uxoVEZ7llQAkt0A3JphYqaXw5AsUhIbY47UAxpgrJh8iQH6EUCHQhZURNyo3x670ATNMSGG/jku4/EjiPMy5poKZJuZ1a0iJUYmdhjPcYwfzpBdFaYpYZeWVc4JVhnoaAL7QY2g96uIXja4gj5grjI5e5wdicbfc00rBtj9vxOXia35VghPSGHIUsQy53JI/Ef0qWtNFpp0bKOe0jhsrjUtQ8a2iuEn8Eygsg6OAN8cwIOenwAVm1cWi0/SSfZ6m4F9uHDnDmlQLdzTSNd3Qhji5cFU2zIR5YI+uauL9FXwJpzdrs9EK2evWtU01Zm1TFUBwhoUB0KoBAoKBQSwDrQB5v/AIpLK61LUbWKy0+6vZ0ynhRMQOTkQn5bt1+h2qWUeJ7+1uNOuZLC8geMwPycj7MB6+tRW7G2+ETNPaV5YQOZYUYBSR8PMf1NUQ0+yy9ooLajCQiqkVpGuBsOuKuTuiUkrpFIbeSXTo5go5SxA+lTbop0uyu1iZ5baCDJPh5A796L0D40WOiK1jDzz7IwyAR1Pp59DSqxrSspbgvJeyoDgZIH1pUCdmt0GVdN0t5YGWNpT7v4hGcKBk49SaY0ldFfxCtvHp9rFFyNGpBRlzk5UZDeoNRLijVaSaOl8Bafi1jHOvMFzjb6fv1rwfIl7SaPo/FjUUdK020hCxvNIQxbDYGxrjujvUUzFfxB6CI7bSeLLEZa3lEUpAzgdUJ+oI+or0vp037OL7PO+qYrxKae0/8AA3ounyag8E1qP5UqrOr/APlIzU5pejafJWJfchGUe0dH0C1W33VDv1YjBPyrkm/bSOqC9FbLqbSHvIlluMRRcxw7Ll2xjoDt9fWlCLjtlNOT/SQpdElgH/gzyb5BfHxfP7ValWkDxlbdWOquf+TaN2yEGfvUptjcbKq40C/lPjSGKI9vDAqp5a0iFjaIT6BHcMEnulkVd8YAOfTanGXrtkyjerH49BsIHHhWkR/8vIGb0P6VTlau+SPS9FtYaFJKpJhEYJ2ON/pUt8GsMST4LqHSpIVWK3gVWcjJU5J+dS52qRoopcCuIbFLDhu5Qz/zpUIBYfhyMZog6dpk5a9Wmji97povr614ftOYrEwluAM7bYAJ+ROR5sfKu1uSg65f+x5MI/czJJaR1HhbQk0+ONxEqg7L2O3evOyT2o2e9ixqK0dd4RtTEFuJG5kIzjYkHNEJqJs42azUrX3iyEinmz/Tylf3tRmnSNscfZUYHifQIrmF+TPMDzEDyPWuVOmVKFqjmZ9lbxWmpcR2WlvNPocy6hcFGy81iRidAp7hFdgR5Y719B9PS8nE8bdP/c+T+pyn4edZUrV3+xprLQoGiU2QEkAAltpVG00LjKMPMEEGvP8AKTjKke14yjPGpRfJWa7whfRzG5t7NyQfiKnGfpWCVmjVPQ3ax3saZe0YY6koRSkmwSoVcxQ3CN49rysRjPLjNUoXVkt8lJJoOnXAZHt8M2QcN1qvdt+qM5QtXRXx8LWUE/PbS3CkH8IkyKJW+zP7SfRJuOF7WQhnMm/VhHvVUktMFBdomWmle5LypdTqB0IDDH0NZrTdGihSslraylgDfmQdQSu9S5K9mvq+bGJbE3JxGo5wcHJFF0Jqykv9Kdx4Mi4yfi9AOpq4W3oxzUl+oxOsyf6pdyX0ZxCwEcI/6Y12Uf3+prtnOqinxo8+EKTk+/8AqOe8aW7wtG0aZHNv8q6/Gdp7ODy4JNMxd34kMrKG2B2r0I8HlZORMcjK45lDADfJ9Kom1ZJt7i3R+aWGQodiqkbj6ilseiRc6pYwcq6R48QGQzSY5iDtjamSQoYg5AJIIOc0APRW/vBY7DlGc0AWtjarHLG8gUBd3J7D/NAEOeeNGbl+LnJJ7bZouxtUJmPJHzufhB+BTQJL5I0btLKC5OSe1Arsu/eYrXSWtZwwklfnkYdWAB5RnrjfOO9NMdU7Ki0D+LzMMqM79gPOpbGk29Fta3V5dN4cUXihRsObcDoKGk1Q17XtG1he8tNDtuINIvQrzXMdpNb7SB88zx4yMjAAB+fkahw9oNdo1UqakuPg9qew/wBu8/tL1aXhnUNFW3u7W1NwLmFh4UyhgDhQBy9R0yOo2xilgU4KpOys7jL+VUdpYV0HP0MrQDDoBAoKBQS0AUFGa4j0C1vddttSurNZozCYiCMgMMn8xgf+kVLQrfR83eMg2r8eazFIvIRezgrj8OHO306fSobdtjS4RWNcj/ULfSombw/FGTjr61SE98FlxnErXkb3Uh5JYxGmOpx/bNO7QlrlFY/hx29vbglVaPOc9CCTj7UaKIFzaw+MjZU+78zsrHAI2xj65pC5Y7NM1zEshbHJuANwM0qHalyV03hCV5VXADfUnBo5DhaLhi/+labbAhechydu5PX7VTdIIK2U+r3Er3DWrqFCMFIGwONgftWb/lbKTuSR2LhCYRW8TLjdVB/9teHmV2fS+NKkje2F8G8MoTgHYdQTXH6nfGdljxJZJxPw5eaHIF/nwsqZ3w43B+4zV45uE1JPgWWCy43B9pmG9lGpQmyn4duW5NS06RoWjbqUB/scj6Dzru82Pq1kXDPP+nTXq8Le0zrGlvFav8UCM3LnDDZfl615zn6Oz1VBSWy4Sd5l5mgClty2KluTV/JqtKkTV0+35FfLSlsjBGBVLRDSfIu40MSLGG8JebGd8fTahyp0UoJlTfcIiVmwz4OPhjGM/es4zXs2ynjbQ3Z+z67lYyR27RxquS0uN+2wrR5XIyWGmW44AgtokKzrIzbsAowPrVTy0qQQxbsnx6DHGiwLChGc5aMAflWHu5PRq4JImf6PBZ26m4SHwk+LYAAZ9e1WrZDSRyD2jcYWl/dDh3hZPfb+Q8vLFhli/wDM3YAds/p16MMGv1S4X+Ti8qXtWOHL/wAEvhHgJdF073u9lE91cfFK53yfnWXk+S1pcs6fF8SOKKRqLLTWnlVETPKBt6d6wi6/U+TrUL0dF0KB4gjxqEj2yCPSkpNyOhRvRoY/EnXwyVwuw+Lb7H5U5NvktL0KLVrJZY5OZAFZcYzvWMbduqKadlDp2r3Ollp7Pw/FiVopY3XKSL0IYdwa6MGefjy9ovg4/L8LH5MfXIc24LuNQ4I4nXg3WnJ067dv9GkYkoiMzMLbJ6YLYX5+u3dKUfJj7Ll8/hnAoPwGo1cHw/j9ztEuj+Oq3MAQqAOZSMEfMGuVprT6OtKLXsuxiy0a1bmWWBRJzbAqBuf+1ZptMbSaBc8LaddxlZLZEcKR8KgHNU8jQKCKWHgG1kWVfdQ2e77fXFZQm02ypYov9isPs9sUugCnhNncrvy/vak5znJK9C+1FcCzwkgYrJ8ag4Axg49aqWS3oFirYT8MNBzHLSBhjkdc7eh/zWbm2q7KUEuCqveFbNTJIIRG/T4FIx9qI6E4lLLbW8H8ko3OThDjfNWm21FGM0opyZmNa1i2OnapY21lLczyKtu94h+C3yTlTt1YAj5Zr0PHi4KTa44/c8vyn9zJGEXzz+xhngWNFjKjGOgqZO3otKtGF4vQqnMFB5CDj612+K70ed5sa2Ye+VJZDI6jHTbqK9SGlR4k1vSK2VOVitWQ1QooVVST22oFdDKwPK2FBJzigC0t7NpZSinopP0AoSHpDtt4UTNHKDyE4Y4/P74oEWjywQqbi7APOoCgAHPrnGO1A72U89qs+biEgJnoRQDXY3e/8q2I5iCp6/MigTY0sUqv4LDlYee2KAujQ2Nra6rMml31z4LRLhJAvNv5EbZHrQNCNV0efSrIwyRued+dyI/hGMgYbuD1oCiriuGt4Ip4ZCrtzYPcfs0ITf4NX7OpNV1TiLSdDivxbJJcoBKUDeGezYP73pPmyopvSPVv8KOn3UHE2rX89oIrRC1pbTyIEZ5EOJFUDrkgMe2SaSX6nRbbpWeqnORsK1M2MDrQHQdAJaBQNgoJBQWFLAtzEYmJGehHUHqCPqBQJuj5ve2vRrjhb2u8WQcnhFrt5F2xzLJhw31z96xk6dFRXsrMZodmLm9a8mlAWFObJIHQbb1pFXSZEmlwMa/dT3tp48rFyWDZ8vSkNOxlrv3zT4ZdlliOGx/UM/rU8MFsjTTxSxhjIEcE8w7HNNOxtNIZmcrEAh2zsR5Udi4I0oYxcxG+QTTFtlrqV2iWenyxseRYuVgNyp52wfyqU7bRdJJMK+tPf7ODULUox2S433BGwb6jFKVJMuDdqjpHCpEdrABhs4+mwrxcyc26PfwzSSRurBhGofOAgyMH1rkaavZ3xaqyysLqVZDLyg78xLfpUU7tmkX3ZnuMvZ5qV5erxtwRcC21iP4ri3LcqzgDqO3MehB2Pp37cHlQcftZ+On8HF5PgTc/v+O6l/uN6D7Zn0e5S0430W50+6j/AK2jIVseXcj7j1pZPp7mvbC01/kvH9SeL9PlQcX89HY+HuMuC+KbZLqw1e35z+JBIMqf7VySw5IupJ6OuHl4Zq4yTNpY6Za3K86XcJVunx5P67UlCS2zT7kHwyzs+HbZSeWQKNzzM2c/Y1CxS22W8sF2TE0uG35j7zFEAR5Z7dc/WmsMvgHnguyPf6hoOmq7ajr1sCBzFXlXp12A3NUsD7JfkJ/yoymqe172baUri51m0AjG4iHMT6jHWtl4zm+CPuyT0jNXvt7i1EeDwPwXrGqN/TItvyRZ8y74H60/9N6bk0i1KUtJGS4jt/arxhEW4q1ODh3T262tq3NKy+RboOlJPFD+Xb/wP7GWb3pf3ZJ4V4c0rhu2UaXY/C/xSSvu8h8ye9Y5cspvkrHhjjtJf8mokvfE8OE/Dk/rXI7crkdektGq0G1VVD+IFZhjJ61fs3sDWaXbwkorPhgfh5twfStMUNWU3WydZxsTIscQUMoB74PaiWNy6BzTdsPULINbkheoyCCO/XNEoekS3NJHPL9FsLtjg5JOT5jyrncG6bM22+Sg4iXSeJNP/wBP1OHn5s8rH+ht8EEdK1WV46aEoqScZK0yom9o3tH4XFvFqdoNas4MRLfW6/8Ai3T+nxR0kI/6sZPcmuqDhmSSdP4f/JzvFLFfpu+jT6T7d+FL3lj1G6S3nGMrcqYXHoc7D71M8El+SkpPVGzsvaRwbqCR+76tZiRvhIWdWB9djWbhL4M1kjHllieIdPdB4N3GQRvynrWbhJdFrLBrTFRXlhuEZDzDIJYb0KDWkhPJF7siXd9ZAF5Jol9eYA1LxTbuilmhxZSXvGnDelRGS71OyiGdy0wGNvnRHFJrgHljf6TCaz7Y+G7mV4NIa41KYdEtIGkX7gYH1NbLxpcvS/Ov9yfuSlqKsxl9rnFGr30d7HD/AKLFC3Mi5D3BI6HA2XffOT8quLx4Ha2/8EzwTzKpKl/kgXwWQlRC0ayuZJBk/HIdyzE9ScnJO+9S/JnOTbe3yZrxceJVFcf3/uZzUf5cxxH8PaqUmznlCtmN4whVbdnK7nOMV2+K22qPP82K9Gc0vmxIRjr3r24cHzmRURkTxDgkb9DVkchTEjkXI2A6CgVh2+VIZPxE/lQO0jQWsEVtYSXMgAMvwrk9sb4+fSgErZT+KWulZQME59MUA3ZYSmKaJY5GXlVskHtQF6BNqFoI44I4MhVww2OTnegNMjpCpXndHeBTsO/WgK7JMvg3J55mjgWID8K7t5Y/3NAc8hXmoo0gksIViTGC39R+dAPfAltQea292YFlUk5J3yf3+dAq+A57W2t7COGVHNycFSOgXcnP5UBVFvpVpbXNrE9jcvbz28UkskgbdipyMb7bfmKBo9jfwkXUGtaNcWJ5rhLF/EaWWDDeK+M/Hvk7E9fKiJVo9ONjlwBgCrJZGWgOg6ASYKB8AoBKgUCsUuNwe9AcnjL+Nrh+W24q07W47U8lxYlGnC/jKsNjjyz37ZrOa4ZUXyjznpKxvZCCSdg07bKO/XqTVJ0S0mNarMqpmBAquwAVRgAAYz9c0mxpfBUR3Qj5oGwwcbeQNJiXwRL8iJ2QgggbrjoaSKbdUDTCWfldyqdWINNiV2S9Tfw4E5SvxMenYdqKY7+SIk7T2uM/HEf/AHKf8EfnRVOx3ar4JNnG65aJiuQOZQcZFZzdqi4JRdnUOEEElomDvgbflXl5ltnt+M7ije2wPIRg7D6Vwvk9BcaLzR4TMvxDI648zUydbZrBNluLWXk8NXbmY/09u1Yt3o6IaYj/AIPuNSHg6gIZ4X//AEpVDqR5H/tSc54ncW0/wdinjmvVq1+UNt7AuF7mQZsY4Gc7G3kaPHTpy7flW8PPzrUna/KOV+B4k3frX7aHrf8Ah1u7dcaVxprtsc5CreDA+wFdEfNb5giV9O8VNtNon23sK4qWPEvtJ18d8e8ncfn60R8pz/8ABEy8LBF/zNonp7DLiaIRX3Gev3DdPivNvTblp/eyN0oqjWOHxYLabZY6f/Dlwys6XGovdXgX+mS5ff8A9uKby5Lq0v2Rr74Iqox2ae09lns60W4DW3DFnC6HbMfM31Zsk9T+VZ5Mk3Hbf+w45ktJJF3rdxoWk6VC1ggDgt4qcoGBtjH5/auWU0orexxUpTbfBxzW9SuNe14wyHFsvYH8Xp8qzVvgJzr9MTQ6bptzfRrHa2zsE23rRYWxwWtjF9pVzb3UazJykHp0pPF8mqxtq0a3QoTPH4LErynBIGSM0QgpBJSgb6x4amns4mjcluT4sqQTn+9d8cUWkc7z06aLDTdFlysUzhFUsvNjcnfz7YH51folyO0ivv2t7d5LcPvHsxOwONvrXB5M9tUapOSTo5xxsqzo5t1AIAYcprmS96RajXJjtIS5vJBG6K6g4JA3Bq3i9iU+kWN5orQRsGUSxyIVKt6+VEYOG0tFxxtu0VSXdrJMlvqtpHMYAMJMiuHA6dc9qaySXD0i55auL5Lu24a9mnEMTxvwdpcUpYgHwgpxk43XHzrX/Uzh2zBes1ckgh7C+Dbq4EljaNar/UY7mZSv2bFaryZydNr+qRnPFga3D+xMt/YVoixmRdUvyc9BezbenX95p/dlLpf2BR8aOvV/3I8/8PuhXLs91qd1ICTs91K2d/nVOc1G7X9kUp4E/wBMP8jlp7B+CrHlZNPt2bJOWQv/APurKU5tfzFQzRX8sETzwLoenRhYoMKuRyoOXHfO1YSSfLs0WaTVJJFLqOl6dbI/h26FlAySM/vpWbZMlN8sxuqWEciPyLjfA26VK/JjJGA1uDk5sHdema0jK3SOXItGO4sVW02SUgjbYivR8R1NI8vzY3jdHJbrmlcg77/evfXGj5ab20IEZygwRnO9MVtkZiXc57UA2yZplqbiaNWyEJ60CST5LrUA8llHyDk5G6Z2pIttUUkczRycvLny8xTIJF3BzyZRxv28qA0RuURyqTIDg4xj86ALmC6gjzHOmVHw8yvuv075oY1XZGv45hEtyELRk8gcdM/9NA2rIlu0PP8AzQeQ+W2KCUnyOWJTxMTg4G+wzQPk1kk2g6hpyJNb+73kQKm4XJDDqObPf5U+gSXZW8O6hBpeqL73apOjBoijDIIYFcj1+LI+QrOadJp8GkHVqtM95/wpaLaaHwgLV7+xnvLom6eGFeWW3yApSQEnfKnGNqrHJPgJpp7O8N0rQzZFXrQHQqgECgoFBNhE0AkDm86B1R5s/jBm0yEaA+u2bT2BgvA4DlMtygKAw8mKn6VE7UbQ4U5UzxZzqkaNEpVOZgAGyVGdgD/ekJq2FqUc11a25jjd/D+BiBnv3oTsclRVyQPFKNlIU4G/X6UcqmLh2iPdF3LF9m6b0IHsfsgY7fnI2Jxn8z/amKtD17Kk9oFz8cfUY9etAfgro5fCfzB2NJqxppOy70tDGJpG/EVAXIz9qzaNcbtttHR+B4i1okhcHqrZ9DXl+TJ+zSR7nibhZv7EuQN8c53B+u35VwtPs74o0mkoyXAjYbd981lJXRvBGs0u3AlMsq82Oxz1qW6OiMbL6ygiwznADdNulc8nbOiMaLm2hDgEcuV6DanxRoleiy0yeN4vERlYKxUHPQiiGS3obxpP1kWsUzHA5DnG4zgY+YrqhNLRlLGr0w45s/Cx5CuK19k1oXokRbzXDHJ4Y5SV88j61E8vrouOCLVlZd8RmaR/eCG58nJycnPXeuWef3bSY/teqMfxVfm4Ro4ZubvkDb86lpukht0mY/QLyKS5l8VgSrFFyeu+9bxqGmzCEXJ2dR4c1m2tFCzp8O+47Vs/IjE6vttrRG1hre+ufFeUAHdcVyz8hPg7YNRjVCtM1KOxlLKQxPfypxz+kbSM5wjk3Zu9E4suFg8NZgnNjcN12ql5Uk+Tln48G7onX3GMCKY1lLFSeUjz9a0fkuqsIePe2jEa3xUZDM/w8zE43wADtXDmzSm3R2LEoqkZOXVo7uUBmzvuMA0oScaMZJM0PC+naPFILl2yWOSBjH5Vu89IxWNp2jZX1loL2RaNlzjYHqNqU86UTaHsnRxDjQW1vq8PhEANJ4Zx5H9il40lNtMw85VFSXKM5cavd6PcLcQsTv8AEM7Vvkg60YePNN0zZcNe0jxOTnlBDbbdR8xXKp1KjonBNaOgabxRb3cYDyBWO5xmumM77MJwa2Wh1FWI5ZiSOmeh9K1asiL6HHnWWEchUtuGHSpk0lSNYPplVd3cbDEhKht2Ge9YN266N0uzE6/dCQukaYDj8Q9DuPSom2k2ipWqsy18rLEVLZBTA3zv/wBqmMaVt22YtXZg+IAnMeRskbn6mtcao5siS2YTiWJjpVyp7ITjNd/iusiPK8xJ43+xx2UlGYjbJ2r6GNNaPk5tpvQmGQu4XG7bVTJTtjJ2piLOwPNFG6LloTllHVkOcn6UD5LZJWFvITyzRuMgjYk9fvQFlPKAX5gqqR6ZoE2SI7dJl8S6Phxqu/w5Leq+VANoeY6TFGstvbGVTszyNlh/6en60ARza2V2peLU4ozjOJFK5PkMDH6Ur2OkxNxd3FiymF0Y8oEg2dG2x8jtRyP+Vmh4E0XTeNZ5tA8SK1v7jBsydg8nMPgyTgArzdT1xVLbSfDE3ptEI6dDY6jdWNwOSWAmM8wOMjfcdfOh6bQk72NzQRwRr4V4ro25Xup8j/kf7VLKSVkGQiK5ik8TmAIORkYwabSaFweg/wCFXim6j9sGhrDcyr/qLy292HGFdWiY4z3yyqR5EetSrWi7TV2e/X23rUlkVetAuhVAIFA26BQSJoLAMd6BM4L/ABl6EdX9l0VzFgS2N4svMVJHIVIYEjp2P0qZPTQLbTPD9nahtPE8i4Rucgn0FSt6B/JX6fMyK1yrsvLkBlOCSan/AMi//HQVrYPPdxyXCl1HM7EnqKtRszbb5KzUlxO6jsdx5UVQ+uB2xTnt3Rifw5HzpWHKGwkixluUkg7+gphtDDwZJZWBU+Y6UC5LPS2xG4cnmUjkGevWs5c6Nsba5Ok8Auxsy3McmTOK8vydyo9jw5fpOh6SC06B12H2zXBOlpHq41bNPp7SK5nZPxN232rD2bbs6UkjWWMrhR4n4T371m1fZ0RtourOfkYYLNk5wegFQ2lo6Eu2WVtKqycwYMHOSpqXJLbNFtElJ4LdRGkIwSSyjYH0JpwSh+rlsEnN2KXVWgRmjym+MZ2+VbQbTdj9N0RLziFuUuZAvYgPkEfs055UtFrEkUeoa+vL4njknHNv2rkb+49E+3qVlndS6hPlF5l/6jtTUElZLn7aRZX1mngFZN8A4A7itoK2rMJrTs5Frc91w5rDOwKRzHnRh0JPUVeTE3+pcGWPKl+ntCrj2i6/o8SvDYe9KwzjxMHH2pw8X7nLouXmrHpK2QovbTO741PSbu3BOCyEMP7GtP8A0+txdmP/AKq+JQ/szX6DxxY6wniWN8JvPswPqD0rny4Jxfq0deLy8WX+V0bnRtYl5QDNkeRrH0UVR0qnslX+vcxO4GO4NFmqpdmL4j4gFqkk11dLFCu5Z2CgUQg5uoq2Z5ckYK2zATe1nSbS45LKO5v3zt4UZx9ztXavBnLcnR5eT6lix6Sbf4NBpPtd17wy0HCF4VXqXlRcfn60P6fFL+ZER+qzb/kaLS29tcl8rxzaZNbMvwks6kflXFm8WS1F2jrx+dGa/UqKmxuNS404gWSHmFtat4jnBJY9h966vEwfaTnPg5fKz/fkoQNHrnDEk1u7RoSVHc4OaJT95NLgpQcEmc3uPf8AQ73CF1AO4apeNLbKjlbdG54b4wkm8P8AmdDgg1mv0nQmpKmdGstYaS3yrktjOS/Nk+eTuK6FP244Iiqeyxh1tjanmynLn8Jz09RWTlyrNVBKRQanxF4NysQiJBwAxP61jPI1wjd0lXZU3WopcOxd2BxnYbH0qa1ctszavbKHUbh/iMfKeYedXfRnLgx+rsgR+Zt222qo23SOTMrVIw/FpaHTp2L5Ajyfl3r0vF9YzSSPK83WNtHG7xFEuA2xG1fQQ4PlcjtibVEW4gbxAP5gzn51TIS2hEiKHdUAKgmhA6vQu0aSJ1kiOOU4PypiLeLUBbgoY1IYZBwGGPI5oHsVLdRSphbJskZIVcgH0HagF+xFnmjkAjkmKE7jmX9aA7ILymGN4CfxEYI3FAgoxHNE8K45iMAeZoAjpAzLzMWwDg+lADtg8sUxeFirA5BHY0AaKO9uLycXF7Es5CEOXJyRjGSc5z3+lA+Qp7WNIIJmuECkf1blRk+W5pJ2U0lshXdkiFJIr6CcOTsgYMpHmGUUydnsX+ETgG4vJNJ4sumsfcbGGWW1hCA3CzN/LZmPKMLtkb9RUQ3ZpLSSs9dSCtjNkNetAdCqAQKCgGgnsTjPfNA7oGD5UBZhPbjosvEPsz1jSLdkSa4iCxswJAbI8t/Sk9i42eBtd0xLDhC1tYHEstldvCWxguHOD9PhoSXo12hNty1w0ZPUoobRE0+BCOSNpWY9yelQy1smaIwLrFOvLG64LADYdz86pMlr4M9q8QNw7oABkAUgW+SP4rRckkWQwxjalyNfKJasl1iaJvDkIw6ZwD8qG9CtN0yDcAoxVVII2IoSofD0hULHkAXOQc0mik6pHSvZhJNNFcJIc4YFcnfG9eb5KSlo9fwW3pnUbPKMu+5Pb6fv615mRetntYzR2qAoPDOHABO+P31rnurOqKvZotMuudAsnbYDr8zWcm6tG8GnovILhSoGxVSBnOMVKV8mquybHLEqhgSpBxkdMdalxTdM0XNDseohIi6sXG5bI6HvVOVGijRU6tqDPEZQAAM7k4x9KIGkGr2zLXfEaQx4Z8kDO3nSabJyTrbKq31C41e75IpWCucEt5elOKOWUnLSOgaDplvbxqi8pIGSx33p+tspWuSwuLNZImIJ5mOD2OK1ilEJO0ZriLhq01K2MV1CCzKQQ3by3rb7vqkls5ZQi3Zza74QubKQe5zzPEM4UjmAGemapK1rRk1FvZEn0BjvdwBds4ZMVonKOrM54sctozF7pj6VqIvtMeSMqcgxnBH+1N5L1IzWP13Fm64V9okLKLTU5RFcD4edtg1cmXC7tHZh8ilUi2u+K7e3DyPcRsBuCDnNZrHeqOl54rdmcuLy14hu/Eu0MyjZYyNh64rthCMFrTOLLOWSVN2jSado+iwwh10hAw/p5ADWM5ybpM0hCK5RKa7SJJIreyXBXBBxg+hrnuab2ayjjaVFFacLQXFxnUJuSItnw4dtvnVx+WzJwt0kbrSEtdOiCWUSxxDpyjBPzPepyzc9GmLFGBfW9yZ0K/izgHA3P3rNJx2bySZmeL+Fob+N7iPm517D71SmnowcK2czMM2k3hBJQdGGKHTQ02tGx0bXpdlaTBH9W+49Kd+iNIPdmii1oD/lEAEZb1rJq9s1TsiXWqJMR8QyTvtt+96hc2atoqLnUWRsoW8Mdu2KbTlyS9ohXd/CUHc5zgedC/Ji3XBmNXveaTk6AHat4KzhzSd8mP4ykzpU5UdVKgbY716PiL9aPK82bWN0cdkLs3TGBjpXvx4s+Ym37MVbR4nQ9QDn5VRKV8guArMSvf0oBr8j+nwIwd5eYKoBOO57CgErJcd7FGpdYVA9V5sff5UFEc+DeNhL5UJOwdeUZ+m1BNJjUtrMu0pik5TsyOp/Q70rERpnUAJyg0xrSERDJ5lON6BGg0+1hntZo2PKzjK7ZywBx+ZFNAV+kWPjzlJJCmM4A7/Py6UgJtpdSW4QKVaOdSJUbpjNABPP45jt0jL8uEAIzny+tC0N2+Cx07h7VL7ULa3mtZ4veXESPNGyrjYdSOgzSboaj22fQP8Aho4Ot+EuDxDBfyXPiY58kFVcfixj17VSGdlc+tUT0RR1oGw6BIFAMFAgiKBpg386A0QdbjWWwYEZCnmOOvzFHDQNWtnzS1VbiTijUdNinDw215MyvjZgjMAf/p/Osr/W0uLL9V6r9jMTXBlluZLhyWkdcZHbHT7VbIVIUksi2ylV5eZjuT0H7xRVbH3yVepM/uscjLgzEso6nAOKQroiQcrwtGy7vgq3lQCYtPDCNHzsJB09fP5UqdjWlYz4jhiG69896ATb54DjmCMGPSk02ilV2zpvszkSZ5mRxj4QPv3rg8m1o9bwZJ8HUIHBkQYAwd68jLwe3Dmy6jk5IubP4RiueS3R1QZaaXd4jLjG2Nx5VLdKjaKV2XlteRpG6uc799yOtZOVukbJ9j634iQqCMZIAPlSSp2arZDl1c2wJVyANsCmots0lJGe1jiRFRvFmHIRjfqa1Ua0jFyS2ZaPxNTnMgkaOA7nAyW+XlQ4/wDkzKc/fSNrw3bQxyRlYwE7nGP1pNUtlwjSN7YPHHFzEg9h86FwVaRLiuEJ5HByMZOfPp1rRcJsylJqyBqBkc8qMCD8JOOpwSR+X51tjim9nLkm1tGfm01o53DwvyjYvnv5YqnJN0kZ23sh3PDkc8bHky3mR0+XrTUNWnRFvhkW19nEN4/JzZY7DmOwO37zSUPZpJg5epIPsHu3kE02ls0QJJPY4Gf0x966I4q2zJzUtJi9P9juli4Uy6fdchHQucZ+vSnUb4BuVbZd6hwXpehxiW1tEjU7nK55fTNY5U+uzbBJUZjU4t2WNyjLjI7Eb/4rn9K0jo901tEGOynzh2CqSBknZalx+SlKPwSoLMJOEQc3L6Y2pOMmuaGsiuiyW48NRG45VOeg2B+f2ohDXswc6JUPj2twjG4wo3Kk5yKyyJcLk1Uk1ZY3V3HcW7Moyp6486zqtFx2c44p08FXmGB1P/arxyrlGeSLXBm7HUTaHwS+cevyqkvb9UlRKe6RexaoPCDLKWGDv/alJexcZNOhltXZn5U6fPcUmkkbe9bYxLqT7ggkHO+elRtoTm+ivmvnhBKA46+frVKLejnnKiuZ5ZszO6+QH/euiKSpHFNrkzvGUqx6PO7jGMA+u9ej4kf1I8zzWvts5GwLSE82/ka9tcHzktyAkiQtzSgnJwRVCeuQpVUyKhbA23oJEPNKjFVbC5zigCbbOl4XKDDcucevmKAICqDKV6YND0CW6E3ySR3BjGwXtQNqiOOdtyc9qBOyRECpBYGgKfZd+8tDZpLEMuXGApwVwO9A7fQ7aXC2shnMQLT82ebrg5GR+dAO+yNd2sUQiaB25DkEEbj/ADQGmSrF5bB472JCArjlkIzhhvsex6UnvVjTa2lo9C+zH2kf8XT/AOg6vbyTXt2EiS6uQk2FGC39HNnbb1rOEXF0uDVy9lbPZnBFjHYaPHHBEsEWPgiUfh88+p61ujNs0DNnpTJZHXrQHQqgFpAoBsFBQKCAjnpQPRScbXMtjwhq95byCOaKymeNz/SwQkH6UnoapvZ8zbZXWa4Us0lxPITluoyDt9a58ezbJVcEHiG2W2mktzkNEB9COo+9dFGGgSWUkdnbgMWHKGZsef7FJ6QRSbKy4g8S0tWdRliyjyO/T86lKhrvQj3IW5jZgUV06ee/Wh74Br5IN0wSY5kw0Z+EgfiFGxOn2R52EbnwpQwO9MHrgLBUhWYdM7dKBo3vspuCmp3EB3JjDAfI1w+WqpnpeA9tHZbdWbldcEbHFeRNbZ72N2kXMgPuzk7bbgDoK5W/1UdsU6GNMvSknhAYDevXris5KjWLui+tLoO3xk5zv5ef+Kzu+DdNolSSZXmTGw2HpUp7NbM9r+pm05hIu/TPftua2grejOc0jLANfymWXmCEhgD16/nVu497OZz92aTStOtgVXB2AJznP/eobcds0XBr7OPwz4EW47eeKmKc3bLcic95IIguSr8w3HXGc/2rWqeiHK9Fla36X1r4dwoQQsCAeu2d/wB+dNroz9l2PuPGkV4X8MKeoPTNbRdK+DKdMUixpGVWfMj7jLbZ37Va+EQ0kRbojkDyS8pjz0GTj51L+B0nsGk6pFGwdHZ8HBUZzjzq8cKFOmdC0HiiLwRBNPEyg55dzj0II6V1JpcnK4fgh6xf6S1uzqycquA3wtkD6UOKYvZttIwfEL2RtTJb3QGCFKB3OQTsdx5VlnSUfZF4HKTqjFyB5pOUFmAO2fKuBtp6Z3KKrehUMssTEuoaNvXJBP8AbGKE1VIlwaeixTBVZeQFckjz3wf7UNt6Y1DsduVElvz7BSd8+VClTG0mhMUkksRjYlyASX7/ACpPbscE1yMJPJGCYptwcFeg+XrWElejdSortVcXJZSAGOxAGBQnW6HJpowOpQPaX3hon4hzKPMVv/NGzmT9ZUx2zvHB8Ikgn/H/AGqKaNU9ipWd5sK+46HODRSbtocpWBY2mj5i/wCHqKmkhXY3Mw8Bvh9KqKMpvRFijTlTYrkkn4vp+tdUU7s5JFHxjbPdaPNZ26q00gygJwGIPTPyru8Rfqtnmef/ACUche3e3uTFOOUxj4gex8vvXsrjZ8+0k9Ed3VncMNgaaVEsT8OQVl36EEUxDpMqIE5OdT0yuR9KB8EvSP5Ukk5XZQF+THpQC/Ixaw+LPNIu+JQAD33oEI1gr7zzjAyo/SgHoTYorKVTck4OR060C/YleCWjWVVyAN8DsO9BVC7Lk8eMSH4HJG/b50CH9QSO2MMYf8Pf0wKB6Q7Gr3ckUUkqBPP+/TNJglb5Jjadd2wzFDO9uD8cgQmM+XYfnQ1aKVJ6Op+yLj/UdD1Gy0KXSraeAPiDNuvMjud2xjmbO9ZqNStM0c216vg+gPD0ckOj2gmVFkMQZggwASM9K3RkyxJ9aYqGloDoOgEgUBQKA4BQGwiO9AbZS8ZWE+qcK6tp1qAZrmzmhjycfG6lR+ZpMdnz84r4M/4b44uuHdMuRff6b40ks6rycwjiEpblYkjCnlHnioxQp0iss7Vs55dlrqVXmJw4PN9Sc1VkU0aZhFJpEpkRY5DbMIwOxUDH3xRVoqKp7KiWO2uNJsFjALnLOOncg4/L7VMnSpDjyQtXIeJViYMYsqqsO1JV2Np9MzkymbZlAftTsz29EFgwVgUPlnypipt0hzJY4CnyoH2bD2XmaPiJnwQnhFWPYZ6fpXJ5auCPQ8B1kZ3awDyIqrtldsef7FePkaW2e/jLmJT4EnMdiK4uW2dyeiBCn8w8v4jkjbp1/wAUmnRSfwW8TBHPxdhg/QVlJdI6IyvkmxSK64J3Az86zf4NroyfEollu4Y1QnnkCtt61040kqOXK3TI8lubJDO+Qgfl3G2SelapKrME6dDtjrUvN8BzkD+rzqWr2y1OuDUWetMkYdhhjtgHt5j8qpRSQnPZZ2d74iMZWX4hgLnp+8VLpcAp2TLd0S551mJEoClR0+lJCkq4LBr6zESpc3saCIAH4sY22/vWrT4+ASvhEFuItChCtLdcwIPQbDH/AHrRKTrQ1jk+Bk8ZaXLG0MMuBjI5hjBP61Sxt7YLFK6ZWWOsQNIwSRZGVy65OCMk5HyzWsItvQTwNdmq0vwNXuEgWbwi7EK2NvuCMH7V1Rxe3LMnCcUX0vB8lrYvc3t9eSxDDAIVXbJzknJxt2ro/wBMvW+iIbn6LkyWtatFZ2TWdvp/IhYEGU8x8ubPl6Vx546pI7vH8WMJW3Zkxq0ETCWZE3I6bEggbV5rxt6o7MmODWmPR39lPMsnwJG/9IP7+dVKChHjZnHx092STyBHEV6AhzsSNvKs3C1Yn4zfDHIpYvjgiuY5An038qSg226OaeKUHQq5eRE5oZk5HU4O2DVTioK2Z+z4M++qiCZkRlGeu/6fasWtezGp26HP9RhmiZiRzdAc5ztUNWjVTvkrteso7qwS/hyWizLygbkDqKqE6fqTlja9kuDP3kDRNFKiHw3AOcedWk1bYl+pIkwQtIVmG+Dg+eRnf60m7WuBp9MsFsA2DEgHYkCs3stcEa7tgi4ALAAduhrSGzHIqIaxlkcmMHkAAH610wVnG9syvtIV7XRIriHaVHWRNvXp+td/hr9e+DzfqO8ZhtQ09tZ0r/VLOMmRF55Yz+If5x+lexG5ydLg+fa/Sr0ZII/Jlhjfv3pk1QR5eooB7FqrY5xnOcYoAlykpaBEDAMxYkdz2oATbHw5YYy+M5Z8/l+lAEC5kaSQuxO5oBXyWehiKZLqFl+J0DD5g9vpmgd2W9usfuwm25cElB1z3AoFZXRwCaVpCCFUZU56dgKAJOoQia0tppCQxTHOe5B6GnWrDXZG06NxcRoHKsCN/KkB2vQ9VXhxYtVsPEZriyHjwSKphuGU/EMH4T8yM53FBSdjfs84o0+64wll/wBFijW+lCZgQc1vk5HKFHTscDypdlWfQjSQBpdqAGA8FPxDB6dxVohkk9aYdCAM0D4QqgSoFBQKBcgoCgUCYhgGGD5j9aCj54+3FLvTPa/xK1pM/PDeMowNyCFOPUY2386m64Jas5msjM+ZQOZSM981KKapmwjiSbQrCRbfnllWRGZjnIB8vPb7VfESU2nRm7O0WWC7jjBxZyuVB/pBOf7EVk22aQXNlZfT+LaiQDLKcHzo5dA2zOXEzM+OYgHuRVmbf4CW5mBwzA/MUqBN8iWu25vxgjoDgUNWClXB0n2ei2t9DluTMVluLtV5SuAwUbb46/Ea5/ITcWd3hSUZK+zq2kyfCBvkd68bIr2j6DG+i7LmQBMkZFck2kdkHohtzrdsqnY745aT2VF7LLfmEoA5dsY+VYS0dEH8llYxmXDIOpwdulZNNW2zdO+BzVdF5I47zw+bw3DnA35QN6cG26sWSFxZl+K9PnXTmiCkLHICAPImuyL6OPIkkYeC7urOUIIS5BGAPOuj0U6/Bx+ziXOnavI65vh4Sgnl+LfY9PzpvEuSk5S1Qm449hs5OSFmZgep6E/sfnVLC2X/ACK2yFJ7RdSmysUxXGwx1xvWqwJcj+4m9DcfEF7qIDGSZ2XI2/fzqvSMXTJeaSdIeTVJQWS5ZuUgjDZ2qm43o1TnVimvcqslu+4Oc5+tGno0UpsXbag7XHiBwpXYknqM/aqSQnKT0zc8McVvYXkdz4ixqnJgEhifmOnn2rRT9dhUpKjb8S+1cazYGOT+SUAj2A75xjJ+uwFVPym4+oYPG9J+1nPuIuKl1W6mljKIshdwkYHKM9cDtXLPK57kdqhSpGbedOZi1wD8WVBOSP3isnJdAk48jyyxFo/DugPPcHy/tWbab2yk6F3N7awQur3OCwAGWwSdqap8IUsmtMo77UIoCxi1AgdebmxWiaekcmXKkrbKluKdSikzBfMy9MlubbvTcFNcHFLyIvUXscXiWS6w9xOqk9cbYHpWU8SaoUZSbtsK01TXpZsWdxDNChBBORj7emazWKNb0J5Jp6Z1DRoPF0t0ucc3J8X55/WuKUfSdnoQftEjS6Mx0W15hgqOXm8wBT9rbbH6VSI+nacIl+OTlCkq5I6bn9NqcnbY4qiySzKScrHmVScDsDvj9KybtmqVFHduQzBTzEHfb9+QrWCZzZX8ECfw0KqSQZHI5QfzruiqicMtPZifafcO4trWOQbD4j5V6PjVs8X6jNtqKMvwpxPdcNavHcWPKJRkqJFDIRvzKQdirLlSD1BIr1cGT7Uvajxs0XljVmb1jR7m11KSM/8ALGGBPdTuD9RUy0/3Gk5q0NRwW8QILjm6gmgOCLI3I2PXeglug1ZvxMxAGMDtQNbVjU07SSkqMEkdKAGZQ3isF3GaBNsl2lxLZSLJEwVwc9KB8GgsJbaaZSr8sEux84z5fvyoBNBXDNCrW7Ac4P38v1NADGpzctpBCybrsSTsfL+/3p3aoTdEa1uJrVQVbHiYO48jSGnR1b2ZcCax7SrprfTrz3OGzUNPMoYYVth0O5yD1pclJUelvZV7OIOFbxzp6R3t+oVPH5FZ333ySvwj5Y+tUlY7o9GxKUiVSRkACqJYCaAYS0B0HQNAoGCgAUAEelBKCoKPn/8AxPWf+le1vWpefbUZmbAXfZF2J7/iH5VDA5DPNHb3MbFlcMgZsDGPQ0AW0V8Y9EDIyoytzRZO7Lvzfov3oTVCpoRp9/Fce/vC3x3kLK46crgE9PXekxpt8mW8UzRvF4mX3OPOhIG00Vbqzbk9KLI55D91Eys5lC46jFFjq+RJht4m/wCdzEDO4pW30Ukl2dC4f1rUeE+DWtrrUjGmsEzw2pt1kDICBzFjumcbEVE8Sm/Zr/JrjyygqT/wdP4S1GPUdNgvO7oCe9eLmxtNr4PofHyKaTNasayRgr136fKuKSp7PQhtaI8qyLKzqN2HU/Mf4qW7dGlVslJGqqrAl1B8j9azl+DWDo0ek26khSAMnP4vlWM0dEHs2FtYxXUJtyOdCpBz3zUQVPZpIxGu6dPyXNrdxoAqckbdc4zgn1xitcUvZ8nNlil/UwLaEJU5hEBL6nAFdSk26vRyyhS2VOrez7W41F20/wD4Zs5YMCFyNv0NehiSa/YyS9tJ0yg0fgi+uuIU03UppPDxz5U4DDtv9a7UoqHtFHmeTPNiyqMnSOmcG+ynh6bXpbG/hMsfhc4zI2x+hrk8nJKCTj2a+NOMm1LZ3/2G+zjhLR4b+C4sUn5525ecbYAOB6jeuGUm8lvhoMsrS9dUzbX3sC4SueL4rhdDtVtJrcSyqIQMkkAr5Y61pKDi0k3sMX1Cag03bXBiPa97CuFdGgsrvQ9BhQ3VwkDrFGcqx6YGcYP61E39te1v/wDT0PC81zbU0nWzoWmfwzcEyaXaQXPDll4vghZX8IBieucjfNbVP1W9nDPz5fdbT1ZR8afwc8IJpE+tcP3F3YTQL4jRq/OpA64DHbbPftWicvRya4OjxvqbWRQlwyJwX/Bpw5qunf6lrOq6hOGAKhcRqw88YJ8qnFGWZOS6L83619jIoRSLDX/4QPZ9b6PMmmxXMV/4Z8KSSUsobG2R5ZrOUJrV7M8P1WeWacuDM+xX+GnhnXNGl4i4p0r+UpaOK3ZcMzg4JJ8s7fc1McMpblKkl/W/hGvnfU0mseJb7+KLbSP4YuGrz2gXZnsIRpNpyyrGoxzg5+E43GMH71y445MuT06Rn5Pmxx4k1y/9xj2y+wbgvUotN0zStPgswl0IjMsYyIeRic+Z2GCe5rZqcZ1iVr/YWDy6wt5OTjvtk9iXA+k22l6ZoCtG0kh8WRsEsoXJO/etmpY5KKdmM/K+7jbkjjPFvB2m8P6jbxPD4EBgMnwnlIXsa7MTeRNM89trIvV8mWk4WuNdYtp1rdRpI3LAWkCq3boQSfuK2jPHjtPZ6T8XNkgm1XwzqGg8G2vDehRWTuXu2w07hsjm7gfL8683LkTbaOjHgkqTdmptLMSJHAiYMsYDfQ7/AKV5eTJ2enixr+hd6rpkcOnQwooymTiphI1cdmdntvBVg4/EvXON6psqMdXRGuLsIpheQYPXftTStmbpGeiny8kijKk53710QV6+DiyclfGrSanDj4nyx33AArsiqVnHN/qo5x7RL8yaw8QQYjGMA16fiRqNs+f8+beSk+DHK4iubdiCCXG56V3UeenZu/aBptqOBtF4phv4muJJ5tMltsYeJYUjKOTjBDCRh5jlrpnBfaU293X9DGORrI4Lir/qcxhDyLzggls1zlq3wLiiaWVhKApHVSNx+9qB0ubJV7ZwvEZIHYMN+U/hYeYP9qBv4KwKA+WG+e9AhRQA53OaAqhNxI/MC64KgAZHagHwSIZHjUOCR3oC7JVrc87lZAS52BIoAlPJ7zGYJAGABKFeoPrQO1wVssjJNyupyQPlQJ7O6/wr8Qabp/tEtNL124aOx1P/AMMyBioMh3jJI7c2B/6qXZR9BbTT7WyXw7WJI18lGM1oMl74+VAuBDbUCsC9aA6FUDQKBgoAFABNQSggNxmgdnlf+Iz2ZNxBf8U65BYGW7sRBcW7jGVDRjmZR3OY8dd9qh8j/c8eXkE8Mz88TIwIIRxuPT86VhXwM+9SI2GyFbcrTJtoXaXhspiwPMMgqR38/wAqTC2+CJcxKb4vEcBzzAjoaGxq2yNeB+fCgee1CG2+2M+Iw5oxg56mitk7JnDWjXvE/EOn8PWAElzqV1FaRKQd3kcKv0yRRvoE/lmw9p0FvbcZalpFsx910mZtPgXOeVIjy7fUE/Wqyfpl6lJpqzV+yvV0Ns+mzkAxHKD/AMuen3ry/LxtO12et4GXVPo6rbTQkhM/CwyteTKL22e5B0x25iUxDHU474rFaR0/kKEu8fI2SVyfnUyLi2Xel3CpPnlBUKMEnGD61m01bNovg3uj+Ii4lfCFQMAZHntWVbo1tMpuLNMjci6Bc5G2DvnrVRbTpImWzGQ2C3GY1JGCVOO1bRtOznaT5RteD5raKNtI1OxFza3B3R1z54+LBINel42X06OTJj37R5Qzxh7PNC05o7zTWzAx+B0J5om9D1ruU3D9UeGX9rH5sfXItr/ujB6Tpes8Ia5ca1ZajLqsEkbAQSMA3oFPTPzrPMo50k3TOR/TMnjS98X6l8dnRPYd7Rdbv7zV04i0abTOR0mto3VgeQ5BySME5XO229YZvH9acXejkSkm1kTWzuHCXtq03UdXutNurmdZLXEayXKciP5hWPlkf2zUr7iVSRMvG17paNDxBr2mamLF5pIXhluoQh5gQWDjAH1rOWP2W+CoN47a5o6fYX9s8IYFcsM10JpaOL0k22PajeW8mkXUDsOV42H5b1S/VFoEmpp/kf0i6gh0iG3jwFCIoGeoxVYJxhiUUY54SyZnJlTxFdK1u7DBIBFY5Z+70dGKNKjN6TrUUekCCHw1jhkdWC4GGyeYGp9XKHrHp7BwSytvsi8PcY6U2q6paxXEbXEPKsieYKbH6Z7dDUY/0SdLo3zY5OMXLg5b7QOOLKbji24a8ZhP7q9wBg8vXHXpnGdvKqgqd0TJS9NLRwb2m8dQrxvBZta3F1bW1sx+BebMhOMelarHu5McMWTJ+mEW/wCmjEXGhaxxdqM2vcTRmKKUKiWyH+hccoOOlX7+i9Ynq+J9O9X9zLz8F/pmi2On/wA+NEeXHKgA2Qb9PXpXJkmenNaS6H7y2Z2y+c5z8q45tsn2rSJug4luRIRtnA2865JrZtjei61mZWAjwuFAyfLfakk1s20ZLVC0rqoJwu5Hbp/uapOxX0Zm4ky7qxPxbD5fsVpFdmGR0QDM8cQHdun1/wC4rqgqOGbtiNNbkmuZ+UHwYuVTjocb10VSRyzdW/g4rxBfm71OafOQWIz8q9rx4qMEj5fPJzm2U08vO6IozkgdOm9dJglRoeLVccLQliMC7LADuGXf/wDbitGm8a/czil7v9jIwOFUZwRjfasy7JyXVrymKSGWMYADBht9D2+tAm/wNjxyMK8bxHoxGw+flQCT+SHeQtEQ2wVjtg5oB0iTYlWxHzhWYbH1oAg3FybhuV0AZCRkd96BN0S5EUQmRd+gyOg2oK/cQrhVUjc/KglEoRyOBNanJG5TuPlQUhu7YuVkKYcjcf3oBmt9kYF3xdptu88sSyTqrNHjn2PMCM+RUH6U0rYkz6Seyfi3/jbgHSded8zyReFcf/8AWMlH+5Un600WbEdOtMnkIjNAMJaCg6AFdKCeRNBQKABQT+AUD4MP7R9KneNNRggWWGaF7W8UjPwEEo//AKTnPpUsa/J8/favw1/wzx1qemJGVheRJ7fPXw2HT6EEfSs26K20ZKfS0XxkebB8PxIiR174+2arXJNMqUhkeOTmblQfiye9HYloI+IIApIPIxAIPSihkSbKnc7+dMluyO45tgCSaCavg6z/AAnNHa/xE8ASXXhLGOILFcydAWmUDPXHWqg0ppvi0E4yeN18MoOO/GHGmuC5XklGo3POPJvEbNVmVZH+48buC/ZDXDWsto2rW90HxHzBZPVc1zZoe8WuzpwZHjmnejvmmyi8iDIwKth0I+VeDnXq6+T6bxpqcLvaLxELwiQDcYzj9+tcb0zujtDRAjnBJBzt9amW+C42uSZGcykJgZ8/zrPnk1/Y1/D+pyIoiY84O3Nncb0nvgtPReauUubf4V5sDP386V0X1ZlRYLBM0iBI89QO+1bQXbZzyXZd2sKSYaIEbbnvnOQfpXXA5297HruZghjuGaUMhBDHJX5edbwzetJgotbizJajbvBJmJSN/wCogDO9bqpbTOqHkVyVUl0+BKZGAByeVsY+1S1R1QePK/1JP9wWWrTWM8slneSxySEZ5zzg4HrTtW7Oh+L4+VKLiq/Be6LxDdJKWu7a3nlSRZI5QpVlYb58utZvJT+S8n0jx8qqDo7Xw77brya4itr27sbRHwHkmgeTkHnhWGen51TyxtWv8HmT/hqotwf+TW3PHs91plwYdatZY0CgvaWDuTzZAGDKSDt3H2raElNNqq/on/k8zJ9JngyJSTf961+Ugm4/Gg6Hb2el8X213LbxRRrDeaXIkrDkGxYSYJXYHI6g9ep0axLHUXx+Ea4fo/35pyTSd3vj/HZgeIfbVxkRLBDd2cRYYXw7deuRn8WT0z+VcVtP4/se5D+G/Dik5Sb/AKmHuPaVxTbQzxpPAzTtzF+ZgwPc7HcmpcpJet6Oif0XwrUk3rqjOwcacXpqI1K31k2s2SSYlHfrnOc9KXpxtm3+i8Jx9ZQv9xvUr691m5fUNZvmurpsnxWwHz8xvVK1yxS8bxIRUYY1RV/+FjLtMq+MDnmbcn51afyceVRTpJJEaXUpLiQJGfgGxIG1ROdaRxt0W+i2xl/8S4XkQjp+lcb3tnPKfsyDxJcLbAMmSZSQMHJH7zUNWKyXoa+7Q+Idtgd655KmdGPYi8uw8xy4yu5zUPSo2bSKK/ueWN2D5JbHzppEtpGcuHDkgjBPr61vE48s7ZGl5hhyc5OR6Yroh8s55ldqGptpWgX990ZhyAGuvFD7k0jzfLn6Y2zjE8xuS79cnfFe2l6qj51ty4IjELcISDkEAfeqsk1PFWrG54RttGcJzW9wZI29GG4raWX2xqCXBgoOORu+TECNGAXJU4+YJrIvgkxtJEuGAZemx/UUFcChIqgyrG0cnQMmwoERru4E0PIAQQcnbY0AR4JSjht8qc0ANMG5yANic0C4JIaRA3KfhYb+tAxYysQZhs3TFAcj0H8xjzE7DOx3+dAabDuoJPCW8jmEi5+Jh2PqKAJXDWq3elTe92D+FcxSLJFKrEMjKc7Y/eKBpNn0P/hS1SDVPZzO9soSIXzMkYGAgaOMlf8A3c1ESjtY6VYCTtvQSwDvQFChvQNgPkOlAkFQUCgAUCYKA5G7mBLm2eBwCHBG9AzwV/FbokmncW6bfjxUWRJYFjdenI+QA2dx8XTt9axmrLicd18TC0S4dOR4j8QHZW/f51MBzMjJLIOb4zg1qY2TdNhkvGEMQyxPU+Z6UqvQJ1tkG5BD8jEZFMOXoYyScDqKBFpwrqF3ovEFlq9q7JNaXEc8bBsEMpBGPqKTeykk02zXe09HPHWtXBBHvd014mSM8k381ScDG6uOlaZpXJy+SMa9YpGWcEisr2aVo6t7OuKPedLW1eU+82pwAT+Ja4PJw22et4WetHULbUo5rdZU28Rc49fKvHyLbR72Kd0LM4b4jjIH7/SuemzqbsWsxB526nbHYVLSWi4q0XmkXksVwiPGjBjkZOflUvfBSNhaXolDQtgE9vOoaTLuuSFcRHx2ZwNz0889a3hdmc9ljppORlShXBwD5efnXbBnJNNDV7K8ZJ2/EBk/pTmq4HCTXJVXRjnjAkJEandeuDmo9pRpJlprbZRS6RHIZntggOPwk/DjH6mt15CTpocW1XqVOqWE1tKpMRTbmyASCOh/SqclL+U7sOeuRFnc3kbg8rHORkHuB0qPVN7PQx5jonAdhonEF5HZ69f3EESggukeSCB+fatYKFqL4Ky+Tkxw9oK2ayx0PgRbu6029uZWW3AZLiPIJ+EtuPyraDxNtSMMnkeUkpR75RETTuGEZrMT3ELMw8J9yzAjO/YdtqpTgtUJ5M93aaKnXI9KhleO2ldhGw+JhjI27Vx5Gm3R1wyzpezMnq15BEx5evNjOc49KzlVFxnfJAW9tFLfzuctnYbD99afshp1obk1OadRFaw8pOd/nmoeQnLOEFbZENhdSupnZsntjpt+dH3H0eNn8lSv1LXTNCaReaRGVB3z1qUm9s4ZZG2WV3dQ2MLW1ufhH9ec5I/ZpNNgmlyZ0I+pTCYtzRhvhz0PXes2qCLvZcqyw2zc/wAh8q5ZvZ2Q0U11LzAuvRc5Pmc1m4mltmevrg4ZSx67ZrSKt2YzlWisUGUEsPUV0JVo5W72Rb1w7FcNhNgo+VbwXyYTerMh7RdSxpdrp0IKmVuZx5gV6nhYW5Ob/oeF9Qy+0VGznaryjmUde1ei/hnlK+UAQIJ4WHxZcEjuaXCG+Sx4tOnyadDAYWiuEDO0nPkOpxy/DjYgg998irXCSRm+W2Y2OIqQwlVlB7HeglJc2S43eYE5JI7elAxh5HSTlDHagXAiSQOObBz33oASOooCgRAs2T23oCh/OdsEYODigY9M7GRk5cAbcoPTFAnfApVGRy4JFAfsFJL8LBABzHt0oGXHAmmQ6vxLYabcS+FFNKOdtvhUbk/YGgD3J/BnNLNwzr7IjCy/1ELbswAzhdwMeWR96a5ZXR6LqhdBE74oCtAAoDkUvWgGGRQISaCkCgFoFAMFBIOgoKuzzp/Fx7OE1vhSTiyxtnmu7Ic7op7YwzAf9XKfrgVMlfBSdHjG4kjutPjuQPhZVilBGBsMBvy39QaxWi20zLTxojPEPiBOx/StLMnromaW/uZN3zqvgkZU9z5U+Ni6K2aNpZPEGPiOfvQDokQWTP8AiwM9/Kk7Kivljka2tnOpzzydB5A1ElIuLgnSVs12u2cF1w1pOuRXouLk+JZ3cWPihMePCz5gocA/+QjtWqVxVdf9Rm3L2afZlWJy3mKhopPRI0fVp9G1GO7hbABww8xUzj7xLxz9JWds4f1oX1spglADjmXO4z5V4vkY/Vt9H0fhZVOO2XcF5mNfHflfvXA4tvXB6SlfJMFwGQAPgN0rNx7NU+i1tLl4mALhQOlS0uyrNFp+oQryNKxyxIXl2I7CpqivYupJTcYZN+5PptWkNEzbascjuZEQnmwF22Ga7IOuTnl+oRNcmYDJDemMYpyfY4xIVyqqCA3L8OF36jHWsJOnZqknqiveeO2QqoBBzuRutRXfbGk0LguBLbtF4mEkXcY7H9Kj2km6ZrFp02hBs9LJWT3cRMxGcdT61pHyGqRsnS5JtvD7pLL7kbjnlTIzIBnr3IrdeRb4G8rSWyDcahrcXMz+9fD13B28jTWZD++1STF2uuamqA3YmJABGCOYEfvH0pfft/gPvVpMi3OoXlysviiVWY7jm3IHn++1S86b4F92uGV0WlvcN4k3iKuM4B6k9flWTy3wP/UtPRaWnD8RPNIX27ADO1Q8suBvPJ8FmNPgWMRxwqBnbH2pKTdmGSbk9sV/pyGXJGAMH5VSkc7jY/eubaBimMFMIg7nz/flWqkZuKRk9UM0hWxR2eWU4YjcKv0+1VJ2ZtN6LzT9L8CxBVAgxt2rCbOmCSIs8HiBmY4Udj32rlb3s6Ipcmd1W/VVMYYZBwf8URVinOjNT3AnlwTnffFdMY0ck52N3EqKh/mYYkfTerhG3bM5SS0VMriZ8NJyoBkkbbV1wStI48skrJ3DXB0Hte9nPGd7oOnSXevcJPDqEQiZeZ7AB1nPKTlgoCvt0+te546cGo9Nf57PnPIn91tpd/8A+HFZIuWRkA+EeVazW9GMaWmOabaBpvFmcKADyk9NhmpS+Qb1opeIbtL2R/DJIU8qknqBVIza1spMciADPr6UyaJdvL4cDnOHbYHyoBaGXBUZJ2PT1oCxSqoRmbIJxyjzoGIDEMQw3G2MUCoeQ5BKjp0GKBjtqC7M77KmGbFLsAg4ebxSuzZJxTD9h/mRYudRu1Ar+RuOAzNhe/Sh6Gtm64F4K1y81O1vbO2XlPxfzGK846Mg8jjP2pNWWtHv32DcH2vBnDUml6fHMLZ5RLzyggu5UcxGd8ZFUkB1IkdqoXCEHrQLoUKBBg0FMPJoFQnrQNaBQMFAmCgVBHyoKIWpaemo2sltKDyupBwcGk1YHzf9uPCv/AntL1nRLe393tXnFxBGD8BV1zsO2/Nt8qxlXsUrq0c9a1a6f/wY32wuNxtv/emm0+Aq1yQrqFrXkilUgNux8zVkcCXHOB4KfCvTzNArbCaeRVIZwNumKWwaREBJbnJzynNME6ZtODOLI4dN1PhPUFi9w11YVknkBJtpUfmjmXHllgfNWbvinB+tp8MJL2aa5RV65oup8O6lc6Rq9q1veQMFkRiDjbIII2IIIII2IIIpNK7Gnrgqnxy9elJKgNPwTxJNYSGzkPw5BXNc+fAsi4OzxfJlidJnUrPU/fEVpCNwcjzrxcmP0dH03jZY5EmyXb3UoXw0m3XcZH5VzOO22dKabpE61vsRrzSN4h6g9qhJPSRTtFzpmpuZgJFOzd+372qWm3odpaNzpGqx3CyiQ8o5cnAz0/704Ltg3ocgmfPgqMkjGx6D1rog7Ri7TD94a3kIkYORsEOwBzihy+DVV2OeEJ3aRECDqCN8jqB+dZSvtlpUJbTBcq0bx5bO5PbPYflWbdFVfIqPhMyuI4i+R1xvjalqkilGiUeEHdlAmJIPKMjGMfpvSpvdlt1yiZb8O6jzBYYDKV/qBz032/OtIwlLgznOK5DbhfULnnWSwkQbMSw7HvVekqIco9MYl4Ouyn8uLLgbjPQ/vNS1LgpOKE2/A2sOxzZEY6tk4Pr64NTUhposIuDJ7dB7zheUb433Papd/JaSY4NDSHAVSCcDJ6Cpq6spKhC6bF4gYJykfDjPQ0J9ITV7FSWYVDiP4h552zVRfwS10UV9bTgytJln6ZXB+1bxklo58ifJFs9GiR/HdBzyHLE9QvbFOc6VChDVlnHNFKrSyjmjXKIgPXGD+/rWLV7ZonZldcuDC0gBA5j2Pn/tWMkm9G0W0jB6pdAkpzYJPWtYR+TCcukVEbCNiwJIG+/et0vZnO9bEySSP/SNzv5VpFUjCbKnjGx1S34bmurWCRVlXkZ99l7gV6HiYXN+7WkeZ5uf0j6p7Zg/Z3xvr/s24psuLeHnQXdi5bw5l5o5VIIZHXPxKwJBHka9VOq/B4klbOgwf/CL2hpxBrUss3BN5BZPfxWUUyy2s8oPxRQqyhkyCCFLHvjpirW+SXa1RxvWNUa5At7VDDBH+Fc5J9WPc0qsduOkU4DFTljkUENgjgmlOUXmA6kUC0FckoREo6UDElwy7jcUBdCS4Byx9aADj5pnLc25679aAHVTAyGyO/bBoFRIgKRRSZTd8AHyFAwpVW1CkZORn70AOWieJbhpXKx5OWx9hS7D8nVvYR7M14/4kVb2Miyt1JBKFleTsNj260Pei42tnrPg32OaRw1xCYtH57qaxCl2nbOVbfA2wvfaqSsDu1nD4MKgqFbG4FUTY/QJ7Cz1oodUAZ70B+wdBQZPrQJKgqBgoAI9aBMOgYKADFAHlf8Ai19jz8QyXPGml2c09/BHGeWEDPhgFXY+fL8LfINWco27HF1o8e8lwivf2aYVADIo/ozt9gf7ULYfsV11IZ1DOpLseposirehcaR8yxPKVyu2POmD/I3d2K85KczRgD4sUVQ218EMwFIDJkFScCgSX5GedlYcu1AW3o3Og30fGNhacLaxNbWtxbc0enahKyxonM2Slw5GWTrynPwk+XQXx0HG+TMX9lc6ddy2d5EUkiYqy5B+oI2I7gjY0VY+xOmzQJqMRnJCBhz4ODjvVaQXRr+FuMbaSU6dPKUdSRFIx2cZ6HyNeb5WHblFHqeF5NUm6NvbX7KFDpzDHUbbV5koWqPdx5L7LaK/gZwwz2+9YSg1o7LTr5JqXMisGDbjz60kopUYybuzV8PaspBj6Nvt3J3/AM1D51wNSfZrwzXkayLyhh1HTODWqG2nsKa08QckbEsdwMDp2NU2npAm6Dja5tZBHKhwR8J7Abfv6VnKF8GqkXkMD+GszNhOXO/Q4rNpLk1T0XNhE/MHVCS+yj1/eajoqy7062MmY7xOVObPTqPlQt8CbS2i/stJtrGWR0UOCuQCTt0/zXXixPs5p5E3QUFsLkCOZQqIWX43LDJydxnYZ3x505K3RKdMdg0do43lVFwm6Hvnal6NK2V7jUMF0s5S7mABzzMxyemdvnWaxtumWp/CIF/Lb8vM6ZIOMYOx/v1/Ws3Cjpj7cFXIfFJlZgwA6HfcVk1boOyDPFDGCUJO/MfnU+myiPMA0XIRjI37f9qtKkQ9FfLaNkPIojA3HfPrWqdGbTsq5tQRHYJy8yDAYj7nBp17EN+rKXVtVaOPmZ0Vjsqq2wFTLSJtdmX1e8aYMM4wPt6Vm1RrF2YjVZiHKDoDkHzraCv9iJQfRXrNI7BQcgedbKoqznmjU8EcLXfFWsQ2NsGMYYGZ+yL3NdHjYXmktaPN8nOsMW+ztvHns/0iPhD3SC3DRwIAPX1r3oQUF6o+eyTeSTlI8l6/7ObgXs7WcfIoJOB5ZoashM57qtlc6beSWd0uGXp60UDZVOpJ3FMgbEfMpJWgC00nVksIniOnxybFlJGeX6d6aHV9Fdfj3mQTpyjnzzBRjB+VKwbbIHhkNgUE0KkgbIcjANA3sfsrVpCUj6mgSVEiCCEeL4rkNGPhXBwTQMaQiSRVbYdxQAUyszcqDKigCXaLsISpIY4wKCkepf4YdR1fQ9GdrOJZGuJmjt08Lmb4iuT16YHU7b0kh9UewOG9CbTBcXt1dPcXV6VaRmOwwMAAeQq0Jl5TGCggTQUwxQLQdBQKABQAKABQS7YQI7UBQdA7BQHJC1KzivbWaCWNXWVGQgjIII6UmrDZ84/bj7MtS4B4jnubaRRYXk0nhqoIxlviXH1H7FQ0M5aMgbtjG59BmmTQXw4YiVR3VjQGhg30zReESSAc0mKrGndvwnA9KYPToaPxH8OKAJUchReTOyjzpV2Vbei3t+KLW5tBp3Emnm/ijTkguFk5LiEAfCA++UH/AEkY8sUK09A3RnZjGsjmCR2QnYsADj1xRdsTGUJRhIpIIokk9MalTs6Xwvrc4s4pHJlQbFTuR22rys+JJtLR7vi536pmvgmjljE0EgwdyOmD5VwyjJaZ62LKpdlha3JyOc4xvvvismlHSNJ72W9tdLGVngLDGxppOqM3zZttC1dblFKylDt8Wd/30pNpMpPRpLK9aHl8ZgyuMEMNhtTu9louUEN7arC4A8MgBTjBGf8Ac0062y0m2FbwtZymKZ2K9Vww6etS6e0i1fRfRalBHyRqwBBKkDttv/as/Tas0UrQ9a8QNGNwZEDlWHdvl+dXCBM9mm0qV5IlknKvCDhgjZIG/b5/rXdCKSOSTV6LWzQSyYCAQsSPLJxnO3anDHe32JXzY6FQzCOOfkjYbnmzygDf9/Oj0VjfGxma/eKeV5JfE5I8hiOuP9sCh472XFfBktWIeUvM3KxPiqR3674FcmSPR3wetEVbksAUIctvk9SPM/euVR/UxpOyLNOJJH8SZlwvTAH27VE0lbLaVEK5uoVyHXPKMYDdfWiKvbMnGyo1DWOZWB+AD4U3znFaNoimjM6hf/CQAcgfEScDr2qk3dGE2zL6jqZ8ZELjY9CdwM03G9mbkQbq5AhaRmB758hUuFm8GkjK32oRvJIobm22x0reMG1SFLJSasrZb63t5BEJf5k2wGema6FhtK+DzPI8pQ12dq4F1Ky4S0QS2kqSXE4DOcjmPp969zFjhigkns+dyvN5EnJrXQxxT7enXS5tOvNMuI2PNl/DPLt0Ga0v8mbwZUrcWc50rjKLiWC8kRo4pY0LEMNyKS26Ri/08nE9b1FtS1Oa5Y5+IgH0FAfuVwGTgAb9aAolafomo6zdxafpdnJc3ExwsaDf/agS2FqWj6lw9fPZahB4F1Fs8ZYEr88Ur3RVPmiOso93ZCiqrHc43oS7Bt1RAm5VYA4YZ2PnTJFzRvC8kbbgjIz5HBFAGg4Q0u1upQ125CHyHfBoTDTRAljS3muLeQfFzFA2dsjv+/OgCNDCoXnIxnuaT2xpP4HURUxzYA7YoaGq7RufZz7MtZ421q3MCeBYQyATyk4b6UJMeuj3j7I+CoNE0k2f+nRRQo48NjEAzADr6VSQro6moCqANsVQrCJoGgUBoKgTYodKA7DFA2HjzoGFQAKABQAMDrQIFAJ2D6UDCxkUAcr9uHsk072g6ER4KePEeYEg/wBsH069CaloDwBx3wRf8Ka9PpM1pJAoYiPnJKsR1VWwObzGd+x36zwH9DJzQvExSRCrjGQR2NMmmRZMI2FwR3oCgpOXYd6AWuRIHhjmAoCwM/w4AoENMx70AF1GfP0oAABIoA1XB1w5SW27oeYfKvP8qNSTR6fhSuLizYwPJGeeNijj7GuVq9M702tosINSZjiVuVvI9DWbxpbOiGZvTLaHUFkURc4BB28setZOPybqasutK1wWlyq+IvxNuM1Hr7b6E5Ub6x1mO4EcnMdmOTjNTTTNozTXJo9P1lRGCVwScMAPz9KT4pGqf5Lm+uI5okmjcPiMAH1/f96Zom6K21nS4BuWlClcA7ZJXuAfqKiV0bJrRotOMbxBY8ExgN22+vyqsaa7MMhrtHuWAkgjAcEEfEcAYzvt2/2rsjKkckk27NPa3STMsYlSKSUHmViAv0+eD9hVOYJNByWpPPHDyOu75JGQNz9T0pKSb5G5W9lVcQS+6yKkzRnJHwOCD8z9fuKcsqWjeLSoyWpW0qD3iaRg2AB0x3/71x5Mi57OzE0VMk8kKq3Kcn8Jx8Pz/KudySRqqZDvNQ8LLczDsfKsqc3vgum0Z3U9Z8PPKdz+u/8Ain69GU2loqLnUnChyynfbJ7b/ntVKk6RhNlBquqEKWZiSx2A71tCNb+TknMojIHJlkXDZ2OKtxb7JT+Sl1bX2CyWyL+EEbn9+daxxN7B5vVVZj77VWjDEbuc7V2Y8XrVnFl8mlSZktS1e6s5Fu3YmRycZ7V0wgpujzck1jfvLZL032naparyNPKAcd9gRn8q1njn/wCLPR8X6j4ipTVGw0f2lG7Kx3oSTmI5icf3riyPJjPo8EfF8mKUWjaxWfA3FGk3EemRLpmq3ERTx4fhBJ/6lGxrTD5zhcZK1/k4fP8A4chn/XidP/ByDi/2b8R8GyeJqFuLqyJ+G6t8vEf/AJu69e9duLLDKrg7/HZ8l5f0/wAjwn/70aXzyg+D+B7viaUy+KbS0DfFKyZX6ZrU4EbK40zWOAFuBwTplzdzTgD/AFHlLGIem2KXqU3ZzTUYNRubqV9SaZrpmLSmTdix6k5o4E9lNOp5uQKVUbUN0SIZY3YJ8QUDqRvRY+hM0jvJzv8AFnz22piLvTr82kcUyEp8LAYOAR5HG+KAsbtbK71m88G2tnuLidjyoo3J8/SgdNnSdC9m+oQ2VoY+FNTvL2V8zSNEyRopGAoJ2xv1+1LbKSaO98Dfwy2HukV3rNtDPdXbczQiICG3OOo7sQPPAzTSBuz0Jwp7OeHeFbGG007T4Y/CTl5hGATVJUKzUxQpEMIoA8gKYxZoJugqA5BQNAoJFAUDQoCgbdAIoBOwYNAWEaBgoAFAAoFQKAYKAoBRZEKMoINAdnJPbX7FrTj7Q5obMtb3IBdGj7v2yOhpNWNM8CcY8JcRcJ6g+gcVaVcxXAYi0uTGeWUf9OR+napqhbZjJo5YJWjmQqynBUjGKBNUJMgYZcb9sUBY2XI6UCAGDbEY+VA7EMuRQJgUY2oAfiiLHp0pdjS7NBwlbyR6g0ijCFSCcVy+Wv0XXB2+E/118m1SPJJVs15zdcnppW9CjFz5Qjp3xTUkikmJR57c7fEPzpUmO2t2OreZIkV8EbEetS46ov31sv8Ah/imW0lEcsrGI4FZTg1wjWE0uTomn6yjqkscgIIznOxrncWuTrhKLNlpusgIsHOHD7YIAA9KTlbpG8VQ3eqbe4aSyHKrjeMHP2NCdu2X1yX+i6oyRK7S8oAwQf8Ap9acZpcETVrZo9KulmaRpCyrGAQ4jyAOm++1dCaptmVPVEh9ZjWUBrxmTc45cjPnUznTpGnrqyRHrSglltgyNkj4ztv5fvtUe/rslQ9mFHrVpGzq4c535c4wayll38nQsWtFTr+spdp8anmXzff/ABUSnb3ybY4uqM6+qfy+UtheYYxv6CocrNHrkqNX1ZUhYJnPXm8vpS3wU5UrMLeaohlz4j9ScdjWsUoLStnnzeyBd62Yo3ZuX4cAZNXCFbZjObXZRSanJNIZ5WICj4R9a3dLg503LbKy/wCIJAxWNiABtvuOlVjxubInkadGT1DUi5KrJzHfJO+9dkIJOjiyTbdIqjzSycxy2a2brbM0t7KbiwfDADsDWniv2bZy+e6pUUMaAjHSuxnmpqxyLmjOUkK48qmSvTVm+LNPF+qEmjQ8O8TXdhcRB7hgAQM1w+T4qcXKKPrfo31+aksPkO09Js7zwjxjceAqSyLIsoAZXUMrA+YO2PSvHWeWKVo+8yeBh87FUkto797OZOFOIrRdP9zsrS4i2CRRKiyZ74Heve8XzI+Qqlpr/J+afWf4fyfT5ueNNxf+Do//AARw+UEUumROBv8AGua7j5wq9Q9i/sz1NmkvuCtKmd+rGAA/lSoDiPtx/hb0OXhr33gfSEgvrdixjgQAMvr3NJqg5PN9vwfba1aR6ZqEcljqSSGGaX3UsY5wMYflA2bY/wCTU7XI220YbXeHrjSNTl0yaRJGhOGZM4I88HBH1FHJLSNvwn7KrvijRodRtb+NBLIIxEEJcdBn13OPrR0M9A+zL2EWWhWVvxNAPEmd1EMUrAnOw58D8ROCcbAbbHrTFVHpbSeGkVCbqFSSwO4GTg5yRVUFmhhtYYVCxxqoHkKYtjtA7BQKwUCBQAKB2DNFBsWKAQYoBiqBBHagsTQAKABQAKABQK9goGGpxQAogMMGgXByn2v+xvQeOdHuJJrRfeYkZ42A3zUtB/U+d3G/C97w9rF1ZXsE4EMhUO2d8H1qWrGZd1DseUYx50yeOhDKyLjmFLsFVcgAdT8QB27UwoIOrN1wfWgQqNQzbj7UrC/hE21QluQLkscCp5dotKtM6lwXwo8mnNL4eZZ0blGfng/lRkj7xcSsU3CaY2EKjc4devrXjPlo91vhimZ8iQDI7+lS9Ouyk6Vjiqr7nfPalwtlre2MS2yl+RM0KT5E4JkdTPbKQw5wNvWrTsypx4LPR+I5rEhVkZkDZx3HyqMmO9o2xZq0dD0HjS0aNArZUnv1BrllikduLOm6s1kWtW8qKSAQdySdjn9Kwp8Ha2mrJMWs22HjGQrDYltsd/lvWv5RCd6ZLtuILeGJskMV23Jzj6YpSn0UoxWw5OLQ05WGRIl/6Q2wOPXt/mopvbY00tIk2vE8yAhbpebrvjcdcVMuNFpxQf8AxDJufG5SDWfpXZoppkW74hjKYabJwBknFHGkV7UVk+uiNQ3PGq+eaFHdieRPRktd4sRVlVJiQwAJFbRxt9HPkypWjJHWiv8AOaQnO4HlW6j8I4vfdsr5tRa7l55HIQHYVcYMylO2RrrVo40yz8nKNq1WNszc6WjOX+oPeMQmVH1BNdMF6I5ZTcnoYSM7Bjk/OhzJjFt7H47cqN1NZyn7OjSMNmd40Hhi2fBAJOPTauzwnaZxfU0166M5FLnodq7zyR5GyKWirHQCSCDRwNPtM6B7O9WvLktpnxO0Y5lx1x/tXg/U/Hjiayx0n/ufpf8ACP1fJ5MX4uR21w/wdm4T1e9sbpXjuGikj+JWB3wP3+deSszxtOLPt8niQ8lOM1ej0BwV7bdIuLRLTiab3e4jwgmxlX+fka+g8H6gsv6Jcn5l/EX8OPxG/Iw/y9o6HY8XcPX7BbbVLZyewkGftXqqVnxssc47aLGdUvISkQR+YdGb4TVkHn72m+wjiHWJ7vVNO1OGwmnUwzQ2oPLdJuRzgjfGdiBzDsalqwOT8Sew7Ujwo97Pp/hLaGOLIczSHLbkMfn37d6QPZ2XQOA9CsNDisdJgSOOa0hjt1iIDHcHmY9ySFJ8sYoCzr/C/DVnoWlW1nDGCYowvOR8RPeqQF+MKABTJ7BzGgdBZNAUDOetUFAyakKBk0aChWc0EhE0+h1ocFIEKFAMOgoFBLEnboKAQVBQKABQAKBcAoGGDQJgBoDYUqeIhTGQdsUDPCH8Xmoae2sT6Tp8BSWGYGY8mBnHak3qjOt2eYXyCTnepGJd4yu+5FA7GFmaNuZMhfnQIMSc55ifypWF2PRvJHhhjBpjVrZLtZsOGXIANKgTvlnefZdqZudMtpJ5FLQsY8Hf4fX86Y9ldxHYR2Ws3EagchcshXoVPSvJzxcMjXye348/uYkyAi4BAOQd8VzyaR0QXyORqnIOXO35Vm/ZvZoqfCETRkESqB0xn0pp9A1WxllDgEjr3p3RNrohT2RA8SNsEdCDVxn0Zygnu9iIb64tn5kkKEHfB2P0puCaoSl6Mv7Di29g3R+ZduZX6j5Vzyw9nTDyXEv7TjJJYws7FT09MVk8b4OiGe9sen4gM8QWOchT1A6nfpUrFu2bPKmQxq0zEKpJXPXO9W9LSBTXZNtNanjIBLEDdSDjFZuMnzopz7RKfX7lQ0hlAAxt571Dg/kqM1V2VlxxG3iHPxjPTNUsdc8hPMkrTKnUOJpJiwLsB6GtFBxW1bOd5+0U0+qhmZg5ctvgmtY4pyrVGE81kZrh33Zu+2K2UIrSMHJsiT6n4Z8OIhm29atQM55KVEFxNdNzSMzenYVd+pnuXJIhtOUDCnOPKoczSGNktbYRjJG/esnNs29VFB+HnBBx9aEwguyFrPC97xJYvHp0StcxDxFUsF5gBuBnbNdHjZo4p1J6Zj5eCXkwqCtrZzi4tbvT5Tb3dvJDKuxV1IIr1009pnz8oSg6apiopaZNktJMDOaTVoabTtGr9mmoracURwyMAt0hjyfOvL+r4nk8ZuPTTPqf4R8teN9RipPUk1f5O16ekaXJlR2LKeVgFz1Hma+VbderP2iFNqSZaqrW7xRyScrAlSCPI7H64FaYsrxT9o9OzDy/Fj5OF4pdpodl99ll8SGSUNHsSCQK+rx+VFxT+T8k8vw3gySwzW02jRaF7QeN+HT4dlqMksQ6rL8YH3rVeSuEeXPw8fa2b3QPblP4kkHFFmZC5GJofh5R5YNaffWrOafgOri/6Gq/4q4Z12yk0+0u4LmJkwLfk5WPpynrW3vGrs45YckXTQOBNFstJWSS4iQGGRo41cEmNT8QAJ+ZpKcW6TCWGcVckzodveW8qjkIx2rUxasfJB3FALQWaAvYdArBQFgoGnYKBcsFCdDsFUDHRUiQrfvQGg6BCSTQUgbkUAFQMFAAoAFAAoAFAAoAWpHTFAHnT+LX2XaXrHCM3FdvahLy1cNIyD8a98461LVkujwNqcCx3UyIvKFbAGc4qboKsq5YnO4IHlTChcFjPKvwKTk+VJuhqLZOj0d+jyBcDJGOlC2NxrkJrRIwSrMQDuT/AGpkseiUrhQwaM5wcb0mrKTrk2PB+v8A+kcyHm5XbIKkZB9fSiDt0gnpezWjouuQoLeznmk5pZIyssWN4/Lf1rl+owUPWS5ao7vp036yi/m0UEkBDFU/EpyMdx6V5j1tnqJNodtXUtjAwR1xWck2rbLhofltlADH4ge3lWSfwauPYw1sEXAzgnz3q0/kn0raIrxAAjGVz9aafYqaIE9spbcdc4rRSoxn+ERJYmhPwMwPkelaJprZm4b+BC3Msf4m+1NpMak4csej1KYHPiupBHTNQ4Iv7vyyZBq8iAMZMkjcHvUPFejVZktsd/1ucZKtgnfFS8CfJSzojS6vePkKxA/KtFjS5IeZ9DEl1eMcGTHqKI443ZEsjbGfjbLM+flWlRXRCbfYiS4iiGObc9gd6dtg2kMNNPcdMqvlS0he1iobUk83nQ51oFC2T4LUCsnM2UEWEVsV7dKxlI6Ix0Le3CjnkwOmB51Cl8FOC5ZGePOMYOfMVpZlJPhF3wxmO6JGMdDmlPaNcS9XZoNR4Y0Hie2MGp2scmThW6MvyPUUQ8jJhdxY83jYvIVSRzbir2IalpitecPSteQDcxNtIo9D0avRwfUozdZFT+ejyPJ+kTgnLE7Xx2c8a2ntpGhuImR1OCrDBBr0lJSVpnjyg4upKifodxFa6vZ3DjAjmQk59ax8iMp45RXaf+x1eFkjizwm1w0/8o9MGzhvLaKSMhfgEgK9z1r4FTkpUz+i/GgsmBSXaT/wWWqQJOkE0SHm5Ap37+dKM60dEscZR/JIsrm4tvDL5MTLiVSg+ex+9en4maU4ON8Hw/8AE3gQx5IZorbTsuf9PhuEWSD4w4zhe23lXVDNT5Pk5QguURf9LKOR4fXrkVr999GTxxe0M3+iTe7mYTSQBcFZVyCh8wa6MXl1F3sMHiRzZYweraV/1LFb3U47A2FlxvdQhwJHMsgYOB1Pnt868/xvrKw5lKcU02fpPkfwVg8vxawN+9c8rgkcH8d8U3HImkajd3PhsY2LZdWYHHTevsJ5lkxrJhVp7R+TeR9Oh4OWXj+WkmnT/wDw7PofEnEyaQ99rltbLJFjMMbYkI8+XfH5Visqgv8A3Wk/32ec/Ex+RP18e6+Wtf3LTSeOdG1NxC0/gTd45dj/AINEPIxTdJ7Mc/07yfHVyja+Vs0aSpIMqQa2OBqhWRQGw6AthZoDkOgoFCJbHh1oDoVQCBQUERk0E3QWcbUAkFQUCgAUACgAUAGelAAx50CsKgZD1vSLTXdKuNLv4FmhnQo6MMggjcUCs+ZHtu4Bn9n/ABtf6SQTC0heFipHwk7dazYIwltGplw5XGO4obpDS3yTWureH5jbes23VI2VJ2RLzUf5R8IAMTue9VFfJE5t6RWCZzliclj96sxJNuJwFUg4OcZ7ZpcFJPj5Nz7PNIh1DVkl1OOUWVsplnKJzYUdM+hbAz60pT9IOa5+Ozq8fxXnzRxy/l7fIq04rl1Di7wpHdoZndFUnZRvjA+lc/lXPH7Po6o+mLyXjhwamdVZcKcMpypz+VeTJ09no8IbgcCTyJ3YVL2rYLTLiHkkC7ZGKxaf7HRFqkNy2yM3Onw/OlbRTV7RFuLYk7DqNx6VSdEyhZAuLYr8YGVq1NGbgltEKZA2+N6tOuDN7I72fjAdt6pSolY0+Ria0KsCBuPKqjITx/BHeKROqkA/rVqSYmpLga5p1PKMkdqq0RUgGSddjkA0KhS1piy8rbbYHc0m0ik21oQfGY8oJIPYUX2JJt0OLaYYM2an3NPRLbJcVqrbKCDWbkVGNk2O3HYYrJyfJqoEy3t0AyASfKolI1UaLCO2woYriobs1SpbI90M7EbA70kyZOyL4Dcvidun0qromML2yz4fXkkc56n7U5O0aRS4NVpzS+I58P8AloRls9Cen6Vm4tpv4LU0pJPs1FkySLysAQdqydm6fyZrjD2Y6PxIj3PgrFccuedRjJ9a6cHmzwOr0cXk+Bj8hXVM4vxd7NtQ4WkD554juD3Fexh86OXXZ4Wf6fLC7W0dx4NtNUutBsZpeUH3dQST6V8X5bgs81Hi2fvH8PTyZfp+OUnul/sXhkNpbmWRFkPMVAGdvXf5Vhaeke1GLW2XPBUdlxBePYXivG4XnRR0OOv61tiy/Zk67R87/EGGWfEmlwzXzcIwQzCbTZpYZUG7KcD7fWuiOe2fE5PGXMg45rqBxHqlpFcxk/8ANVBzD51s8jS09GK8SK2jQR6Lp2u6bLaxlAkqFcYAO4p4s7jJNsuEIQknVUcY4h4JvOFbyOLVbeeRIXf3e5XPIyMCpVu3l9q4vMwTjJyirT3+x+sfw59Vw5cUccmrXyzQ+zrh/U9BtbmSO5l8C4cSIq7AZFe54nnSXiqD00fDfxR4Pi5fqUssUna3+5vdEkuobwpMXMdypjYtnqRsd/WuXLncmpNnz7xRS9YKiBrel+A5lebwpAe22ayll3aZbg62tFdae0nW+HZFVLs3EAIUpJuB8j2r1fC83KlV2vyeN5nheNl3JU/xo6Xwd7TtD4oljslm8C8chfDfoSfI16sPOhaU1X56PIy/RZte2F3+HybdkkjGXGx6EHIP1rujKM1aaf7HkZcOTDKsiaf5QAR1FMx5FUB+4KAY6M0AhdAI7L7HvY5o/FOi/wDE/EzSywTSNHbW0chQEKcFmI36ggAEdKTYM6QPYX7MAMHh1z872f8A++lYgH2F+zAj/wD11x8r2f8A++iwOc+2H2NaLwxoTcUcMGWGG2dEubaSQuArMFDKTv8AiIBBJ69sbiY0cWxVDs6J/wDBy6lueJbO01pZp+Hra2uET3fBujLCZeQfF8JAUgdc+lKwsprngC5s/Z9b8d3N8EF1dCCK08P4jGeYCQtnbJRsDHrmiwsd4l9nF1w7wrp3Er6kk73Xhi6tRFytaGROeMMcnOVB7DB2osLHtS9nmmaRHJp+p8aWdtrsNqLmTT5YGWNSVDiIzk8vicpG2MZ2zRYuwT+z/S7Phux12+4ivElv7JryOCHSmlRcFgFaQPgbr1I2G9FgmV/BvB1txPa6tfXmry2MGlRRSv4Vmbl3535QAoYHrigZYy+zRk1+/wCGbfXY5r6CwF9YxiAqbv4OcxEE5jk5cnlIPTtRYrPD38eXsRvuFbrTOIYria+vtXhW71K3S0//AMcCo8KMvzElivxEcq8uR1zUS/A4o8SzRNG5JBGNgKSuhsby0jhOXmHcntRQDkyidQIoeVU2J8zTSB7HLPTjMwPhlvIVMpJIqEW3dWX8egpKyLHE6sw2AOc+vpXPLN67s744E3Tjt9f/AKdJ0LRJuGfZhxLqJ1BYLtxDCIJQoM0LNvjJ5shipwARsfKvNy5oeR5cMbXC01+59P8ASPFl4fh5sqaTd6fwl8s5Lw+C3Edkq/0ydfPY16md1iZ8ng9p+Qm/k6bclubC7HtXkt09nryT6DgZJQEY4YDZvLbvUTTau9FQlemWtmihhzYXB652rCVnRBJE0RLKrBUHMBsR02rNto1STI4tmDMr/GSMA07vglxrgh3VpI2Sq7EbgDoPOrUkiXC1orJrYDIZWA7ZrRSvZilumiKbdUJHMRnPaqTslxQmW3VW5e2x5qPYGq0hh7cHKgnbzqk0tipcDXunQgj7b1V2L0/IiSyGfw5z+VNToJQ+AxaIvVaXu2xqKDhhwc8o64pSlehJNbHktSxBYkdx5VLkkWoN8kqK2OeZiPp3rNy6RpGCRJjt8rzKpIHeos0USxs7dkQMqA+fpUN75LiqH5wz5Vfwj6fWoRUo+3ZGlhDjLdF3+Zqk0uCfVJEOdedQozgbkHzpxe7Y0rLHRoAu5bfPnuKcpNlQj8l/bxTm4VIEdudCCoGdhuTjywKIXK4xJyesJKUjY6PbfylUb1zuTejt9UkWzQED4ulZsaVGK9p+mreaRN4UeXC4Ax1OM7V0+LOppvg5PMh7QdIrPZzxTLJwtawSJ/Nt38CRT1ODgf2rz/qmBw8huPDpn6D/AAT5scv09YnzFtG4uBLKAkcS4wCc/OvNXB9m1JcI0Ps8s3t+I1ZzklGUryZx9e1OCTls8b6/lUPGpcs61Jo0rDmRMFvMdc1op+rpHwTmmyP/AMMhvj8twD3rVZW9E2m9B2WhqsmGGw3+FsbUlOuQaVFq2joIss/jqv8ATMMg10LO0qTDHL0dwbT/AAKQ6YyCCWyigYbAcgCnr0rN53dGtez9ptsE+mRuEdUxyEYIqHO1sFKC0iu4t0y3m0yWa4jX8APMR0PT+9VCTUHN9I18bAvJzRxN0m9nKtYuuCdA1U8J8awC2ncRTxuk2SRIMqxZSQCcjYjbuKjF5HlYn7xTaq9bVH3q+hfSZ4ViypK9JtU/i7/co9L01NL4uvLKK+N5Ep8WKQgBwjHuBtkdNvyr6BZ15XjrNFU+Gvz+D4T6x9J/9E8v7MXcWrX7HX+HpNbswtwqTGE7hgxxjyPbFcMPLy4Je0XR5maGDy19rKk1/lfsb211izu0RogyO34lI2+lfQeF9XxeRUMmn/hnyn1L6FPx7yYNxXXaLBGzXrppnzzVaYvp9aZI+OtA+hVAJI9X+w4Aey7RfX3n/wDsSVLBknQPavwjrmpz6JJcyabqEEzQi3vl8IyYOAVJ2322ODv0ooVGypAYj21gH2Ya5n/og/8A546aGjyXg1RR0mb2tRxanrWradp88U2ozaVNBzOMJ7ooDBsdQ2427GlRK2Ma97SdK4gtrjTZ9Gmg099Qs5YLeJlAhtIUKGIep5ifLJNFBQvW/axFxFBxFp+o6DbR2mroPdmgjCzRyRsPAMjf1BVHKfy2ooOCTH7XLGKW84ht9M1CLX9RtFtroLdgWUzrHyLM0fLzEgHIXOM/eigIUvtD0m54RseHpp+JrV7OwezaOyvUjtpyebeRCCWB5sH02ooEVfAnF9hwza6xZ6gupquqxRRrNp06xTRcj82QxBxnp8s0MHoVrHHcF9xvpfFNnYz28eme6qS0we4uBERl5HAAZ2GxOKKH0ZTjuW1411nVdSvLfxItQupZ1jm+IqjMSqn5DA+lAcHlb22/wwaXeaBda9wrbMurWbG6jijUYlA3KY6dKTiO6OP6d7GoeJOEL3WEs4LSXkZ1WeIeMWBwU2/CQc52+lICRrvsL0rQ+HzFyyR3qxK7yBuZSxG2egAHTqT1pN0hpW6MHwXwrHc38wlVZEjbkULuCfSvJ8zyVCVI9fwfHUv1S4R1Th/gnTdDmW5vIfeJCc+FnHL6E+deXn8mU9HrQ8dJ+3+DN+2t4vcbpDo4khRIUScMR7u5bPQbHIBG9afTnKOdOL5XaO2fpPxMinFuldXVa5/NHJuB7AzawbwKStup7dz+zXseZOoJds+V8GFzcq0jelGLcpbIO+/n5V5Z6tC7eI5HKCWHQHfNJu+WCVlrBE6FXJyOpB6g1jN3qPJtTRYR/hz2zWTbT2bRiqHGjDncfcVO09mlWhm7tpSA2AoUdD3wKpNcMmSa2QJLcnKhOZiMeeKtMzVvorpbR/xPGQVJwPSqU/glwb6GhAGXnIITHfqDV+1EKPbGvd8pzchPzo9het7aG/dGLjA5cHoBT96G4MI2g5iw/OkpaD0TdgFtkZ26dqPcfr2H7qvNygdO3nR70Dikh5LUsQAu3pUttFpX0S7bT+fHN8I2qHOi1As4rAMvKoJAGw7fes2zRRTH1t1jTJwo6bd6m92y1HRFuJCGCcozkZq0r2RKTRHeHmX+ZsB2pt0Sle2RpEZm5Q2T0xjNCdu2VRd6RaKFGB129Kmcq0aQiX9pAffYF5QeZxGRv3GP708U/WSZl5Ebj+xq9HiaKMrIhR48qV6EHpj9a52nGbi+jui1OKa7RZSQ8y5IxjudqlsKKrX9PW508hR0U/WiEmmKeP3RQ8AaHZQC5bkiJE3NyFc5Nc31GcnKP7H2H8F44xeSEfnZrNQtA0EqRFYwy4OFxny/U15ybZ+hUky59lGk3MfFURefEUaOX+2AN/3tQm3NJaPF+v4l/o25O2dza0lBUo+cYBzTbadI/OZKO7Fx2zspRlPkRjrWsH8mTaXAS2AWYlUK+uKtuwcyZ/pvNjIwcYNVFUT7EaTR1kbw5VyCRgEdMVNbKWVx4HLTR5YJGRCwQjYE7VVUOU4z5RZanwpb65oc+m3Cke8RNGzIPiGR29a2wzSTjLhm/iZfsZlO+GeXfaD7DzJqseqXt7qF/PZlOeEgc0kUfRcdT8Ix8qiM8njp4sbpPg/S/Gn4vnwhkyNWqrf+5J4c0iS+1C64gSylggZfCj8RCjfY13+JleDA8cuz5j+KsuLzfLjKDuk0zXcN6tq+jXyqZHkgPwmIrzDc9K87yMru4s+ZngxtKlTNpA17dEPZabPnmP4UI7/pWUZT5SdhcUqk/wC5dafeahAwgvdMuY0GPjZTt57mvovp31bJirHnTr57R4X1T6Ni8qLy+O0p/HT/AP0uCwI2NfVwnGcU07TPiMmOWKTjJU0Sh1qieEKoBHq/2HH/APK7RR5e8/8A9iSpYmY32g6/ontJuZeG+EeCpNd1KEmM6kyGFLU5x+PYkA9mIX50LQI6dwDomqcOcIaboutXS3F5axsskiuzjd2IAJ3OAQPpSYin9tZA9mGt5/6YP/546aGjyZVBwbS79nVvp8Pumo8X6Zaa2LUXZ02YMgVSvMEMx+ASFei+o3pWHY1JwLplpw9Ya5qfFK20mo2r3MNuLCWTIViuC67DJHegLJKeyjV3HDFwt5GbTiURqs4QkW8jjIVxnfYEg98HyosLG4fZ9p0ejQazrHFS2KXFzcW0aLYSzEmFuVieTp1HWgBzRfZlDrOmaNdf8UW1tea/7wtjayW0hDtE5UguuQucA7jvRYdkXg72canxempmO8itH08+EiSDPvFwQ5ESnPXCH8qLB0Fw3wRo3EGkXWpzcXx2Uunwm4vIGsZHMKc/KDzDZs5BwPP0osExdpwFpE2if8QXfF629nLezWduy6dLKZRHg8+F3UEEHBoENWvs20vVdCsNQv8AjG0sDrE89rZRz2spWRo2C/E655AeZeo2zRZVnG772cWPB+uajpt5HHY3pma1vEwHVn5uXIHc+TDrt1rPJkjjj7SdI0xwllfrFWQPb9/Dfc/6FxDb6FxzaapccM3Fsms2ggmgmhinfw42Ut8Eg5mGQCMda8zyfKa9vR7jz/U9PxvFUvX3j/NdP9jmnBv8MeocMe0/j/2bS6us03BGnXWqC/NmyxXSwwJLyKM7FubAOTjBrg8jFKeSUW+E3/Y7sGSOOEZpak0v7m+0D+HaHUINAh4g9omjaJxNxhbpeaLo89tM5uIpCRD4kyDkh8Qj4c5zt3OK54+L7qKlJKUuF/t+1nRPzHGUmotxjy/9/wB6Mhefw0aDx/w3xHfa37SrfQ77h+xnl1qyuNCurh7ARXHhFleNgkr9PhUMRzkdRmtPEwxv3c6ceVXHR1Q8uePJ6RxeymqW0rdWcu9mH8OXCP8AwWOOeLPbTpHDfDet61e6XwzqFzpVzJJrK278jXPgoOa3h3XLOcqSQR0z6vkR95e0pUjwsUpYXLGob7XwaXR/4U+IY9f9oOl8dcTWvD1j7OJLVNWvLexn1FpPecm3eGGEc7Rsg5y55eVSMjqBzrA05ezqjaXkqouCv2/ocz4w4YteD+Kb7QdP4n0ziG0t2RoNT02Qtb3KMoZWXIBUjOGU7qwYb4zXNkpOk7OjE3NW1RAt0mkkHKckEBhn86wdJG91ss1jCLgAZx5bdKxbN4rQ/HA7LgoRg5ABzSbvktJj4gLRlU5Sd8hqm/wOq4IU1iHJDxsmTvin7tCcU+UMSRRqvKHAG43GTVXatkNUyLLak4bwwvbcYppiasYEOSqch5icbDpVENNMM2gJwdsdcii6KSGDbWzP4ZwSdt+3nT9qQpJJA93jB5UK46dKLGkLFtGi8zk5IztS9hpIWsakAJncjtSbsfBJt7dFAPKx6Z+tQ2ykkWMcEnKNvmCalmiTEe6hst4m46ADak2P0vsiT2wVvEySRnHrVKVaInBIYeLnHKnUHr/erJSobjgDMO+evnQNF/pNrjOdwB9Kym7ZtFFpcQiNQVO6jnHbpRB00TkScWl8Gnt5FM7SxkMswEw5emWGSPoSajI7m38l+O6xpfBPcAhcjOSOh6VFtm7GdTWOPTnd23IIA69qI8icmloyfCMc4u7nkKlZJeYAntj/AGrl8+VyjfSPsf4IjK8kmuWjSTmeKZzPJtEMlR37/wB64lrg/QJwbey+9kupS3HHVtaGMhJQyvtkbDIpp+jTPE+tx9/GddHpGW3QbKowemBSbt2fmso03YtbNx+DfzFaqyNdjo08EKRnJHQ1XwS2rJcFgWUHpjGdu9aJWQ3WhZ0sSHJGOWnRLdC0siq/Eud8ZFQ5NDi96JqJ4SkK/QYoTV3ZadumiJqGm6dqFuVubVHkXdG5dwfQ01l/8WdGLyM2OWpOmc+1CxtdPuSup2azwHYN0IHrUzyS/odbTyq09iZ4NCjiaTTbSNVAJyVyR9h8qyc9aYQwJf8AybNDpuu3zW0LWV2sfKuCFApLyJxS9ZUzKfhYJX7Rv+rJB4o1KRXWcwySA4+KFdxVPz/I4crX7L/gw/8ATMCdxTX9X/yIXVbTVZs+D4dycgry4V9vPzr2fA+r5Ifpl2ed5v0OGf8AV2hxa+4Pz4WM0CZ2X2Pe2LR+F9G/4Z4mWaKCGRpLa5jQuAGOSrAb9SSCAevpUtCZ0K19s/slso2jtNYS3V3aRlj0+ZQXY5ZjhOpO5NFMQ6fbp7MAMjiJz8rKf/7KKHRzr2v+2XReJ9DbhjhgSzQ3Lo9zcyRlAVVgwVQd/wAQBJIHTvnYSBI4vVBZ0+P2q6IlxccTDS9Q/wBevLNLa5h54zZTSJH4aynI5xgb8o7gb96VBRFX2iaTLwbYcOPf8SWclpZS2skdnJGtvOWLH4wTkjDYPpQDQ/oXtdg0bU9Ck/0+afT7HS4LC9t35fjkid3SWPfAKlhgnHcd6KDkLTvabpEHD8WjSX3EmnPHd3VwzaZJGglWV8hW5jvgfqaKDkRw37W4+H9I0LQkt7r3OyivYb/w+RZHEzsyPE/VWXm9N/vRQUQ9D9pttwroemaVo2iw3UtvfyahdTXyHLSZCxmPlfYhMg5zufuUFEFuMtDt73i99OsLpLfiGBo7WNgoMJaRXIbB6DBAxntQOmyfwz7R9L0Hg6Hh+71DiHTZoruW5M2lyxp4isFAU8xycY8q58vk4sP8zR0YvDzZ/wCSJR3HtM9nelcGad/xVYa3JFw1cXN6jJJHDDMJHVgJHYEgfCoJA7nFc0vqOJK1s6V9MzXUtHIh7YODfaFqmpcW6k//AOPXmppeWghu192jgwS6FGAZmB5QD6ffwvM8uWeLtNO/6Ue34fgvx2mqar/Jt+NPapq/tH1XVL33ua24Wu7uOeLT/doYnmMeOUyvGvNLggkczN28q5PK87Jnm0nUW+Nf5+Tq8XwIYIJ1ckud/wCL4LTiL28TX3E3F9/cahrk2ha5pF5p9ppklzmKB5YQiMYy3KMHmJxvvXXL6q5ZJ8+rTSRhH6Uo44JJeyabfzTM3wpxlwNxHecI8V8XcK68+v8AAlrbWVnLaXMSWN4LVi1sZuYc6spxkLkNgZ8qzXnYF6TyRftGkq4dcWEvDzNzxYmvWTbd8q+aKH2j8R6dacBe0U3Gmyy6hxXpskLPBhVDvcpO7MSRt8LdM9a5cPnJSyKfM/8AmzuyeHNLE8f/AIb/AMUecOBfar7HdT9mmi+yb2ycO8TXNtwLqd9c6DecO3UCNLb3brJNbTrMPwl1BEi/EM4xtv70MsMmKPunr4PFzYcmPyJyxtb+TW6Z/Ezw1rftR4y9pXFFpxlwzqGvyWp0zUOD9V8K50+3t0Ea2rxyFYriNo44gxYA8yZA+LAX3oubnK038EPxpekYRp18nP8A21+0PSfav7TtX470Th86Taah4KiByniyMkSo00vIAniSFS7coxlj16nDPlWSTcTp8fE8UFFuzLwW68weIZOMFh3G3+K5Xvb4OhQUnoso4m5cKAW8qiTtnQkTre2VV+MlW6kGs3+DRJVsFzZSqocSHGduYffei6dCaGmlZP5bISTts3Wm6Ek0NG3E+WEI64OUFJ/uPkjvC8RJG6gdDnpVJ6JcadkVomD+IIgOhB5cU+BJJkSYSr8XIV8j5007JaoZZWHxcoBJ6Y3FFgl2NgKhLlQD1otsKEtKpAAycbVVCuiTGrOyjlPNnoo61PG2NbZZxWwiQZIG2dzuKizRLY7kldmyN+1S2aJaHUiYjJPzqS0iHPCrykAHoTjP79KuDozmrGngEfwgbYxjPWtEyKoRFApZeYEcxxgUpOhxWy401+vwkFjgZ8v2KzdvZadFrcBSmOTCgYoSoJO+S00ot/pkF0GPwloD/wCk7fkRSyqqZPjvmJbxsSqr1PUk1mkdJF1ohdPZSuNiaqCd6CVJFBwtcIZsryhRLylj8q4PqGppfg+8/gl1jn+WaHUbqC+mdbZwyKuJJO2T2riuj7tptmq9itukvG0XhRbxIzBj6/7ULclZ4P8AEM/Tw3FLlnpUxOCH3XO2w7VqnfB+Yz2w4oXWXA35jnrVpU7Rm9rZYJGSBtnHnWqbIcSXDCGJH7FaLRLXqPx24ZieXOelEeSJOh4WiFVyg+I9x1oaEmyNcW3hBzHBnB6Y23rJx9baRrGV0myneV4S6seXfpy1l7NG3re0ZrWrBb7n589dsYNJv2s6seWUaSM5/wAL3sRBtJGDMDuTt6Vi4tbOmGVSf6iTp3CmppEjT3fKGYkcpJyM7nFZfa7bNPeLTSRsLDTtM0xJJb6QzSEfCsaDPluTWsFCFyk9/C/+zkmss5JRVL5f/wBIk3Op8OJaRBNAVnU5crJuwPQnb5fatoeVBpRUFp827M4+PmTl/wC42n1X+zKsV+pH5MHmgrkVmgVBZoCgjQNAoGCgloImgaCJNAUDmNAUETQMLJO4Gw60nJLbdAk26itjLy5kWKPDs3l0H1rzPJ+q4cGk7f4PU8b6RnzK5aX55HotMuJgJ7m493h3C8vVvlXh+R9UzZ9J0vwe9430vF4/Ct9tjJudNtG5o4+eTfEkm5rzp5JNfn5PQjhSe/8ABx/+JfUXm4DNo8r+73dwkcgU4O+cfmK38aUknJbaLWDHkyRU1q9ngc8T6ja6wEt7qWO3inAQNsygHzG+9fSf6aOTDdba/oeV5Xnx8by/sNfoTr8r8nu72RcW6jxhwuou0ijntQFbwz8JGAQa+Z8jElUlwezlgsM/WPDpr9maJtIvLm65XkBLH8I6AdcmuFyS0iHFs1At/dLBNPi2VPiHbfqTXPJtm0I+qtFJxHaw6xpF5p1yMpPAYjkb7jH96IN2n8DaTi4/J4h1y0i07Xo7KPTTZyIjxXGZC4nkV2zIM/h2wMeme9fUYJuWP0tNLa6e/k8LPjjFKSTTtp75/wCBahg2U7U2tGdfBNgcghsAAgg7bAmoaXY1yXFjJyttnBPTyqGtUax1svIPDkIBTJ74rCSfB0RaLi2sFkiPIcjHTrms22uTaMUxaW81ugw6N/5T2pJ3yNxrgiPpsMxZipQnfBOR9/31p87Iq+QLpzcrABSMDscUr2NQK6bTyLgghvocgUe2hShQxNYKY8oCAcgkZ32/KrTpbJ9LRFOkZX4ZCMDGBuPnvR7bF6WiPNobljzXDKcZ2G+P3+tL3XQ/tN9iJdHhjUM1wzZ7df7UKaeqBwS7HILOOFeZGzjr8FUpsn1TJZV+UliBhf8ApFF2UkHBGrrzyE7bHPnSbS0C0yckCGLKId984xWLbs2X7D0VsqR7gnPbFJtspLYzJbsVIRBk/WrVt8kNWRZbVQpBBPma1Tt/gzcaIjQODzAY8u1NgkTbAOhzsSuwGO9ZN1spKy3kVvDlOxEa5z5nFUnbFIlcNJLcW89nK5AWQTKudtxv/alk2kjPCmps00VsCSwXbG/pWaZ1lHxhMba2ZM4OM4rTHzwRk4KjgVIpZYiU8TLcxUnGRXj+bNzyNLrR+mfwd4rxeKpyVNuzVa1BDczyizIiT8JQHO2fw5rnvhtH3Ekujdfw9aQbfX77UJZecRxpGu3c5Jx9hQn7S10fG/xPP7eFRu2z0cVUgbDH9q6IqtH5y3sCRr4uM9B9q0W3Rm26snW6qw5ic56ZrRPsltj6RBZABuNutFMltsmiHl3XbatUlEi7HUBBCEZCd+9N/BDVcBOFZVOcBj1HzqJNNDTIN5YJLhimTj8XQjzrOcbNYTaKWe1jUlYow4yMArWTfrdHRF2reiNLaRtgoojKDffYnp0rOS0vk2hJrkYlzB/LR2LD57fvI/Os6cf3OmDb2yrvJWEFx4YLBCCcf1b74zWbVtpcG6bbV/8AfwUdxr1rYmKObSnuUzuOblPQ96mMvWSXqnsqWL2i/WVWaMY6iv14/FgMR50DWgu1AWgqAsP60AwUBYKAYk996Cgs0E8gHLjmd1RR1LHAFTKSgm26RUIObUYq2xifUrO2XmjxMM45ubC/Tua8XyfrWOFrErfz0fQ+H/D2XLUs7SXwuSk/4ptZ5FijUXMsjcqRjcdsYFeB5HmeT5LubaXxwj6LB4HjeNGsa388stI9XtrAtLceG8vLgJGcgfM98Vzt09nRHG5/qWvwV2o8USzKeYkMmAF75qbNqSjVEewhk1BhczzGNBuc9aG/kwqV8Ffx9odjxRwtdaFZwRyTMviW8kjAASrupyduv5V0+M7fr0yk4x2+f/s+a3GOmXsHEuoyT2jxBLp1cHflfmIK+u4O9fUeHmgoLHJ7S/ujw/q/gZfIyPyILTq/3PZH8N88K6e8aOgZbK3DAHOWwck+tfP+W7b/AHZ7eSNRxRW2opM7npdvbR+JdM4LEkfSvJkktiSdibuUcgCYGBgeVYvZo4spQ/jyv/NBVdiSO9O0uBJM8r+3/hyy0HiW61KGxuDcX3h3MM8b5jRQcSgr3zlTXteBmaSUnp62jiz+EskpNq21a32jFWEnjwrOjBgQN812z06PMjF9llGMZJTJFZ8FUSIjIpEgYDGB17UN0qY0jR6ZMJCC4znvXPNNnRjZqNNhHKMP5bdzWDts6opEyS0TKkFT/wBWd6lpvRTSa5I9yqpmJwCW2yoxVO1wKkhMUDQKA8mBsWJPyqapP5GorkEyQS/FKACNs4qUminTK25itzt0CnIwDuOtWm29kOKG+S0cAkZxkDG29G2IaeG3RAyNjff1+VS/gpR0Pp4XN1HP3DdfrUpNOitA5IjzcuG5h2UYq0nRLSIV0bZg8YZck74FaJUZtrgTEiKixogKr1NKnsEknaJ8RjKjGM46DttWTTs10PZjVR8CgZ6E70KLG2hqYxE87coA642q4promVFfdzRBiI1xnb5/vatEmlszbREDNIQrJkfKplsSZKsY3DDbsdyKluh1RdJA7xeEwI58knyFUkS3olaLmLWjbqoPPF+hpz1SZEdytGxEa29s0xIyBkis6Z1J0cq9omsiaVbKI/HKSvWtUlCLk+hRxy8nLHFFctIn8KWVtbIlxcNKoRfh5Gxv27b14M5Ld7s/bfpfjR8bBGEWkkkuV/Xss9R1tZ5m5E5ZGAD7dT51NJ8noTmqpNf3R2/2A2TQaHLqE4x7zOxQkbkDAz9wa2xRpNrs+C/iaSllST4XydmFyrAAN12FVTPjXCrHPeFV2OMZbA3p20R6OiVb3KkKOYNnerT+SHBkgXAUKWO2Rv8AM03J0S4a0XIcMoYHJxn5VunezClVAUbFsZzkijfIu6CIc5KnGNgPL61m0+aKSTdEWeUANzjOSR13yKzcnuzeGO2qZTXF2IyCCFGBy433NZex0LFdkW4lhUMzLzMfPbHepets0jAqL66MpKgKME4P9qybvk3jFRVGX1vUJohKkbrzcwAAOSR3x+8dqlvk6YqlZl7ziWWNzDDFzmU8vZjtVQhKUkooUqim2+Ef/9k=;" parent="1" vertex="1">
          <mxGeometry x="-191" y="-157" width="401" height="401" as="geometry" />
        </mxCell>
        <mxCell id="UsvL8fTwBF5iR_-93dB0-2" value="&lt;font style=&quot;font-size: 16px&quot;&gt;Abayomi will be looking for new and intuitive projects that show the promise and potential of Ewan as a potential junior developer. Abayomi will particularly be looking for projects that include specific programming languages and features. Additionally, it would be useful for Abayomi if she could download projects to show them to the recruitment team at Zoogle.&lt;/font&gt;" style="text;html=1;strokeColor=none;fillColor=none;align=left;verticalAlign=top;whiteSpace=wrap;rounded=0;horizontal=1;fontSize=16;" parent="1" vertex="1">
          <mxGeometry x="-180" y="336" width="380" height="217" as="geometry" />
        </mxCell>
        <mxCell id="UsvL8fTwBF5iR_-93dB0-3" value="&lt;font style=&quot;font-size: 16px&quot;&gt;Abayomi is a talent scout for zoogle, the worlds leading zoo indexing software provider. she has been given the task of finding new potential employees for the company.&lt;br&gt;&lt;br&gt;Abayomi has a few weeks to do this and will be looking over every project and website that she finds, looking for interesting features and clever functionality.&lt;br&gt;&lt;br&gt;Abayomi will be looking for a way to change the site&#39;s settings and accessibility quickly, mainly due to her colour blindness.&lt;br&gt;&lt;/font&gt;" style="text;html=1;strokeColor=none;fillColor=none;align=left;verticalAlign=top;whiteSpace=wrap;rounded=0;horizontal=1;fontSize=16;" parent="1" vertex="1">
          <mxGeometry x="636" y="-118" width="422" height="281" as="geometry" />
        </mxCell>
        <mxCell id="UsvL8fTwBF5iR_-93dB0-4" value="&lt;font style=&quot;line-height: 1 ; font-size: 16px&quot;&gt;Abayomi&amp;nbsp;is 28 years old and describes herself as a kind and caring person. Abayomi&amp;nbsp;is a African national currently staying in London, she has a boyfriend but no children. Abayomi views herself as a patient observer who puts all she has into her work. Abayomi&amp;nbsp;likes to meet new people and discussing there background and interests.&amp;nbsp;&lt;br&gt;&lt;br&gt;At weekends,Abayomi&amp;nbsp;loves attend her local book club, meet friends at her local cafe and attend rock climbing sessions at her local gym.&lt;br&gt;&lt;br&gt;Abayomi doesn&#39;t have too much experience programming but does understand the basics as well as some more advanced topics. Abayomi tends to focus more on the complexity or intuitive parts of the projects and websites she reviews.&lt;br&gt;&lt;br&gt;Abayomi still feels young and wants a good work-life balance so she can explore different activities and avenues. Often she will stop work for the day and attend an event, continuing and catching up on work in the following days.&lt;br&gt;&lt;br&gt;Abayomi has tritanopia and prefers reading larger text rather than smaller text.&lt;br&gt;&lt;/font&gt;" style="text;html=1;strokeColor=none;fillColor=none;align=left;verticalAlign=top;rounded=0;fontSize=16;labelPosition=center;verticalLabelPosition=middle;horizontal=1;textDirection=ltr;spacing=0;fontStyle=0;whiteSpace=wrap;" parent="1" vertex="1">
          <mxGeometry x="222" y="-108" width="382" height="537" as="geometry" />
        </mxCell>
        <mxCell id="H8I3gjsOA6SiT3G3xuDd-2" value="&lt;font style=&quot;font-size: 16px&quot;&gt;Abayomi will be using her dowwins 01 multi-purpose toaster integrated computer. She has used it for a good while now and is thinking of getting a replacement as it has been getting slower recently.&lt;br&gt;&lt;br&gt;Abayomi uses oppora as her browser and uses Micro Dull-Edge&#39;s integrated pdf reader to read pdfs.&lt;br&gt;&lt;br&gt;Abayomi doesn&#39;t like to do work on her other devices but when she does, she uses a kPad and expects the polish from websites, that they have on pc.&lt;br&gt;&lt;/font&gt;" style="text;html=1;strokeColor=none;fillColor=none;align=left;verticalAlign=top;whiteSpace=wrap;rounded=0;horizontal=1;fontSize=16;" vertex="1" parent="1">
          <mxGeometry x="622" y="158" width="450" height="281" as="geometry" />
        </mxCell>
      </root>
    </mxGraphModel>
  </diagram>
</mxfile>
